<svg width="450" height="125" viewBox="0 0 450 125" fill="none" xmlns="http://www.w3.org/2000/svg">
<g opacity="0.8">
<path d="M357.301 57.615L330.547 50.8777C330.547 50.8777 328.626 47.1299 331.734 45.8457L356.011 51.0562C356.011 51.0562 359.089 54.1809 357.301 57.615Z" fill="white"/>
<path d="M357.301 58.2708C357.248 58.2708 357.195 58.2645 357.142 58.2511L330.388 51.5141C330.205 51.4682 330.052 51.3457 329.966 51.1781C329.92 51.0895 328.862 48.9894 329.526 47.1794C329.85 46.2959 330.509 45.6434 331.485 45.2398C331.607 45.1895 331.742 45.1772 331.871 45.205L356.148 50.4155C356.273 50.4423 356.386 50.5049 356.476 50.5959C356.511 50.6313 357.334 51.4755 357.922 52.7778C358.722 54.5519 358.707 56.3297 357.88 57.9189C357.766 58.1389 357.54 58.2708 357.301 58.2708ZM331.014 50.3195L356.931 56.846C357.855 54.4218 356.154 52.2137 355.669 51.6533L331.806 46.5317C331.275 46.7894 330.929 47.1508 330.753 47.6318C330.4 48.5926 330.802 49.7992 331.014 50.3195Z" fill="#161616"/>
<path d="M320.292 59.7998V102.018L400.812 121.405V76.5072L320.292 59.7998Z" fill="#EAEFE8"/>
<path d="M400.942 122.061C400.892 122.061 400.84 122.055 400.79 122.042L320.27 102.656C319.976 102.585 319.769 102.322 319.769 102.018V59.7999C319.769 59.6027 319.857 59.416 320.01 59.2917C320.162 59.1671 320.362 59.1173 320.555 59.1579L401.075 75.8653C401.378 75.9282 401.596 76.1965 401.596 76.5073V121.405C401.596 121.606 401.504 121.795 401.347 121.92C401.231 122.012 401.088 122.061 400.942 122.061ZM321.076 101.502L400.289 120.573V77.0412L321.076 60.605V101.502Z" fill="#161616"/>
<path d="M400.812 76.5072L428.92 64.2163L429.007 106.827L400.812 121.405V76.5072Z" fill="#EAEFE8"/>
<path d="M400.942 122.061C400.824 122.061 400.707 122.029 400.602 121.965C400.408 121.846 400.289 121.634 400.289 121.405V76.5073C400.289 76.2467 400.443 76.0109 400.681 75.9065L428.724 63.6159C428.925 63.5278 429.158 63.5464 429.343 63.6676C429.527 63.7882 429.639 63.9938 429.639 64.2149L429.758 106.826C429.759 107.072 429.622 107.298 429.404 107.41L401.242 121.988C401.148 122.036 401.045 122.061 400.942 122.061ZM401.596 76.9361V120.329L428.45 106.429L428.335 65.2172L401.596 76.9361Z" fill="#161616"/>
<path d="M320.523 59.8L355.762 49.0996L428.996 64.2165L400.962 76.5074L320.523 59.8Z" fill="#EAEFE8"/>
<path d="M400.962 77.163C400.918 77.163 400.874 77.1582 400.83 77.1493L320.391 60.442C320.098 60.3811 319.884 60.1291 319.87 59.8294C319.857 59.5296 320.048 59.2592 320.334 59.1724L355.572 48.4721C355.677 48.4406 355.788 48.4351 355.894 48.4574L429.127 63.5742C429.406 63.6319 429.616 63.864 429.645 64.148C429.675 64.432 429.518 64.7027 429.257 64.8173L401.224 77.1079C401.141 77.1443 401.052 77.163 400.962 77.163ZM323.172 59.6807L400.891 75.8232L426.848 64.4428L355.793 49.7752L323.172 59.6807Z" fill="#161616"/>
<path d="M400.942 92.3911C400.892 92.3911 400.84 92.3853 400.79 92.3733L320.371 73.0983C320.02 73.0141 319.804 72.6603 319.887 72.3081C319.971 71.9559 320.324 71.7388 320.675 71.8227L400.871 91.0442L427.854 78.2902C428.181 78.1357 428.57 78.2763 428.724 78.6038C428.878 78.9314 428.738 79.3219 428.411 79.4763L401.221 92.3284C401.133 92.3701 401.038 92.3911 400.942 92.3911Z" fill="#161616"/>
<path d="M400.942 108.134C400.894 108.134 400.845 108.128 400.797 108.118L320.277 89.7676C319.925 89.6874 319.705 89.3362 319.785 88.9833C319.865 88.63 320.214 88.4071 320.567 88.4892L400.861 106.788L428.707 93.0397C429.03 92.8792 429.422 93.0137 429.582 93.3386C429.741 93.6633 429.608 94.0564 429.284 94.2164L401.231 108.067C401.14 108.111 401.042 108.134 400.942 108.134Z" fill="#161616"/>
<path d="M392.969 83.9538C391.744 83.9538 390.747 82.9538 390.747 81.7247C390.747 80.4955 391.744 79.4956 392.969 79.4956C394.194 79.4956 395.191 80.4955 395.191 81.7247C395.191 82.9538 394.194 83.9538 392.969 83.9538ZM392.969 80.8068C392.464 80.8068 392.054 81.2186 392.054 81.7247C392.054 82.2308 392.464 82.6425 392.969 82.6425C393.473 82.6425 393.884 82.2308 393.884 81.7247C393.884 81.2186 393.473 80.8068 392.969 80.8068Z" fill="#161616"/>
<path d="M391.4 101.262C390.175 101.262 389.178 100.262 389.178 99.0328C389.178 97.8037 390.175 96.8037 391.4 96.8037C392.626 96.8037 393.622 97.8037 393.622 99.0328C393.622 100.262 392.626 101.262 391.4 101.262ZM391.4 98.1149C390.896 98.1149 390.485 98.5267 390.485 99.0328C390.485 99.5389 390.896 99.9507 391.4 99.9507C391.905 99.9507 392.315 99.5389 392.315 99.0328C392.315 98.5267 391.905 98.1149 391.4 98.1149Z" fill="#161616"/>
<path d="M327.089 85.5275C325.864 85.5275 324.867 84.5276 324.867 83.2984C324.867 82.0693 325.864 81.0693 327.089 81.0693C328.314 81.0693 329.311 82.0693 329.311 83.2984C329.311 84.5276 328.314 85.5275 327.089 85.5275ZM327.089 82.3806C326.584 82.3806 326.174 82.7923 326.174 83.2984C326.174 83.8046 326.584 84.2163 327.089 84.2163C327.593 84.2163 328.004 83.8046 328.004 83.2984C328.004 82.7923 327.593 82.3806 327.089 82.3806Z" fill="#161616"/>
<path d="M327.089 99.1642C325.864 99.1642 324.867 98.1643 324.867 96.9351C324.867 95.706 325.864 94.7061 327.089 94.7061C328.314 94.7061 329.311 95.706 329.311 96.9351C329.311 98.1643 328.314 99.1642 327.089 99.1642ZM327.089 96.0173C326.584 96.0173 326.174 96.429 326.174 96.9351C326.174 97.4413 326.584 97.853 327.089 97.853C327.593 97.853 328.004 97.4413 328.004 96.9351C328.004 96.429 327.593 96.0173 327.089 96.0173Z" fill="#161616"/>
<path d="M329.409 70.3557L302.655 63.6186C302.655 63.6186 300.733 59.8709 303.842 58.5864L328.119 63.7972C328.119 63.797 331.197 66.9216 329.409 70.3557Z" fill="white"/>
<path d="M329.409 71.0115C329.356 71.0115 329.303 71.0052 329.25 70.9918L302.496 64.2548C302.313 64.2089 302.159 64.0864 302.073 63.9188C302.028 63.8302 300.97 61.7301 301.634 59.9201C301.958 59.0364 302.617 58.3839 303.593 57.9806C303.715 57.9302 303.85 57.9179 303.979 57.9457L328.256 63.1565C328.38 63.1832 328.494 63.2459 328.584 63.3369C328.619 63.3723 329.442 64.2165 330.03 65.5188C330.83 67.2929 330.815 69.0706 329.988 70.6598C329.873 70.8796 329.648 71.0115 329.409 71.0115ZM303.122 63.0602L329.039 69.5867C329.962 67.1625 328.261 64.9544 327.777 64.394L303.914 59.2721C303.382 59.5302 303.037 59.8915 302.861 60.3725C302.508 61.3334 302.91 62.54 303.122 63.0602Z" fill="#161616"/>
<path d="M337.284 62.5413C337.284 62.5413 342.6 40.1593 348.308 39.3295C354.016 38.4998 360.652 46.6294 360.652 46.6294L370.724 23.2321C370.724 23.2321 375.902 15.9472 385.481 18.5694C395.06 21.1916 403.501 43.7502 403.501 43.7502C403.501 43.7502 414.266 44.7682 416.035 50.6816C417.804 56.5949 419.886 67.418 419.886 67.418L400.962 75.7207L337.284 62.5413Z" fill="#8DC73F" fill-opacity="0.7"/>
<path d="M378.585 49.7557C378.298 49.7557 378.035 49.5645 377.955 49.2737L376.522 44.0498C376.49 43.9336 376.491 43.8103 376.524 43.6944C376.536 43.6527 376.548 43.611 376.56 43.5688C376.557 43.5746 376.554 43.5803 376.551 43.5861C376.38 43.9047 375.982 44.0235 375.666 43.8518C375.023 43.504 371.794 41.6896 371.367 40.1324C371.264 39.7552 371.308 39.3915 371.494 39.0802C371.705 38.727 372.045 38.5072 372.45 38.4616C373.269 38.3701 374.321 39.0459 375.164 39.7374C375.141 38.6955 375.267 37.4737 375.872 36.8011C376.215 36.42 376.673 36.2357 377.196 36.2721C377.625 36.3007 377.986 36.5079 378.24 36.8716C379.266 38.3383 378.176 42.6373 377.831 43.8783L379.215 48.9257C379.311 49.2747 379.107 49.6356 378.759 49.7316C378.701 49.7481 378.642 49.7557 378.585 49.7557ZM372.62 39.7607C372.632 40.1035 373.87 41.3898 376.286 42.6979C376.52 42.8243 376.646 43.0732 376.628 43.3226C377.252 41.0085 377.626 38.2767 377.17 37.6248C377.141 37.5828 377.133 37.5823 377.109 37.5804C376.967 37.5726 376.904 37.6114 376.843 37.679C376.364 38.2104 376.427 40.1384 376.62 41.2742C376.668 41.5579 376.526 41.8401 376.27 41.9696C376.013 42.0989 375.703 42.0462 375.504 41.8385C374.44 40.7279 373.1 39.7592 372.647 39.7592C372.638 39.7594 372.629 39.7597 372.62 39.7607Z" fill="#161616"/>
<path d="M352.965 58.4098C352.678 58.4098 352.415 58.2187 352.335 57.9278L350.902 52.7039C350.87 52.5877 350.871 52.4645 350.904 52.3486C350.916 52.3069 350.928 52.2652 350.94 52.2229C350.937 52.2287 350.934 52.2345 350.931 52.2403C350.76 52.5586 350.362 52.6777 350.046 52.5059C349.403 52.1582 346.174 50.3437 345.747 48.7865C345.644 48.4094 345.688 48.0456 345.874 47.7344C346.085 47.3811 346.425 47.1614 346.83 47.1157C347.651 47.0237 348.701 47.6997 349.544 48.3915C349.521 47.3496 349.647 46.1278 350.252 45.4552C350.595 45.0739 351.053 44.8906 351.576 44.9262C352.005 44.9548 352.366 45.162 352.62 45.5257C353.646 46.9925 352.556 51.2915 352.211 52.5324L353.596 57.5798C353.691 57.9289 353.487 58.2897 353.139 58.3857C353.081 58.4022 353.022 58.4098 352.965 58.4098ZM347 48.4149C347.012 48.7576 348.25 50.044 350.666 51.352C350.9 51.4784 351.026 51.7273 351.008 51.9767C351.632 49.6626 352.006 46.9308 351.55 46.2789C351.521 46.2369 351.513 46.2364 351.489 46.2346C351.347 46.2265 351.284 46.2655 351.223 46.3332C350.744 46.8645 350.807 48.7925 351 49.9283C351.048 50.212 350.906 50.4942 350.65 50.6238C350.394 50.7533 350.083 50.7004 349.884 50.4927C348.797 49.3582 347.417 48.3653 347 48.4149Z" fill="#161616"/>
<path d="M375.067 58.5216C374.931 58.5216 374.793 58.4788 374.675 58.3899L370.359 55.1329C370.263 55.0602 370.188 54.9624 370.144 54.8499C370.128 54.8098 370.112 54.7694 370.096 54.729C370.097 54.7353 370.098 54.7416 370.099 54.7479C370.158 55.1053 369.916 55.4423 369.56 55.5011C368.839 55.6201 365.177 56.1624 363.892 55.1908C363.58 54.9556 363.394 54.6406 363.351 54.28C363.304 53.8712 363.439 53.4891 363.732 53.2043C364.321 52.6308 365.568 52.5196 366.657 52.5511C366.004 51.7405 365.36 50.6959 365.429 49.7925C365.468 49.2811 365.719 48.8558 366.155 48.5626C366.512 48.3224 366.925 48.2649 367.347 48.3968C369.052 48.9292 370.808 53.0008 371.291 54.1946L375.461 57.3415C375.749 57.5591 375.807 57.9701 375.59 58.2596C375.462 58.4314 375.266 58.5216 375.067 58.5216ZM369.455 54.1985C369.678 54.1985 369.881 54.3123 370 54.4922C369.084 52.2775 367.717 49.8856 366.959 49.6491C366.91 49.6331 366.903 49.6383 366.883 49.6517C366.767 49.7298 366.74 49.8019 366.733 49.8932C366.678 50.6094 367.902 52.0958 368.746 52.8749C368.957 53.0698 369.017 53.3803 368.893 53.6402C368.769 53.8998 368.492 54.0487 368.207 54.006C366.656 53.7742 364.967 53.8363 364.658 54.1287C364.957 54.5158 367.22 54.5578 369.348 54.2074C369.384 54.2014 369.42 54.1985 369.455 54.1985Z" fill="#161616"/>
<path d="M387.318 33.8281C386.969 33.8281 386.68 33.5515 386.666 33.1987L386.451 27.7849C386.446 27.6643 386.475 27.5445 386.533 27.4393C386.554 27.4015 386.575 27.364 386.596 27.326C386.592 27.3307 386.588 27.3352 386.584 27.3397C386.345 27.6108 385.932 27.637 385.661 27.3974C385.113 26.9122 382.378 24.4104 382.315 22.7968C382.3 22.4063 382.425 22.0617 382.677 21.801C382.962 21.5055 383.34 21.3691 383.748 21.4161C384.564 21.5118 385.438 22.4102 386.103 23.2762C386.316 22.2563 386.715 21.0948 387.456 20.5771C387.876 20.2842 388.364 20.2103 388.865 20.3634C389.277 20.489 389.582 20.773 389.747 21.1848C390.414 22.8469 388.381 26.7861 387.764 27.9161L387.972 33.1465C387.986 33.5084 387.706 33.8134 387.345 33.8279C387.336 33.8279 387.327 33.8281 387.318 33.8281ZM383.62 22.7194C383.51 23.1962 384.909 24.981 386.527 26.4142C386.725 26.5904 386.792 26.8605 386.718 27.0992C387.849 24.9873 388.831 22.4126 388.534 21.6741C388.515 21.6267 388.507 21.6246 388.484 21.6172C388.35 21.5766 388.277 21.6004 388.203 21.6529C387.615 22.0633 387.241 23.9543 387.173 25.103C387.156 25.3904 386.954 25.633 386.676 25.7012C386.396 25.7688 386.106 25.6466 385.959 25.3996C385.157 24.048 384.042 22.775 383.62 22.7194Z" fill="#161616"/>
<path d="M394.515 55.0213C394.511 55.0213 394.507 55.0213 394.503 55.0213C394.142 55.0213 393.855 54.6568 393.861 54.2949L393.956 48.8481C393.958 48.7272 393.994 48.5947 394.058 48.493C394.082 48.4565 394.105 48.4122 394.128 48.3752C394.124 48.3802 394.119 48.381 394.115 48.3857C393.86 48.6427 393.447 48.6424 393.19 48.3881C392.671 47.8722 390.084 45.2165 390.113 43.6021C390.12 43.2111 390.265 42.8741 390.531 42.6281C390.833 42.3496 391.22 42.235 391.623 42.305C392.432 42.4477 393.253 43.3944 393.867 44.2976C394.138 43.2916 394.603 42.1548 395.373 41.6806C395.808 41.4121 396.299 41.3665 396.791 41.5482C397.195 41.6972 397.483 41.9985 397.625 42.4189C398.196 44.1169 395.941 47.9323 395.26 49.0248L395.168 54.318C395.162 54.6762 394.87 55.0213 394.515 55.0213ZM391.42 43.599C391.283 44.0684 392.577 45.9308 394.11 47.4545C394.299 47.6422 394.35 47.9166 394.262 48.1507C395.512 46.1073 396.64 43.5924 396.386 42.8382C396.37 42.7894 396.362 42.7868 396.34 42.7781C396.207 42.7293 396.134 42.7501 396.056 42.7975C395.446 43.1736 394.964 45.04 394.831 46.1826C394.798 46.4687 394.583 46.6995 394.3 46.7514C394.018 46.8031 393.735 46.6641 393.602 46.4086C392.879 45.0132 391.838 43.6782 391.42 43.599Z" fill="#161616"/>
<path d="M380.812 50.9566C380.451 50.9566 380.159 50.6632 380.159 50.301V47.6786C380.159 47.3164 380.451 47.0229 380.812 47.0229C381.173 47.0229 381.466 47.3164 381.466 47.6786V50.301C381.466 50.6632 381.173 50.9566 380.812 50.9566Z" fill="#161616"/>
<path d="M397.07 56.9882C397 56.9882 396.928 56.9767 396.858 56.9523C396.517 56.8345 396.335 56.4616 396.452 56.1191L397.449 53.2119C397.566 52.8691 397.937 52.6871 398.279 52.8049C398.621 52.9226 398.802 53.2955 398.685 53.638L397.689 56.5453C397.595 56.8175 397.342 56.9882 397.07 56.9882Z" fill="#161616"/>
<path d="M391.4 68.1339C391.15 68.1339 390.911 67.9881 390.803 67.7432L389.365 64.4819C389.219 64.1507 389.368 63.7639 389.698 63.6173C390.027 63.4707 390.414 63.6204 390.56 63.9517L391.998 67.2129C392.144 67.5442 391.995 67.931 391.664 68.0776C391.579 68.1158 391.489 68.1339 391.4 68.1339Z" fill="#161616"/>
<path d="M393.622 67.4779C393.349 67.4779 393.094 67.304 393.002 67.0295L392.218 64.6693C392.104 64.3255 392.289 63.9541 392.631 63.8398C392.975 63.7257 393.344 63.9111 393.458 64.2544L394.242 66.6146C394.357 66.9584 394.172 67.3298 393.829 67.4441C393.76 67.4669 393.691 67.4779 393.622 67.4779Z" fill="#161616"/>
<path d="M350.618 59.2419C350.364 59.2419 350.122 59.093 350.016 58.8438L349.055 56.5901C348.913 56.2571 349.067 55.8721 349.399 55.7294C349.731 55.5878 350.115 55.7415 350.257 56.0743L351.218 58.328C351.36 58.6611 351.206 59.046 350.874 59.1887C350.791 59.2246 350.703 59.2419 350.618 59.2419Z" fill="#161616"/>
<path d="M373.361 60.4559C373.244 60.4559 373.125 60.4244 373.018 60.358L371.057 59.1441C370.75 58.954 370.655 58.5501 370.845 58.242C371.034 57.9339 371.438 57.8381 371.744 58.0288L373.705 59.2427C374.012 59.4328 374.107 59.8367 373.917 60.1448C373.794 60.3454 373.58 60.4559 373.361 60.4559Z" fill="#161616"/>
<path d="M407.478 54.628C407.117 54.628 406.824 54.3346 406.824 53.9724V51.0877C406.824 50.7256 407.117 50.4321 407.478 50.4321C407.839 50.4321 408.132 50.7256 408.132 51.0877V53.9724C408.132 54.3346 407.839 54.628 407.478 54.628Z" fill="#161616"/>
<path d="M409.439 54.6281C409.401 54.6281 409.361 54.6247 409.322 54.6176C408.967 54.5528 408.731 54.2114 408.796 53.8553L409.318 50.9706C409.383 50.6144 409.723 50.3784 410.078 50.4427C410.433 50.5074 410.669 50.8489 410.605 51.205L410.082 54.0897C410.024 54.4062 409.749 54.6281 409.439 54.6281Z" fill="#161616"/>
<path d="M389.179 33.9107C389.159 33.9107 389.139 33.9099 389.119 33.9078C388.76 33.875 388.495 33.5562 388.527 33.1956L388.789 30.3109C388.821 29.9503 389.142 29.6825 389.499 29.7174C389.858 29.7502 390.123 30.0691 390.09 30.4297L389.829 33.3144C389.798 33.6548 389.513 33.9107 389.179 33.9107Z" fill="#161616"/>
</g>
<path d="M435.937 80.8511C436.072 81.6677 435.522 82.4398 434.708 82.5751C433.894 82.7107 433.124 82.1581 432.989 81.3418L421.452 11.598C421.316 10.7814 421.867 10.0093 422.681 9.87398C423.495 9.7384 424.265 10.2907 424.4 11.1073L435.937 80.8511Z" fill="#DEE5DC"/>
<path d="M434.461 83.251C433.408 83.251 432.517 82.4929 432.344 81.4489L420.807 11.7051C420.713 11.1376 420.845 10.5669 421.179 10.0988C421.512 9.63072 422.008 9.32101 422.574 9.22713C422.691 9.20772 422.809 9.19775 422.927 9.19775C423.981 9.19775 424.872 9.95591 425.044 10.9999L436.582 80.7437C436.776 81.9156 435.983 83.0273 434.815 83.2216C434.698 83.241 434.579 83.251 434.461 83.251ZM422.927 10.5087C422.881 10.5087 422.834 10.5126 422.788 10.5203C422.566 10.5572 422.373 10.6787 422.242 10.8617C422.111 11.0447 422.06 11.2682 422.096 11.49L433.634 81.2341C433.709 81.6888 434.143 82.0053 434.601 81.928C435.058 81.8517 435.368 81.4166 435.292 80.9579L423.755 11.2142C423.687 10.8056 423.339 10.5087 422.927 10.5087Z" fill="#161616"/>
<path d="M422.685 23.2459L426.903 22.4122C426.903 22.4122 427.061 2.53978 421.388 2.00952C415.715 1.47953 422.685 23.2459 422.685 23.2459Z" fill="#1E6594"/>
<path d="M434.917 75.4497C434.917 75.4497 437.264 82.9538 442.118 83.1143C446.56 83.2612 449.119 104.072 449.119 104.072C449.119 104.072 447.561 106.864 447.031 104.42C446.5 101.976 443.466 89.5409 441.818 89.495C440.17 89.4491 443.206 104.953 443.206 104.953C443.206 104.953 442.334 108.834 441 106.117C439.667 103.401 437.978 90.1341 436.115 90.3177C434.252 90.5012 437.069 106.872 437.069 106.872C437.069 106.872 436.159 109.66 435.097 107.822C434.036 105.984 432.218 90.4184 429.85 91.3604C428.087 92.0616 430.324 107.2 430.324 107.2C430.324 107.2 429.664 112.363 428.235 107.541C427.572 105.302 423.801 91.7451 425.923 86.6963C427.009 84.1096 432.536 84.7091 432.092 75.9199L434.917 75.4497Z" fill="white"/>
<path d="M429.37 110.255C428.53 110.255 428.058 109.245 427.609 107.728C427.134 106.124 423.03 91.8933 425.321 86.442C425.74 85.4431 426.634 84.8704 427.581 84.2635C429.523 83.0187 431.725 81.6073 431.44 75.9535C431.423 75.6205 431.658 75.3281 431.986 75.2735L434.811 74.8031C435.132 74.7488 435.444 74.9415 435.541 75.2531C435.564 75.3239 437.809 82.3161 442.139 82.459C445.079 82.5563 446.847 88.8077 447.922 93.5017C449.11 98.6957 449.761 103.94 449.768 103.992C449.784 104.13 449.757 104.309 449.689 104.43C449.406 104.937 448.649 106.155 447.728 106.155C447.728 106.155 447.728 106.155 447.728 106.155C447.269 106.155 446.665 105.853 446.392 104.598C444.843 97.4595 442.915 91.9489 442 90.5013C441.785 92.4626 442.721 99.083 443.847 104.836C443.865 104.926 443.907 105.013 443.887 105.102C443.708 105.896 443.069 107.74 442.023 107.741V107.739C440.978 107.74 440.619 106.737 440.457 106.408C439.909 105.291 439.336 102.749 438.698 99.8058C438.113 97.1107 437.053 92.2772 436.267 91.1556C435.799 92.8725 436.608 100.307 437.719 106.761C437.737 106.866 437.727 106.974 437.693 107.076C437.538 107.552 436.944 109.104 435.849 109.104C435.342 109.104 434.898 108.783 434.533 108.15C434.136 107.463 433.753 105.635 433.112 102.463C432.648 100.169 432.122 97.568 431.545 95.4895C430.81 92.8487 430.295 92.1854 430.103 92.0215C429.586 93.0556 429.761 98.9175 430.971 107.104C430.98 107.164 430.98 107.224 430.973 107.284C430.721 109.256 430.181 110.255 429.37 110.255ZM432.766 76.4725C432.897 82.4116 430.241 84.1149 428.284 85.3687C427.447 85.9049 426.787 86.3285 426.525 86.951C425.691 88.9352 425.744 92.776 426.678 98.0582C427.499 102.703 428.724 106.892 428.862 107.355C429.054 108.006 429.216 108.404 429.333 108.645C429.461 108.285 429.591 107.733 429.665 107.204C429.577 106.599 429.083 103.115 428.775 99.6009C428.11 92.0055 428.857 91.0505 429.609 90.7512C429.755 90.6933 429.905 90.6642 430.057 90.6642C431.782 90.6642 432.748 94.0657 434.393 102.203C434.866 104.541 435.354 106.958 435.663 107.493C435.747 107.639 435.813 107.719 435.856 107.761C436.012 107.623 436.245 107.215 436.396 106.815C435.765 103.121 433.981 91.8673 435.334 90.0841C435.571 89.7731 435.854 89.6849 436.051 89.6653C436.085 89.6619 436.119 89.6603 436.153 89.6603C437.572 89.6603 438.346 92.1238 439.953 99.5265C440.521 102.146 441.109 104.855 441.586 105.828C441.742 106.145 441.862 106.302 441.933 106.377C442.123 106.16 442.385 105.54 442.537 104.938C442.404 104.246 441.81 101.118 441.333 97.8927C440.205 90.2753 440.808 89.5407 441.097 89.188C441.281 88.9632 441.535 88.8395 441.811 88.8395C442.575 88.8602 443.526 89.4222 445.469 95.8684C446.561 99.4903 447.445 103.249 447.669 104.28C447.715 104.494 447.764 104.627 447.801 104.707C447.975 104.571 448.236 104.256 448.442 103.931C448.305 102.886 447.682 98.3141 446.645 93.7865C444.532 84.5615 442.629 83.7871 442.096 83.7697C437.589 83.6208 435.149 77.993 434.481 76.1872L432.766 76.4725Z" fill="#161616"/>
<path d="M10.6332 90.8792L62.7827 76.7129C62.7827 76.7129 71.7682 78.3247 69.6952 94.0372L17.508 112.712" fill="#161616"/>
<path d="M17.508 113.153C17.3271 113.153 17.1575 113.041 17.0934 112.86C17.0117 112.63 17.1311 112.378 17.3602 112.296L69.2931 93.712C69.8379 89.3456 69.7971 83.4805 66.6797 79.7673C65.0347 77.808 63.2125 77.2692 62.794 77.1675L10.7482 91.3055C10.5134 91.3698 10.2718 91.23 10.2082 90.9945C10.1446 90.759 10.2834 90.5165 10.5182 90.4528L62.6677 76.2865C62.7302 76.2693 62.7961 76.2663 62.8602 76.278C62.9583 76.2957 65.2871 76.7374 67.3533 79.1982C70.7417 83.2342 70.7345 89.5267 70.1319 94.0951C70.1102 94.2592 69.9987 94.3976 69.8432 94.4531L17.656 113.128C17.6072 113.145 17.5572 113.153 17.508 113.153Z" fill="#161616"/>
<path d="M12.197 114.01C18.5645 114.01 23.7264 108.832 23.7264 102.445C23.7264 96.0574 18.5645 90.8794 12.197 90.8794C5.82948 90.8794 0.667603 96.0574 0.667603 102.445C0.667603 108.832 5.82948 114.01 12.197 114.01Z" fill="#DEE5DC"/>
<path d="M12.197 114.452C5.59681 114.452 0.227295 109.065 0.227295 102.445C0.227295 95.8238 5.59681 90.4375 12.197 90.4375C18.7973 90.4375 24.1668 95.8238 24.1668 102.445C24.1668 109.065 18.7973 114.452 12.197 114.452ZM12.197 91.321C6.08261 91.321 1.10801 96.3109 1.10801 102.445C1.10801 108.578 6.08261 113.568 12.197 113.568C18.3115 113.568 23.2861 108.578 23.2861 102.445C23.2861 96.3109 18.3115 91.321 12.197 91.321Z" fill="#161616"/>
<path d="M12.1969 105.736C14.0091 105.736 15.4781 104.262 15.4781 102.444C15.4781 100.626 14.0091 99.1528 12.1969 99.1528C10.3848 99.1528 8.91577 100.626 8.91577 102.444C8.91577 104.262 10.3848 105.736 12.1969 105.736Z" fill="#EAEFE8"/>
<path d="M12.1971 106.177C10.1451 106.177 8.47559 104.503 8.47559 102.444C8.47559 100.386 10.1451 98.7109 12.1971 98.7109C14.2492 98.7109 15.9187 100.386 15.9187 102.444C15.9187 104.503 14.2492 106.177 12.1971 106.177ZM12.1971 99.5944C10.6307 99.5944 9.3563 100.873 9.3563 102.444C9.3563 104.015 10.6307 105.294 12.1971 105.294C13.7636 105.294 15.0379 104.015 15.0379 102.444C15.0379 100.873 13.7636 99.5944 12.1971 99.5944Z" fill="#161616"/>
<path d="M33.0548 98.1194L85.2043 83.9531C85.2043 83.9531 94.1899 85.5649 92.1168 101.277L39.9298 119.952" fill="#161616"/>
<path d="M39.9298 120.394C39.7489 120.394 39.5793 120.281 39.5152 120.101C39.4335 119.871 39.5529 119.618 39.7821 119.536L91.7149 100.953C92.2596 96.5863 92.2189 90.7212 89.1015 87.008C87.4565 85.0487 85.6343 84.51 85.2158 84.4082L33.17 98.5462C32.9354 98.6102 32.6934 98.4708 32.63 98.2352C32.5666 97.9997 32.7052 97.7573 32.94 97.6935L85.0895 83.5272C85.1522 83.51 85.2179 83.507 85.282 83.5187C85.3802 83.5364 87.7089 83.9781 89.7751 86.4389C93.1635 90.4749 93.1563 96.7676 92.5537 101.336C92.5321 101.5 92.4206 101.638 92.265 101.694L40.0778 120.368C40.0288 120.386 39.979 120.394 39.9298 120.394Z" fill="#161616"/>
<path d="M34.6189 121.25C40.9864 121.25 46.1482 116.072 46.1482 109.685C46.1482 103.297 40.9864 98.1191 34.6189 98.1191C28.2514 98.1191 23.0895 103.297 23.0895 109.685C23.0895 116.072 28.2514 121.25 34.6189 121.25Z" fill="#DEE5DC"/>
<path d="M34.6187 121.692C28.0184 121.692 22.6489 116.306 22.6489 109.685C22.6489 103.064 28.0184 97.6777 34.6187 97.6777C41.2189 97.6777 46.5884 103.064 46.5884 109.685C46.5884 116.306 41.2189 121.692 34.6187 121.692ZM34.6187 98.561C28.5042 98.561 23.5296 103.551 23.5296 109.685C23.5296 115.818 28.5042 120.808 34.6187 120.808C40.7331 120.808 45.7077 115.818 45.7077 109.685C45.7077 103.551 40.7331 98.561 34.6187 98.561Z" fill="#161616"/>
<path d="M34.6187 112.976C36.4308 112.976 37.8999 111.503 37.8999 109.685C37.8999 107.867 36.4308 106.394 34.6187 106.394C32.8066 106.394 31.3375 107.867 31.3375 109.685C31.3375 111.503 32.8066 112.976 34.6187 112.976Z" fill="#EAEFE8"/>
<path d="M34.6186 113.418C32.5666 113.418 30.8971 111.743 30.8971 109.685C30.8971 107.626 32.5666 105.952 34.6186 105.952C36.6707 105.952 38.3402 107.626 38.3402 109.685C38.3402 111.743 36.6707 113.418 34.6186 113.418ZM34.6186 106.835C33.0522 106.835 31.7778 108.114 31.7778 109.685C31.7778 111.256 33.0522 112.535 34.6186 112.535C36.1851 112.535 37.4594 111.256 37.4594 109.685C37.4594 108.114 36.1851 106.835 34.6186 106.835Z" fill="#161616"/>
<path d="M55.9375 101.047L108.087 86.8804C108.087 86.8804 117.073 88.4922 115 104.205L62.8125 122.879" fill="#161616"/>
<path d="M62.8125 123.321C62.6316 123.321 62.462 123.209 62.3979 123.028C62.3162 122.798 62.4356 122.545 62.6648 122.463L114.598 103.88C115.364 97.7451 114.476 92.9436 112.025 89.9837C110.38 87.9984 108.521 87.4409 108.097 87.3356L56.0529 101.473C55.8179 101.538 55.5764 101.398 55.5129 101.162C55.4493 100.927 55.5881 100.685 55.8229 100.621L107.972 86.4544C108.035 86.4373 108.101 86.4343 108.165 86.446C108.263 86.4636 110.592 86.9054 112.658 89.3661C116.047 93.4021 116.039 99.6949 115.437 104.263C115.415 104.427 115.303 104.566 115.148 104.621L62.9603 123.295C62.9115 123.313 62.8615 123.321 62.8125 123.321Z" fill="#161616"/>
<path d="M57.5015 124.178C63.8691 124.178 69.0309 119 69.0309 112.612C69.0309 106.225 63.8691 101.047 57.5015 101.047C51.134 101.047 45.9722 106.225 45.9722 112.612C45.9722 119 51.134 124.178 57.5015 124.178Z" fill="#DEE5DC"/>
<path d="M57.5012 124.619C50.901 124.619 45.5315 119.233 45.5315 112.612C45.5315 105.991 50.901 100.605 57.5012 100.605C64.1014 100.605 69.4711 105.991 69.4711 112.612C69.4711 119.233 64.1013 124.619 57.5012 124.619ZM57.5012 101.488C51.3868 101.488 46.4122 106.478 46.4122 112.612C46.4122 118.746 51.3868 123.736 57.5012 123.736C63.6158 123.736 68.5904 118.746 68.5904 112.612C68.5904 106.478 63.6158 101.488 57.5012 101.488Z" fill="#161616"/>
<path d="M57.5014 115.904C59.3135 115.904 60.7826 114.43 60.7826 112.612C60.7826 110.794 59.3135 109.321 57.5014 109.321C55.6892 109.321 54.2202 110.794 54.2202 112.612C54.2202 114.43 55.6892 115.904 57.5014 115.904Z" fill="#EAEFE8"/>
<path d="M57.5012 116.345C55.4491 116.345 53.7797 114.671 53.7797 112.612C53.7797 110.554 55.4491 108.879 57.5012 108.879C59.5532 108.879 61.2227 110.554 61.2227 112.612C61.2227 114.671 59.5532 116.345 57.5012 116.345ZM57.5012 109.762C55.9348 109.762 54.6604 111.041 54.6604 112.612C54.6604 114.183 55.9348 115.462 57.5012 115.462C59.0676 115.462 60.342 114.183 60.342 112.612C60.342 111.041 59.0676 109.762 57.5012 109.762Z" fill="#161616"/>
<path d="M29.0741 72.9081L82.2405 63.2695C82.2405 63.2695 91.0557 65.6468 87.6502 81.1237L34.0616 95.2506" fill="#161616"/>
<path d="M34.0614 95.6923C33.866 95.6923 33.6876 95.5611 33.6356 95.3628C33.5738 95.1268 33.7144 94.8852 33.9497 94.8232L87.2773 80.7652C88.5642 74.7188 88.0889 69.8587 85.8988 66.6989C84.4299 64.5799 82.6252 63.865 82.2118 63.7236L29.1525 73.3426C28.9136 73.3866 28.6841 73.2266 28.6408 72.9863C28.5975 72.7464 28.7565 72.5165 28.9957 72.4732L82.1621 62.8347C82.2264 62.8232 82.2919 62.8257 82.3548 62.8428C82.451 62.8686 84.7336 63.5089 86.5822 66.1379C89.6141 70.4499 89.0702 76.719 88.0801 81.2188C88.0445 81.3805 87.9218 81.5087 87.762 81.5508L34.1736 95.6777C34.1361 95.6876 34.0984 95.6923 34.0614 95.6923Z" fill="#161616"/>
<path d="M29.646 96.1303C36.0135 96.1303 41.1753 90.9523 41.1753 84.5649C41.1753 78.1775 36.0135 72.9995 29.646 72.9995C23.2785 72.9995 18.1166 78.1775 18.1166 84.5649C18.1166 90.9523 23.2785 96.1303 29.646 96.1303Z" fill="#DEE5DC"/>
<path d="M29.6591 96.5731C29.3152 96.5731 28.9663 96.5581 28.6219 96.5284C22.046 95.9618 17.1556 90.1343 17.7201 83.5378C17.9782 80.5231 19.3461 77.7402 21.572 75.7008C23.7849 73.6735 26.6475 72.5571 29.633 72.5571C29.9768 72.5571 30.3257 72.5721 30.6701 72.6018C37.246 73.1685 42.1366 78.996 41.5719 85.5924C41.3138 88.6071 39.9459 91.39 37.7198 93.4294C35.5071 95.4566 32.6443 96.5731 29.6591 96.5731ZM29.633 73.4409C26.8681 73.4409 24.2163 74.4753 22.166 76.3535C20.1039 78.2424 18.8367 80.8208 18.5975 83.6136C18.0744 89.7247 22.6051 95.1234 28.6971 95.6481C29.0165 95.6757 29.3401 95.6897 29.6589 95.6897C32.4238 95.6897 35.0756 94.6553 37.1259 92.7771C39.188 90.8882 40.4552 88.3098 40.6944 85.517C41.2175 79.4059 36.6869 74.0072 30.5947 73.4825C30.2754 73.4549 29.9518 73.4409 29.633 73.4409Z" fill="#161616"/>
<path d="M29.6456 87.8563C31.4577 87.8563 32.9267 86.3827 32.9267 84.5649C32.9267 82.7471 31.4577 81.2734 29.6456 81.2734C27.8334 81.2734 26.3644 82.7471 26.3644 84.5649C26.3644 86.3827 27.8334 87.8563 29.6456 87.8563Z" fill="#EAEFE8"/>
<path d="M29.6497 88.2978C29.5428 88.2978 29.4343 88.2932 29.3274 88.2841C28.337 88.1987 27.439 87.7317 26.7989 86.9689C26.1588 86.2062 25.8528 85.2389 25.9379 84.2454C26.1017 82.3311 27.7287 80.8315 29.642 80.8315C29.7489 80.8315 29.8574 80.8361 29.9643 80.8453C30.9548 80.9307 31.8526 81.3978 32.4929 82.1606C33.1331 82.9232 33.4389 83.8906 33.3538 84.884C33.1899 86.7983 31.5628 88.2978 29.6497 88.2978ZM29.642 81.715C28.1821 81.715 26.9405 82.8598 26.8154 84.321C26.7506 85.0794 26.984 85.8178 27.4726 86.4C27.9614 86.9824 28.647 87.3388 29.4028 87.404C29.4849 87.411 29.568 87.4147 29.6497 87.4147C31.1096 87.4147 32.3511 86.2699 32.4763 84.8087C32.5411 84.0503 32.3077 83.3121 31.8191 82.7297C31.3303 82.1474 30.645 81.791 29.889 81.7258C29.8069 81.7185 29.7237 81.715 29.642 81.715Z" fill="#161616"/>
<path d="M45.3701 57.1703L99.0487 51.0166C99.0487 51.0166 107.691 53.9631 103.291 69.1852L48.9004 79.7904" fill="#161616"/>
<path d="M48.8995 80.2318C48.6931 80.2318 48.5087 80.0854 48.4678 79.8744C48.4215 79.6352 48.5774 79.4032 48.816 79.3565L102.942 68.8029C104.617 62.8533 104.458 57.9727 102.477 54.6769C101.148 52.4664 99.3938 51.6355 98.9907 51.4676L45.42 57.6087C45.1789 57.6387 44.9601 57.4624 44.9325 57.2202C44.9048 56.9777 45.0783 56.7588 45.32 56.7311L98.9986 50.5776C99.063 50.5702 99.1288 50.5771 99.1902 50.5981C99.2846 50.6304 101.521 51.4178 103.195 54.1618C105.941 58.6623 104.993 64.8824 103.713 69.308C103.667 69.4671 103.537 69.587 103.374 69.6187L48.9839 80.2239C48.9557 80.2292 48.9274 80.2318 48.8995 80.2318Z" fill="#161616"/>
<path d="M45.1859 80.4057C51.5534 80.4057 56.7153 75.2277 56.7153 68.8403C56.7153 62.4529 51.5534 57.2749 45.1859 57.2749C38.8184 57.2749 33.6565 62.4529 33.6565 68.8403C33.6565 75.2277 38.8184 80.4057 45.1859 80.4057Z" fill="#DEE5DC"/>
<path d="M45.1997 80.8491C44.5978 80.8491 43.9884 80.8027 43.3888 80.7115C40.2279 80.2302 37.4429 78.5429 35.5469 75.9602C33.6509 73.3775 32.8713 70.2091 33.3513 67.0382C33.7838 64.1816 35.2278 61.5773 37.4174 59.7051C39.5848 57.8521 42.3386 56.8315 45.1713 56.8315C45.7732 56.8315 46.3825 56.8778 46.9821 56.969C53.5074 57.9629 58.0102 64.0969 57.0194 70.6425C56.5871 73.4991 55.1431 76.1032 52.9535 77.9754C50.786 79.8286 48.0324 80.8491 45.1997 80.8491ZM45.1713 57.7152C42.5477 57.7152 39.997 58.6608 37.9886 60.3776C35.9602 62.1118 34.6225 64.5244 34.222 67.1707C33.7774 70.1084 34.4998 73.0438 36.2561 75.4363C38.0124 77.8289 40.5925 79.3921 43.5209 79.8379C44.077 79.9226 44.6417 79.9657 45.1997 79.9657C47.8232 79.9657 50.3741 79.02 52.3822 77.3031C54.4105 75.569 55.7481 73.1565 56.1487 70.5102C57.0666 64.4461 52.8952 58.7635 46.8498 57.8428C46.2939 57.7579 45.7292 57.7152 45.1713 57.7152Z" fill="#161616"/>
<path d="M45.1856 72.132C46.9979 72.132 48.467 70.6583 48.467 68.8404C48.467 67.0225 46.9979 65.5488 45.1856 65.5488C43.3734 65.5488 41.9043 67.0225 41.9043 68.8404C41.9043 70.6583 43.3734 72.132 45.1856 72.132Z" fill="#EAEFE8"/>
<path d="M45.1902 72.5738C45.003 72.5738 44.8134 72.5595 44.6269 72.531C42.5983 72.2221 41.1983 70.3151 41.5062 68.28C41.7803 66.471 43.3604 65.1069 45.1819 65.1069C45.369 65.1069 45.5582 65.1212 45.7442 65.1495C47.773 65.4587 49.173 67.3658 48.8651 69.4009C48.5913 71.2099 47.0113 72.5738 45.1902 72.5738ZM45.1819 65.9906C43.792 65.9906 42.5861 67.032 42.3769 68.4128C42.1419 69.9661 43.2105 71.4217 44.759 71.6576C44.902 71.6794 45.0468 71.6905 45.19 71.6905C46.5798 71.6905 47.7853 70.6492 47.9942 69.2686C48.2292 67.7151 47.1605 66.2593 45.6119 66.0233C45.4696 66.0014 45.3248 65.9906 45.1819 65.9906Z" fill="#161616"/>
<path d="M51.342 78.6071L104.509 68.9688C104.509 68.9688 113.324 71.3458 109.918 86.8228L56.3299 100.95" fill="#161616"/>
<path d="M56.3296 101.392C56.1342 101.392 55.9558 101.261 55.9038 101.062C55.842 100.826 55.9826 100.585 56.2179 100.523L109.545 86.4647C110.46 82.161 110.92 76.3139 108.131 72.3468C106.659 70.2533 104.889 69.5604 104.481 69.4229L51.4203 79.042C51.1814 79.0862 50.9519 78.9261 50.9086 78.6858C50.8653 78.4459 51.0243 78.216 51.2637 78.1727L104.43 68.5343C104.494 68.523 104.56 68.5253 104.623 68.5424C104.719 68.5682 107.002 69.2084 108.85 71.8374C111.882 76.1494 111.338 82.4184 110.348 86.9182C110.313 87.0799 110.19 87.2082 110.03 87.2502L56.4416 101.377C56.4042 101.387 56.3665 101.392 56.3296 101.392Z" fill="#161616"/>
<path d="M51.9138 101.83C58.2813 101.83 63.4432 96.6525 63.4432 90.2651C63.4432 83.8777 58.2813 78.6997 51.9138 78.6997C45.5463 78.6997 40.3844 83.8777 40.3844 90.2651C40.3844 96.6525 45.5463 101.83 51.9138 101.83Z" fill="#DEE5DC"/>
<path d="M51.9271 102.273C51.5831 102.273 51.2342 102.258 50.8896 102.228C47.7041 101.954 44.8159 100.451 42.7568 97.9981C40.6977 95.5443 39.7145 92.4333 39.988 89.2379C40.2461 86.2231 41.614 83.4402 43.8399 81.4009C46.0526 79.3737 48.9154 78.2573 51.9007 78.2573C52.2445 78.2573 52.5934 78.2723 52.9378 78.302C56.1233 78.5766 59.0117 80.0788 61.0706 82.5324C63.1297 84.9859 64.113 88.097 63.8394 91.2924C63.5814 94.3072 62.2134 97.0901 59.9877 99.1294C57.7752 101.157 54.9124 102.273 51.9271 102.273ZM51.9009 79.1408C49.1358 79.1408 46.4841 80.1751 44.4338 82.0532C42.3717 83.9422 41.1046 86.5205 40.8655 89.3133C40.6121 92.2738 41.5231 95.1558 43.4305 97.4289C45.338 99.7021 48.0139 101.094 50.965 101.348C51.2845 101.376 51.6081 101.39 51.9271 101.39C54.692 101.39 57.3438 100.355 59.3939 98.4771C61.4559 96.5882 62.723 94.0098 62.9622 91.217C63.2157 88.2565 62.3047 85.3745 60.3972 83.1013C58.4898 80.8282 55.8138 79.4366 52.8628 79.1823C52.5432 79.1547 52.2197 79.1408 51.9009 79.1408Z" fill="#161616"/>
<path d="M51.9137 93.5565C53.7259 93.5565 55.1949 92.0829 55.1949 90.2651C55.1949 88.4473 53.7259 86.9736 51.9137 86.9736C50.1016 86.9736 48.6326 88.4473 48.6326 90.2651C48.6326 92.0829 50.1016 93.5565 51.9137 93.5565Z" fill="#EAEFE8"/>
<path d="M51.9177 93.998C51.8108 93.998 51.7023 93.9935 51.5954 93.9843C50.6049 93.8989 49.7069 93.4319 49.0668 92.6691C48.4267 91.9064 48.1208 90.9392 48.2059 89.9456C48.3698 88.0312 49.9967 86.5317 51.9099 86.5317C52.0169 86.5317 52.1252 86.5363 52.2323 86.5455C54.2768 86.7219 55.7974 88.5337 55.6218 90.5844C55.458 92.4986 53.8309 93.998 51.9177 93.998ZM51.9099 87.415C50.4501 87.415 49.2085 88.5598 49.0834 90.0211C49.0186 90.7794 49.252 91.5178 49.7406 92.1C50.2294 92.6824 50.9149 93.0388 51.6707 93.104C51.7528 93.1111 51.836 93.1148 51.9177 93.1148C53.3776 93.1148 54.619 91.97 54.7442 90.5089C54.8781 88.9436 53.7175 87.5603 52.1569 87.426C52.0748 87.4187 51.9917 87.415 51.9099 87.415Z" fill="#161616"/>
<path d="M66.0593 103.151C65.9051 103.151 65.7637 103.049 65.7202 102.893C65.6677 102.705 65.7771 102.51 65.9645 102.457L110.606 89.9243C110.794 89.8717 110.988 89.9812 111.04 90.1694C111.093 90.3572 110.983 90.5523 110.796 90.605L66.1544 103.138C66.1227 103.147 66.0906 103.151 66.0593 103.151Z" fill="#AFB7AC"/>
<path d="M68.349 106.332C68.1949 106.332 68.0535 106.229 68.01 106.073C67.9575 105.885 68.0669 105.69 68.2543 105.638L112.896 93.1046C113.084 93.0517 113.278 93.1616 113.33 93.3496C113.382 93.5374 113.273 93.7325 113.086 93.7852L68.4442 106.318C68.4125 106.327 68.3804 106.332 68.349 106.332Z" fill="#AFB7AC"/>
<path d="M70.6389 110.749C70.4871 110.749 70.3469 110.65 70.3014 110.496C70.246 110.309 70.3524 110.112 70.5387 110.057L113.771 97.1701C113.957 97.1143 114.154 97.2212 114.209 97.4083C114.264 97.5954 114.158 97.792 113.972 97.8475L70.7393 110.734C70.706 110.744 70.6722 110.749 70.6389 110.749Z" fill="#AFB7AC"/>
<path d="M70.1104 115.873C69.9628 115.873 69.8253 115.779 69.7763 115.631C69.7148 115.446 69.8149 115.246 69.9995 115.185L113.936 100.531C114.121 100.469 114.321 100.57 114.382 100.755C114.443 100.94 114.343 101.14 114.158 101.202L70.2216 115.855C70.1848 115.867 70.1472 115.873 70.1104 115.873Z" fill="#AFB7AC"/>
<path d="M61.6855 80.4872C61.5201 80.4872 61.3727 80.37 61.3401 80.2011C61.3031 80.0094 61.428 79.8241 61.6189 79.7868L105.408 71.2695C105.599 71.2331 105.784 71.3575 105.821 71.5492C105.858 71.7409 105.733 71.9263 105.542 71.9635L61.7532 80.4808C61.7303 80.4852 61.7077 80.4872 61.6855 80.4872Z" fill="#AFB7AC"/>
<path d="M63.6335 83.7174C63.4683 83.7174 63.3209 83.6003 63.2881 83.4314C63.2511 83.2397 63.3758 83.0543 63.5669 83.017L107.356 74.4996C107.547 74.4628 107.732 74.5876 107.769 74.7793C107.806 74.971 107.681 75.1563 107.49 75.1936L63.7012 83.7111C63.6784 83.7153 63.6559 83.7174 63.6335 83.7174Z" fill="#AFB7AC"/>
<path d="M65.4852 88.1331C65.3221 88.1331 65.1757 88.019 65.1408 87.8526C65.1007 87.6616 65.2226 87.4741 65.413 87.434L107.878 78.4672C108.067 78.4267 108.255 78.5494 108.295 78.7402C108.335 78.9312 108.213 79.1187 108.023 79.1588L65.5581 88.1255C65.5336 88.1307 65.5093 88.1331 65.4852 88.1331Z" fill="#AFB7AC"/>
<path d="M64.579 93.0058C64.4204 93.0058 64.2763 92.8979 64.2371 92.7364C64.1909 92.5468 64.3066 92.3556 64.4956 92.3091L107.774 81.7035C107.963 81.6572 108.153 81.7733 108.2 81.9629C108.246 82.1525 108.13 82.3437 107.941 82.39L64.6628 92.9959C64.6348 93.0026 64.6068 93.0058 64.579 93.0058Z" fill="#AFB7AC"/>
<path d="M57.9847 60.5989C57.8088 60.5989 57.6568 60.4669 57.6355 60.2872C57.6124 60.0934 57.7503 59.9176 57.9437 59.8944L98.8806 55.0027C99.0729 54.9812 99.2489 55.1179 99.2719 55.3119C99.295 55.5058 99.1571 55.6816 98.9637 55.7047L58.0268 60.5964C58.0128 60.598 57.9985 60.5989 57.9847 60.5989Z" fill="#AFB7AC"/>
<path d="M73.191 62.5084C73.0173 62.5084 72.8662 62.3796 72.8424 62.2023C72.8165 62.0089 72.9516 61.8308 73.1445 61.8048L100.454 58.1128C100.646 58.0881 100.824 58.2223 100.85 58.4158C100.876 58.6093 100.741 58.7874 100.548 58.8134L73.2385 62.5054C73.2227 62.5073 73.2067 62.5084 73.191 62.5084Z" fill="#AFB7AC"/>
<path d="M60.9735 67.9039C60.8 67.9039 60.6487 67.7751 60.6249 67.5981C60.5989 67.4046 60.734 67.2265 60.9268 67.2005L100.674 61.8051C100.866 61.7786 101.044 61.9143 101.07 62.1077C101.096 62.3012 100.961 62.4793 100.768 62.5055L61.0212 67.9009C61.0052 67.9029 60.9892 67.9039 60.9735 67.9039Z" fill="#AFB7AC"/>
<path d="M59.8107 72.3343C59.6419 72.3343 59.4926 72.2122 59.4637 72.0395C59.4314 71.847 59.5607 71.6648 59.7527 71.6323L100.359 64.7809C100.55 64.7483 100.733 64.8784 100.765 65.0708C100.798 65.2634 100.668 65.4456 100.476 65.4781L59.8695 72.3295C59.8498 72.3327 59.8302 72.3343 59.8107 72.3343Z" fill="#AFB7AC"/>
<path d="M96.6002 50.1357C96.1443 50.1357 95.6534 50.06 95.1416 49.9107C95.1109 49.9017 95.0811 49.8895 95.0531 49.874L87.194 45.5563C86.9319 45.4226 80.5057 41.9919 80.4485 29.4106C80.4478 29.2432 80.5413 29.0899 80.6903 29.0142C80.8393 28.9388 81.0178 28.9542 81.1518 29.0542L91.3883 36.6942V21.3978C91.3883 21.2145 91.5012 21.0502 91.6719 20.985C91.8428 20.9198 92.0358 20.967 92.1574 21.1039C93.4525 22.5611 97.2734 26.343 99.3721 26.343C99.6964 26.343 99.9536 26.2494 100.158 26.0568C100.286 25.9359 100.473 25.9032 100.635 25.9734C100.796 26.0433 100.9 26.2025 100.9 26.3787V44.0435C100.863 46.1559 99.9164 50.1357 96.6002 50.1357ZM95.4329 49.0755C95.8481 49.1928 96.2405 49.2522 96.6002 49.2522C99.8893 49.2522 100.019 44.0877 100.019 44.0357V27.1339C99.8431 27.1956 99.6029 27.2265 99.3721 27.2265C97.1156 27.2265 93.7685 24.0596 92.269 22.5136V37.5732C92.269 37.7402 92.1751 37.893 92.0265 37.9679C91.8775 38.0427 91.6994 38.0271 91.5659 37.9275L81.345 30.2995C81.4521 33.6878 82.1218 38.1342 84.495 41.6562C86.0362 43.9435 87.5911 44.7676 87.6066 44.7757L95.4329 49.0755Z" fill="#161616"/>
<path d="M93.4141 23.2493C93.1708 23.2493 92.9737 23.0516 92.9737 22.8076V16.2636C92.5809 15.4648 90.7297 11.4753 92.1249 9.92216C93.5069 8.38387 95.5473 7.89267 95.6334 7.87235C95.7818 7.83772 95.9373 7.88242 96.0449 7.99038C96.1525 8.09834 96.1969 8.25454 96.1622 8.40331C96.1508 8.45225 95.9246 9.40003 95.3898 10.2167C95.9237 10.4973 96.5786 11.1486 96.7343 12.6596C96.7593 12.9022 96.5836 13.1194 96.3417 13.1443C96.0992 13.1701 95.8834 12.9932 95.8584 12.7505C95.6704 10.9272 94.6507 10.8876 94.6404 10.8874C94.4644 10.8841 94.3073 10.7763 94.2407 10.6128C94.1741 10.4494 94.2109 10.2621 94.3342 10.1361C94.6342 9.82992 94.8686 9.39438 95.0339 9.00336C94.3871 9.26628 93.4731 9.7414 92.7792 10.5137C91.9767 11.4071 92.9837 14.3283 93.807 15.9597C93.8382 16.0217 93.8546 16.0899 93.8546 16.1594V22.8076C93.8544 23.0516 93.6573 23.2493 93.4141 23.2493Z" fill="#161616"/>
<path d="M98.8744 25.5468C98.6312 25.5468 98.4341 25.3491 98.4341 25.1051V18.4705C98.4341 18.3553 98.479 18.2447 98.5591 18.1622L101.324 15.3174C101.493 15.1427 101.772 15.1393 101.946 15.3095C102.12 15.4798 102.124 15.7595 101.954 15.9341L99.3148 18.6502V25.1051C99.3148 25.3491 99.1177 25.5468 98.8744 25.5468Z" fill="#161616"/>
<path d="M110.382 17.7306C108.003 17.7306 105.071 16.2303 104.812 16.0953L96.0708 12.1725C95.8489 12.0729 95.7494 11.8115 95.8487 11.5889C95.948 11.3663 96.2087 11.2664 96.4305 11.3659L105.184 15.2941C105.193 15.2979 105.201 15.3019 105.209 15.3062C105.249 15.327 109.239 17.4031 111.375 16.7109C111.84 16.5603 112.164 16.2903 112.366 15.885C112.465 15.6857 112.468 15.4526 112.374 15.1726C111.571 12.7749 104.646 8.90814 102.045 7.62076C97.8264 5.36404 91.402 2.78628 90.2898 4.10034C89.9796 4.4668 89.8562 4.86348 89.9118 5.31316C90.1024 6.84897 92.2348 8.38972 92.2563 8.40509C92.4543 8.54662 92.5006 8.82244 92.3595 9.02104C92.2184 9.21982 91.9441 9.26611 91.7458 9.12511C91.6452 9.05338 89.2779 7.34565 89.038 5.42412C88.9506 4.72442 89.1458 4.08674 89.6182 3.52839C90.5306 2.45074 92.9288 2.70006 96.9496 4.29188C99.7812 5.41299 102.421 6.82069 102.447 6.83465C102.83 7.02389 112.125 11.6571 113.209 14.8909C113.379 15.3982 113.36 15.8656 113.153 16.2801C112.844 16.9001 112.337 17.3279 111.645 17.5517C111.258 17.6774 110.83 17.7304 110.382 17.7306Z" fill="#161616"/>
<path d="M112.883 15.446C112.717 15.446 112.557 15.3506 112.483 15.1889C110.079 9.95371 105.795 6.43507 99.7513 4.73052C95.2132 3.45074 91.3326 3.73362 91.2937 3.73645C91.0483 3.755 90.8394 3.57354 90.8206 3.33041C90.8017 3.08728 90.9826 2.87472 91.225 2.85564C91.3884 2.84292 95.2768 2.55668 99.9613 3.87197C104.305 5.09185 110.142 7.9813 113.283 14.8193C113.385 15.0409 113.288 15.3032 113.067 15.4052C113.007 15.4329 112.945 15.446 112.883 15.446Z" fill="#161616"/>
<path d="M110.107 10.9967C110.022 10.9967 109.937 10.9721 109.861 10.9209C109.66 10.7843 109.607 10.5095 109.743 10.3074C109.756 10.2873 111.13 8.19859 110.603 5.90654C110.264 4.43133 109.214 3.17099 107.48 2.16031C104.927 0.671146 102.541 0.473604 100.39 1.57316C98.781 2.39513 97.9176 3.65424 97.909 3.66696C97.7726 3.86892 97.4989 3.9214 97.2974 3.78464C97.0961 3.6477 97.0436 3.37295 97.1801 3.17099C97.2192 3.11339 101.156 -2.54925 107.923 1.39664C109.879 2.53684 111.07 3.99084 111.463 5.71747C112.072 8.38782 110.538 10.7051 110.472 10.8023C110.387 10.9288 110.249 10.9967 110.107 10.9967Z" fill="#161616"/>
<path d="M110.933 9.09863C110.786 9.09863 110.643 9.0253 110.559 8.89137C107.322 3.70669 98.741 2.62657 98.6547 2.61614C98.4132 2.58734 98.2408 2.36772 98.2695 2.12547C98.2982 1.8834 98.5177 1.7106 98.7585 1.73887C98.8506 1.74982 101.047 2.01786 103.696 2.96476C107.235 4.2297 109.866 6.11695 111.306 8.42225C111.435 8.62898 111.372 8.90161 111.166 9.03113C111.093 9.07689 111.012 9.09863 110.933 9.09863Z" fill="#161616"/>
<path d="M100.397 26.8206C100.282 26.8206 100.168 26.7757 100.081 26.6865C99.9119 26.5116 99.9161 26.2319 100.09 26.0619C100.378 25.7818 100.503 25.4846 100.472 25.1533C100.384 24.2098 99.1044 23.1671 98.6188 22.845C98.4161 22.7104 98.3602 22.4365 98.4941 22.233C98.628 22.0296 98.901 21.9736 99.1037 22.1074C99.3183 22.2492 101.204 23.5373 101.349 25.0696C101.405 25.6679 101.182 26.2301 100.704 26.6959C100.618 26.7793 100.508 26.8206 100.397 26.8206Z" fill="#161616"/>
<path d="M73.9582 20.3438C73.3831 20.3438 72.9073 20.0406 72.8448 19.9992C72.6421 19.8644 72.5868 19.5903 72.721 19.387C72.8552 19.1841 73.127 19.1285 73.3297 19.2617C73.4483 19.3384 73.8208 19.5197 74.1217 19.4402C74.2931 19.3949 74.4326 19.2651 74.5481 19.0433C74.6608 18.827 74.9268 18.7436 75.1424 18.8564C75.358 18.9694 75.4413 19.2363 75.3288 19.4525C75.036 20.0144 74.6284 20.2217 74.3381 20.2964C74.209 20.33 74.0813 20.3438 73.9582 20.3438Z" fill="#161616"/>
<path d="M80.4084 19.2652C79.8333 19.2652 79.3574 18.962 79.295 18.9207C79.0923 18.7859 79.037 18.5118 79.1712 18.3084C79.3054 18.1056 79.5772 18.0499 79.7799 18.1832C79.8986 18.2602 80.2712 18.4413 80.5719 18.3616C80.7433 18.3164 80.8827 18.1865 80.9983 17.9648C81.111 17.7485 81.377 17.6649 81.5926 17.7778C81.8082 17.8909 81.8915 18.1577 81.779 18.374C81.4862 18.9359 81.0786 19.1431 80.7883 19.218C80.6591 19.2514 80.5313 19.2652 80.4084 19.2652Z" fill="#161616"/>
<path d="M76.9073 27.8918C75.9066 27.8918 74.8115 27.7709 73.6259 27.5294C71.5349 27.103 69.9635 26.4545 69.8975 26.4272C69.6729 26.3337 69.5663 26.0754 69.6594 25.8499C69.7524 25.6248 70.01 25.5174 70.2346 25.6108C70.2958 25.6363 76.4012 28.1333 80.1703 26.3803C83.1256 25.006 81.0145 18.3504 79.9517 15.9016C79.8546 15.6779 79.9566 15.4176 80.1796 15.3203C80.4024 15.2224 80.6621 15.3251 80.7591 15.5489C80.9291 15.9407 84.874 25.1668 80.5405 27.182C79.5242 27.6552 78.3085 27.8918 76.9073 27.8918Z" fill="#161616"/>
<path d="M68.0694 28.6174C67.8529 28.6174 67.6643 28.4575 67.6336 28.2363L66.9206 23.0703C65.964 23.0624 65.1165 22.7284 64.6005 22.1422C64.2263 21.7172 63.8371 20.947 64.1074 19.6909C64.2716 18.9287 64.713 18.5756 65.0544 18.414C66.2698 17.8385 68.0704 18.7348 68.2718 18.8391C68.4881 18.9509 68.5728 19.2172 68.4615 19.434C68.3502 19.6506 68.0849 19.7354 67.8686 19.6245C67.4275 19.3974 66.1292 18.881 65.4297 19.2131C65.2774 19.2854 65.0639 19.433 64.9684 19.8772C64.8138 20.5959 64.912 21.1614 65.2606 21.5571C65.6668 22.0187 66.4165 22.2487 67.2632 22.1729C67.4964 22.1503 67.7062 22.3189 67.7384 22.5523L68.5062 28.1149C68.5395 28.3564 68.3713 28.5796 68.1303 28.613C68.1097 28.616 68.0895 28.6174 68.0694 28.6174Z" fill="#161616"/>
<path d="M70.0665 21.218H70.8343L70.0665 15.7515L63.1557 10.4399C63.1557 10.4399 59.6235 13.6902 61.4665 18.8565C63.3093 24.0232 67.4594 23.7553 67.4594 23.7553C67.4594 23.7553 68.288 22.6748 67.3021 22.6126C66.2951 22.5495 64.4572 22.232 64.5379 19.8119C64.614 17.5281 68.9915 18.7443 70.0665 21.218Z" fill="#161616"/>
<path d="M63.7699 9.84337L70.8343 15.7254C70.8343 15.7254 78.436 15.6203 80.8932 14.4649L81.7378 16.6218C81.7378 16.6218 85.3468 10.9217 80.8932 7.1474C76.4398 3.37325 68.3772 1.13933 63.7699 9.84337Z" fill="#161616"/>
<path d="M59.0089 66.0115C58.9008 66.0115 58.7956 65.9715 58.7139 65.8977C58.613 65.8063 58.5598 65.6733 58.5698 65.5374L60.6116 37.5515C60.6234 37.1325 60.9583 28.9754 68.0501 28.6591C68.1112 28.6561 68.1697 28.6663 68.2235 28.6861C68.3397 28.6428 68.4723 28.6497 68.5867 28.7119L74.4152 31.8784L78.6844 28.1511C78.8101 28.0412 78.9868 28.012 79.1413 28.0758L80.6313 28.6918C80.6457 28.6978 80.66 28.7045 80.6737 28.7119C80.8789 28.8238 85.7006 31.5183 86.0168 37.5502C86.3214 43.3525 86.0205 60.669 86.0173 60.843C86.0136 61.0542 85.8614 61.2332 85.6541 61.2703L59.0861 66.0046C59.0604 66.0092 59.0346 66.0115 59.0089 66.0115ZM68.1139 29.5399C68.1058 29.5408 68.0975 29.5413 68.0892 29.5417C65.4147 29.6611 63.4949 31.0278 62.3835 33.604C61.5308 35.5803 61.492 37.56 61.4916 37.5797C61.4916 37.5884 61.4913 37.5972 61.4906 37.6057L59.4894 65.0354L85.143 60.464C85.1845 57.931 85.4158 42.9012 85.1373 37.5967C84.8567 32.2475 80.5853 29.6798 80.2707 29.4984L79.0573 28.9967L79.0233 29.0264C79.1193 29.1275 79.1663 29.2726 79.1363 29.4197L77.8693 35.6591C77.8378 35.8148 77.7254 35.9413 77.575 35.9907C77.4246 36.0402 77.2594 36.0049 77.1421 35.8982L74.5598 33.549L72.624 36.5065C72.5391 36.6364 72.3901 36.7097 72.2376 36.7055C72.0827 36.6989 71.9429 36.6115 71.8689 36.4749L68.1139 29.5399ZM69.4723 30.1977L72.2915 35.4045L74.0661 32.6933L69.4723 30.1977ZM74.8779 32.6458L77.1606 34.7224L78.1651 29.7758L74.8779 32.6458Z" fill="#161616"/>
<path d="M69.8991 62.7405H66.3762V29.3457H68.544L69.8991 31.9367V62.7405Z" fill="#1E6594"/>
<path d="M75.2858 52.701C75.051 52.701 74.8562 52.5153 74.8461 52.2777L74.034 32.8926C74.0237 32.6489 74.2126 32.4431 74.4555 32.4327C74.6959 32.4297 74.9037 32.6118 74.914 32.8557L75.7262 52.2407C75.7364 52.4844 75.5476 52.6902 75.3047 52.7007C75.2983 52.7008 75.2921 52.701 75.2858 52.701Z" fill="#161616"/>
<path d="M82.405 62.7407H78.7061V29.4087L79.5079 28.4844L82.405 30.6411V62.7407Z" fill="#1E6594"/>
<path d="M58.9781 65.6104V75.008C58.9781 75.008 60.153 81.324 65.9657 79.7834C71.7786 78.2428 78.7161 75.3159 78.7161 75.3159C78.7161 75.3159 82.8186 73.4672 84.5078 69.462C86.1972 65.4565 85.6029 60.835 85.6029 60.835L58.9781 65.6104Z" fill="#1E6594"/>
<path d="M61.5418 34.6455L55.093 57.7538C55.093 57.7538 54.4786 61.7593 57.4734 62.6834C60.468 63.6077 61.543 62.9913 62.0038 62.6834C62.4646 62.3754 81.5077 51.0007 81.5077 51.0007L77.4379 43.196L64.0002 49.8202" fill="#DEE5DC"/>
<path d="M60.1865 63.6138C59.4696 63.6138 58.5475 63.4776 57.3437 63.106C54.6873 62.2862 54.4252 59.2029 54.6578 57.687C54.6604 57.6694 54.6641 57.6522 54.6689 57.6351L61.1176 34.5268C61.1833 34.2918 61.4267 34.1548 61.6603 34.2206C61.8946 34.2863 62.0312 34.5301 61.9655 34.765L55.5246 57.8457C55.4772 58.1901 55.0941 61.4875 57.6027 62.2616C60.5023 63.1566 61.4484 62.524 61.7595 62.3164C62.1942 62.0255 78.2259 52.4474 80.9241 50.8355L77.2466 43.7828L64.1943 50.217C63.9759 50.3241 63.712 50.2342 63.6049 50.0153C63.4976 49.7963 63.5876 49.5316 63.8059 49.4239L77.2436 42.7997C77.4583 42.694 77.7172 42.7792 77.828 42.9914L81.8978 50.7962C82.0061 51.0042 81.9337 51.2606 81.7327 51.3807C75.1537 55.3104 62.6144 62.8071 62.2479 63.0514C61.8394 63.3246 61.2307 63.6138 60.1865 63.6138Z" fill="#161616"/>
<path d="M79.511 21.748H77.8254C77.5821 21.748 77.385 21.5503 77.385 21.3062C77.385 21.0622 77.5821 20.8645 77.8254 20.8645H78.7744L78.05 19.5128C77.9348 19.298 78.0151 19.0303 78.2293 18.9145C78.4433 18.7992 78.7103 18.8794 78.8257 19.0946L79.8991 21.0972C79.9725 21.234 79.9687 21.3995 79.8892 21.5329C79.8096 21.6663 79.6661 21.748 79.511 21.748Z" fill="#161616"/>
<path d="M79.5074 59.5819L88.9934 47.4426C88.9934 47.4426 93.8363 44.1714 96.3089 46.3592C99.2687 48.9779 99.1387 53.7484 99.1387 53.7484V78.3968C99.1387 78.3968 102.955 82.0943 102.955 85.0212C102.955 85.0212 101.062 86.4077 96.3436 85.0212C91.625 83.6348 87.5133 78.2429 87.5133 78.2429V66.9972L79.5081 74.8577" fill="#1E6594"/>
<path d="M64.3778 65.5687L73.9034 53.4398C73.9034 53.4398 78.8051 50.1744 81.2776 52.3618C84.2377 54.9806 84.1663 59.7566 84.1663 59.7566V84.4051C84.1663 84.4051 87.943 88.1024 87.943 91.0293C87.943 91.0293 85.9822 92.4158 81.2635 91.0293C76.5452 89.6428 72.365 84.2511 72.365 84.2511V65.5674" fill="#1E6594"/>
<path d="M72.4531 70.9563C72.2098 70.9563 72.0127 70.7586 72.0127 70.5146V65.5672C72.0127 65.3232 72.2098 65.1255 72.4531 65.1255C72.6963 65.1255 72.8934 65.3232 72.8934 65.5672V70.5146C72.8934 70.7586 72.6963 70.9563 72.4531 70.9563Z" fill="#161616"/>
<path d="M84.0787 70.9565C83.8354 70.9565 83.6383 70.7587 83.6383 70.5147V59.7565C83.6394 59.7017 83.6963 55.1535 80.9287 52.705C79.8124 51.7172 78.0501 52.0562 76.7686 52.5144C75.493 52.9704 74.4324 53.6295 74.1788 53.7926L62.9725 68.3329C62.8236 68.5257 62.5473 68.5616 62.3547 68.4121C62.1624 68.263 62.127 67.9856 62.2756 67.7924L73.5276 53.1931C73.5567 53.1554 73.5914 53.1229 73.6306 53.0964C73.8411 52.9547 78.8149 49.6569 81.5114 52.0423C84.5891 54.7656 84.519 59.5632 84.519 59.766V70.5147C84.519 70.7587 84.3219 70.9565 84.0787 70.9565Z" fill="#161616"/>
<path d="M84.1664 84.4049V70.5146H72.3649V84.2509C72.3649 84.2509 76.5713 89.6426 81.29 91.0291C86.0087 92.4156 87.9226 91.0291 87.9226 91.0291C87.9228 88.1022 84.1664 84.4049 84.1664 84.4049Z" fill="#FBFCFA"/>
<path d="M85.1566 92.0875C83.9696 92.0875 82.642 91.8742 81.2103 91.4535C79.1871 90.8589 77.0384 89.5099 74.8241 87.444C73.1863 85.9158 72.1482 84.5779 72.1048 84.5217C72.0451 84.4443 72.0127 84.3491 72.0127 84.2513V70.4266C72.0127 70.1826 72.2098 69.9849 72.4531 69.9849H84.2546C84.4978 69.9849 84.6949 70.1826 84.6949 70.4266V84.2239C85.3814 84.9335 88.4293 88.2403 88.4293 91.0296C88.4293 91.1724 88.3606 91.3061 88.2449 91.389C88.2047 91.4176 87.2453 92.0875 85.1566 92.0875ZM72.8932 84.0964C73.5256 84.8788 77.3102 89.3867 81.4578 90.6055C82.809 91.0026 84.0534 91.204 85.1566 91.204C86.4387 91.204 87.2062 90.9299 87.5382 90.7745C87.3302 88.1006 83.98 84.7542 83.9451 84.7196C83.8613 84.6365 83.814 84.5234 83.814 84.4052V70.8683H72.8932V84.0964Z" fill="#161616"/>
<path d="M84.272 84.8471C84.1494 84.8471 84.0275 84.796 83.9405 84.6962C82.9321 83.5403 79.9153 84.176 78.8378 84.5183C78.606 84.5926 78.3585 84.4631 78.2851 84.2306C78.2116 83.9981 78.34 83.7498 78.5718 83.6761C78.6159 83.662 79.666 83.3314 80.9108 83.2019C82.673 83.0185 83.9151 83.3254 84.6031 84.1142C84.7632 84.2977 84.7448 84.5767 84.5617 84.7374C84.4784 84.811 84.375 84.8471 84.272 84.8471Z" fill="#161616"/>
<path d="M87.5134 66.9972V78.243C87.5134 78.243 91.6711 83.6349 96.3896 85.0212C101.108 86.4077 102.959 85.0212 102.959 85.0212C102.959 82.0943 99.1388 78.3969 99.1388 78.3969V64.3306H87.4204L87.5134 66.9972Z" fill="#FBFCFA"/>
<path d="M100.24 86.0791C99.0635 86.0791 97.7414 85.8658 96.3095 85.4451C94.2858 84.8505 92.145 83.5009 89.9467 81.4344C88.3208 79.9058 87.2944 78.5675 87.2516 78.5113C87.1927 78.4341 87.1609 78.3398 87.1609 78.2428V67.0115L86.9807 64.271C86.9727 64.1493 87.0154 64.0293 87.0985 63.9401C87.1817 63.8508 87.2984 63.8003 87.4203 63.8003H99.2268C99.47 63.8003 99.6671 63.998 99.6671 64.242V78.2133C100.366 78.9237 103.465 82.2303 103.465 85.021C103.465 85.1613 103.399 85.2931 103.286 85.3765C103.248 85.4052 102.314 86.0791 100.24 86.0791ZM88.0418 78.0894C88.6658 78.8702 92.4103 83.3787 96.5572 84.5971C97.9085 84.9942 99.1473 85.1956 100.239 85.1956C101.497 85.1956 102.248 84.9238 102.574 84.7684C102.364 82.0961 98.9555 78.7483 98.9199 78.7136C98.8345 78.6304 98.7862 78.5161 98.7862 78.3967V64.6838H87.8904L88.0407 66.968C88.0412 66.9777 88.0416 66.9873 88.0416 66.997V78.0894H88.0418Z" fill="#161616"/>
<path d="M87.6015 64.7726C87.3582 64.7726 87.1611 64.5749 87.1611 64.3309V57.7933C87.1611 57.5493 87.3582 57.3516 87.6015 57.3516C87.8447 57.3516 88.0418 57.5493 88.0418 57.7933V64.3309C88.0418 64.5749 87.8447 64.7726 87.6015 64.7726Z" fill="#161616"/>
<path d="M93.5634 79.3118C93.389 79.3118 93.2238 79.2072 93.1548 79.0351C93.0641 78.8089 93.1729 78.5518 93.3984 78.4605C93.5294 78.4073 96.6424 77.1694 99.4432 77.9721C99.677 78.0393 99.8124 78.2838 99.7457 78.5183C99.6791 78.7531 99.4353 78.8888 99.2012 78.8218C96.6956 78.1032 93.757 79.268 93.7276 79.28C93.6739 79.3016 93.6182 79.3118 93.5634 79.3118Z" fill="#161616"/>
<path d="M61.9727 10.2633H60.5635C60.3203 10.2633 60.1232 10.0656 60.1232 9.82161C60.1232 9.5776 60.3203 9.37988 60.5635 9.37988H61.9727C62.2159 9.37988 62.413 9.5776 62.413 9.82161C62.413 10.0656 62.2159 10.2633 61.9727 10.2633Z" fill="#161616"/>
<path d="M61.9268 8.74483C61.8115 8.74483 61.6961 8.6996 61.6098 8.60966L60.9188 7.89088C60.75 7.71524 60.755 7.43572 60.9301 7.26627C61.1051 7.097 61.384 7.10212 61.5527 7.27758L62.2437 7.99636C62.4125 8.17199 62.4075 8.45152 62.2325 8.62097C62.147 8.70384 62.0369 8.74483 61.9268 8.74483Z" fill="#161616"/>
<path d="M76.7465 29.8502C76.5187 29.8502 76.3257 29.674 76.3079 29.4422L76.1543 27.4394C76.1356 27.1963 76.317 26.9839 76.5596 26.9651C76.8028 26.9432 77.0138 27.1284 77.0325 27.3717L77.1861 29.3745C77.2048 29.6176 77.0234 29.83 76.7808 29.8488C76.7692 29.85 76.7577 29.8502 76.7465 29.8502Z" fill="#161616"/>
<path d="M78.5739 44.7863L85.2702 40.8861C85.2702 40.8861 87.8808 39.7306 89.4168 40.8861C90.9524 42.0415 92.7954 44.7863 92.7954 44.7863C92.7954 44.7863 91.4405 45.066 90.9278 44.7863L90.1846 43.274C90.1846 43.274 91.9013 46.6596 91.2348 47.2775C90.5684 47.8953 88.6486 45.5846 88.6486 45.5846C88.6486 45.5846 90.645 49.029 89.8774 49.6948C89.1096 50.3604 87.4202 47.0274 87.4202 47.0274C87.4202 47.0274 85.8848 49.3718 83.7345 48.5887L81.3541 49.7826" fill="#DEE5DC"/>
<path d="M81.3544 50.224C81.1929 50.224 81.0373 50.1344 80.9602 49.9796C80.8513 49.7614 80.9396 49.4962 81.1571 49.387L83.5375 48.1931C83.6455 48.1388 83.7711 48.1316 83.8847 48.1731C85.6771 48.8249 86.9975 46.8674 87.0528 46.7838C87.1393 46.6529 87.2881 46.5771 87.4454 46.5866C87.6018 46.5956 87.7418 46.6868 87.8128 46.8267C88.4293 48.0424 89.2572 49.1902 89.6065 49.328C89.758 48.9532 89.1416 47.3135 88.2682 45.8062C88.1531 45.6077 88.2088 45.354 88.3962 45.2222C88.5838 45.0907 88.8406 45.125 88.987 45.3012C89.7058 46.1652 90.6311 46.9412 90.9349 46.9418C91.0612 46.6023 90.6246 45.2105 89.9732 43.842L89.7897 43.4687C89.6826 43.2508 89.771 42.987 89.9875 42.8784C90.2038 42.7699 90.4671 42.8565 90.5772 43.0731C90.6558 43.228 90.7387 43.3963 90.8231 43.5737L91.2465 44.4356C91.4207 44.4755 91.71 44.4769 92.0201 44.4506C91.401 43.5961 90.1897 42.0193 89.1524 41.2388C87.9079 40.3022 85.7018 41.1835 85.4677 41.2812L78.7949 45.1676C78.5846 45.2904 78.3149 45.2185 78.193 45.0073C78.0709 44.7965 78.1424 44.526 78.3528 44.4036L85.0491 40.5034C85.0632 40.4953 85.0777 40.4879 85.0925 40.4814C85.2087 40.4301 87.9588 39.2362 89.681 40.5321C91.258 41.7186 93.0835 44.4242 93.1605 44.5389C93.2424 44.661 93.2584 44.8161 93.2029 44.9526C93.1475 45.089 93.0279 45.1886 92.884 45.2183C92.7198 45.252 92.116 45.3671 91.5446 45.3494C91.8504 46.3055 91.9643 47.2018 91.5337 47.6013C91.3609 47.7616 91.1366 47.8372 90.8858 47.8215C90.6348 47.8051 90.3563 47.6847 90.0775 47.51C90.6073 48.841 90.6323 49.6236 90.1656 50.0284C89.9755 50.1931 89.7326 50.2565 89.4816 50.2074C88.7207 50.0574 87.8496 48.715 87.349 47.8266C86.5959 48.6431 85.2852 49.513 83.7695 49.0645L81.5511 50.1772C81.4877 50.2088 81.4204 50.224 81.3544 50.224Z" fill="#161616"/>
<path d="M93.793 39.4009C93.701 39.4009 93.6084 39.3721 93.5291 39.3126L91.6863 37.9263C91.4919 37.78 91.4522 37.5029 91.5982 37.3079C91.7444 37.1128 92.0203 37.0736 92.2147 37.2195L94.0575 38.6058C94.252 38.7521 94.2916 39.0292 94.1456 39.2243C94.0591 39.34 93.927 39.4009 93.793 39.4009Z" fill="#161616"/>
<path d="M96.2504 4.914C96.2504 4.914 93.5116 4.43499 92.8718 5.49602C92.2321 6.55724 101.15 11.23 101.15 11.23C101.15 11.23 109.842 15.6207 110.932 14.5801C111.86 13.6945 109.637 11.6633 109.637 11.6633C109.637 11.6633 98.4802 4.95163 96.2504 4.914Z" fill="#161616"/>
<path d="M73.1984 22.6996C73.0686 23.3913 74.9767 25.4598 77.2539 24.5999C78.4821 24.1362 77.7427 22.9892 76.3138 22.9892C75.515 22.989 73.59 20.6132 73.1984 22.6996Z" fill="#161616"/>
<g clip-path="url(#clip0_1124_5357)">
<path d="M109.819 72.3734C110.27 72.3734 110.687 72.2685 111.069 72.0587C111.45 71.814 111.798 71.5168 112.11 71.1672C112.422 70.7826 112.683 70.3805 112.891 69.9609C113.099 69.5414 113.255 69.1393 113.36 68.7547C114.158 66.1325 114.956 63.3879 115.755 60.5209C116.588 57.619 117.473 54.7171 118.41 51.8152C119.347 48.9132 120.371 46.0812 121.482 43.3192C122.628 40.5571 123.895 38.0048 125.283 35.6623H132.468C134.759 41.1515 137.016 46.5882 139.237 51.9725C141.494 57.3218 143.767 62.7586 146.058 68.2827C146.232 68.7372 146.457 69.2092 146.735 69.6987C147.047 70.1882 147.395 70.6427 147.776 71.0623C148.193 71.4469 148.627 71.779 149.078 72.0587C149.564 72.3035 150.067 72.4258 150.588 72.4258H134.291C134.603 72.4258 134.864 72.3384 135.072 72.1636C135.315 71.9538 135.506 71.7091 135.645 71.4294C135.783 71.1147 135.888 70.8001 135.957 70.4854C136.026 70.1707 136.061 69.8735 136.061 69.5938C136.061 69.2792 135.922 68.7198 135.645 67.9156C135.367 67.0765 135.037 66.1849 134.655 65.2409C134.308 64.2969 133.944 63.4054 133.562 62.5663C133.215 61.6922 132.972 61.0454 132.833 60.6258C132.139 60.5559 131.427 60.5209 130.698 60.5209C129.969 60.5209 129.24 60.5209 128.511 60.5209C126.949 60.5209 125.422 60.5209 123.929 60.5209C122.437 60.5209 120.909 60.6084 119.347 60.7832C119.07 62.0768 118.827 63.4229 118.618 64.8214C118.445 66.2199 118.358 67.5835 118.358 68.9121C118.358 69.2267 118.393 69.5764 118.462 69.9609C118.566 70.3455 118.705 70.7301 118.879 71.1147C119.052 71.4644 119.278 71.7615 119.556 72.0063C119.833 72.251 120.163 72.3734 120.545 72.3734H109.819ZM125.335 59.5769C126.515 59.5769 127.678 59.5595 128.824 59.5245C130.004 59.4546 131.184 59.4196 132.364 59.4196L125.231 40.1725C123.912 43.2492 122.766 46.4134 121.795 49.6649C120.823 52.9165 120.059 56.2205 119.504 59.5769H125.335ZM158.257 74.9432C157.493 75.8172 157.111 76.8487 157.111 78.0374C157.111 78.9464 157.302 79.7156 157.684 80.3449C158.066 80.9743 158.552 81.4812 159.142 81.8658C159.732 82.2504 160.409 82.5301 161.172 82.705C161.936 82.9147 162.7 83.0196 163.463 83.0196C164.123 83.0196 164.921 82.9322 165.859 82.7574C166.796 82.6175 167.698 82.3553 168.566 81.9707C169.469 81.6211 170.232 81.1491 170.857 80.5547C171.482 79.9604 171.794 79.2261 171.794 78.3521C171.794 77.2332 171.291 76.3941 170.284 75.8347C169.278 75.2753 168.011 74.8558 166.483 74.5761C164.956 74.2964 163.307 74.0866 161.537 73.9467C159.801 73.8069 158.17 73.5796 156.643 73.2649C155.115 72.9503 153.848 72.4783 152.842 71.8489C151.835 71.2196 151.332 70.2931 151.332 69.0694C151.332 68.3352 151.661 67.6709 152.321 67.0765C152.98 66.4472 153.761 65.9052 154.664 65.4507C155.566 64.9612 156.486 64.5592 157.424 64.2445C158.361 63.8949 159.107 63.6152 159.662 63.4054C158.621 63.2306 157.545 62.9684 156.434 62.6187C155.358 62.2341 154.369 61.7272 153.466 61.0978C152.599 60.4335 151.87 59.6469 151.28 58.7378C150.724 57.7938 150.446 56.6925 150.446 55.4338C150.446 53.6857 150.95 52.2172 151.956 51.0285C152.963 49.8398 154.195 48.8783 155.653 48.1441C157.146 47.4098 158.725 46.8854 160.391 46.5707C162.092 46.2561 163.62 46.0987 164.973 46.0987C166.154 46.0987 167.351 46.2036 168.566 46.4134C168.948 45.3295 169.521 44.3855 170.284 43.5814C171.048 42.7423 171.916 42.0605 172.888 41.5361C173.894 41.0116 174.953 40.627 176.064 40.3823C177.175 40.1026 178.268 39.9627 179.344 39.9627L180.75 40.0152V45.4169C180.09 45.3121 179.431 45.2246 178.771 45.1547C178.147 45.0848 177.487 45.0498 176.793 45.0498C176.342 45.0498 175.786 45.0673 175.127 45.1023C174.502 45.1372 173.86 45.2247 173.2 45.3645C172.541 45.4694 171.916 45.6267 171.326 45.8365C170.736 46.0463 170.267 46.326 169.92 46.6756C170.857 46.8854 171.777 47.2001 172.679 47.6196C173.617 48.0042 174.467 48.5112 175.231 49.1405C175.994 49.7698 176.602 50.5041 177.053 51.3432C177.539 52.1823 177.782 53.1438 177.782 54.2276C177.782 55.5562 177.504 56.7275 176.949 57.7414C176.394 58.7204 175.665 59.5595 174.762 60.2587C173.86 60.958 172.818 61.5524 171.638 62.0418C170.458 62.4964 169.243 62.846 167.993 63.0907C166.744 63.3355 165.511 63.4928 164.297 63.5627C163.082 63.6327 161.988 63.6327 161.016 63.5627C160.6 63.7375 160.166 64.0172 159.715 64.4018C159.263 64.7864 159.038 65.2409 159.038 65.7654C159.038 66.4647 159.541 66.9716 160.548 67.2863C161.554 67.6009 162.804 67.8457 164.297 68.0205C165.789 68.1953 167.421 68.3876 169.191 68.5974C170.961 68.7722 172.593 69.0869 174.085 69.5414C175.578 69.9609 176.828 70.5903 177.834 71.4294C178.841 72.2335 179.344 73.3698 179.344 74.8383C179.344 76.062 179.032 77.1458 178.407 78.0898C177.782 79.0688 176.949 79.9079 175.908 80.6072C174.901 81.3414 173.756 81.9532 172.471 82.4427C171.187 82.9322 169.885 83.3168 168.566 83.5965C167.247 83.9112 165.98 84.1384 164.765 84.2783C163.55 84.4181 162.492 84.4881 161.589 84.4881C161.103 84.4881 160.461 84.4531 159.662 84.3832C158.864 84.3482 157.996 84.2608 157.059 84.1209C156.122 84.0161 155.167 83.8587 154.195 83.6489C153.258 83.4392 152.408 83.1595 151.644 82.8098C150.88 82.4602 150.256 82.0232 149.77 81.4987C149.284 81.0092 149.041 80.4149 149.041 79.7156C149.041 79.0164 149.422 78.387 150.186 77.8276C150.95 77.3032 151.835 76.8312 152.842 76.4116C153.883 76.027 154.907 75.7124 155.914 75.4676C156.955 75.2229 157.736 75.0481 158.257 74.9432ZM159.558 54.9094C159.558 55.5387 159.628 56.2904 159.767 57.1645C159.905 58.0036 160.131 58.8252 160.444 59.6294C160.791 60.3986 161.242 61.0629 161.797 61.6223C162.353 62.1817 163.03 62.4614 163.828 62.4614C164.8 62.4614 165.598 62.2341 166.223 61.7796C166.848 61.2901 167.351 60.6958 167.733 59.9965C168.115 59.2623 168.375 58.4756 168.514 57.6365C168.688 56.7624 168.774 55.9233 168.774 55.1192C168.774 54.5248 168.688 53.7906 168.514 52.9165C168.375 52.0424 168.132 51.2033 167.785 50.3992C167.473 49.5601 167.039 48.8608 166.483 48.3014C165.928 47.707 165.251 47.4098 164.453 47.4098C163.481 47.4098 162.682 47.6546 162.058 48.1441C161.433 48.6335 160.929 49.2629 160.548 50.0321C160.201 50.7663 159.94 51.5704 159.767 52.4445C159.628 53.3186 159.558 54.1402 159.558 54.9094ZM180.007 72.4258C181.048 72.4258 181.829 72.0238 182.35 71.2196C182.905 70.4155 183.183 69.5414 183.183 68.5974V51.1858C183.183 50.7663 183.166 50.2943 183.131 49.7698C183.096 49.2454 183.009 48.7384 182.871 48.2489C182.732 47.7595 182.523 47.3224 182.246 46.9378C182.003 46.5183 181.656 46.2211 181.204 46.0463H182.298C183.027 46.0463 183.842 46.0288 184.745 45.9938C185.647 45.9239 186.533 45.8015 187.4 45.6267C188.303 45.4169 189.153 45.1372 189.952 44.7876C190.75 44.438 191.41 43.966 191.93 43.3716V54.3849C192.312 53.5458 192.746 52.6368 193.232 51.6578C193.718 50.6789 194.273 49.7873 194.898 48.9832C195.558 48.1441 196.304 47.4623 197.137 46.9378C197.97 46.3784 198.942 46.0987 200.053 46.0987C200.539 46.0987 201.042 46.1337 201.563 46.2036C202.084 46.2386 202.587 46.3784 203.073 46.6232V52.9165C202.587 52.5319 202.014 52.2872 201.355 52.1823C200.695 52.0424 200.07 51.9725 199.48 51.9725C198.786 51.9725 198.057 52.0424 197.293 52.1823C196.53 52.3221 195.801 52.5494 195.106 52.8641C194.412 53.1787 193.77 53.5808 193.18 54.0703C192.625 54.5598 192.191 55.1367 191.878 55.8009V68.8072C191.878 69.1918 191.948 69.5938 192.087 70.0134C192.225 70.4329 192.416 70.8175 192.659 71.1672C192.902 71.5168 193.197 71.814 193.544 72.0587C193.892 72.3035 194.273 72.4258 194.69 72.4258H180.007ZM251.334 35.6623C253.312 35.6623 255.291 35.7846 257.27 36.0294C259.283 36.2741 261.227 36.6762 263.101 37.2356L263.049 46.0463C262.702 44.7177 262.06 43.5115 261.123 42.4276C260.185 41.3438 259.092 40.4347 257.842 39.7005C256.593 38.9313 255.274 38.3369 253.885 37.9174C252.497 37.4978 251.178 37.2881 249.928 37.2881C249.234 37.2881 248.54 37.4104 247.845 37.6552C247.151 37.8999 246.526 38.2495 245.971 38.7041C245.415 39.1586 244.964 39.7005 244.617 40.3298C244.27 40.9592 244.096 41.6584 244.096 42.4276C244.096 44.0709 244.582 45.4169 245.554 46.4658C246.561 47.5147 247.811 48.4238 249.303 49.1929C250.83 49.9621 252.462 50.6789 254.198 51.3432C255.933 51.9725 257.547 52.7242 259.04 53.5983C260.567 54.4374 261.817 55.4513 262.789 56.6401C263.795 57.8288 264.299 59.3497 264.299 61.2027C264.299 63.0208 263.847 64.6291 262.945 66.0276C262.042 67.4261 260.88 68.5974 259.456 69.5414C258.068 70.4854 256.523 71.2021 254.822 71.6916C253.156 72.1811 251.542 72.4258 249.98 72.4258C249.008 72.4258 247.967 72.3909 246.856 72.3209C245.78 72.2161 244.686 72.0762 243.576 71.9014C242.465 71.6916 241.372 71.4644 240.295 71.2196C239.219 70.9749 238.213 70.6952 237.276 70.3805V61.3076C237.657 62.6362 238.247 63.8949 239.046 65.0836C239.879 66.2374 240.851 67.2513 241.962 68.1254C243.107 68.9645 244.339 69.6463 245.658 70.1707C246.977 70.6602 248.349 70.9049 249.772 70.9049C250.674 70.9049 251.525 70.7826 252.323 70.5378C253.121 70.2931 253.816 69.926 254.406 69.4365C254.996 68.9121 255.465 68.2827 255.812 67.5485C256.159 66.8143 256.332 65.9577 256.332 64.9787C256.332 63.3704 255.846 62.0768 254.874 61.0978C253.902 60.0839 252.688 59.2273 251.23 58.5281C249.772 57.7938 248.192 57.1121 246.492 56.4827C244.791 55.8534 243.211 55.1192 241.753 54.2801C240.295 53.406 239.081 52.3571 238.109 51.1334C237.137 49.8747 236.651 48.2664 236.651 46.3085C236.651 44.3855 237.102 42.7423 238.004 41.3787C238.942 40.0152 240.122 38.9138 241.545 38.0747C243.003 37.2356 244.582 36.6238 246.283 36.2392C248.019 35.8546 249.702 35.6623 251.334 35.6623ZM283.21 46.0987C284.807 46.0987 286.317 46.3784 287.74 46.9378C289.163 47.4623 290.396 48.2315 291.437 49.2454C292.513 50.2244 293.346 51.4131 293.936 52.8116C294.526 54.1752 294.804 55.6961 294.769 57.3743H276.337V58.1609C276.337 59.7692 276.598 61.2202 277.118 62.5138C277.674 63.7725 278.42 64.8564 279.357 65.7654C280.329 66.6395 281.457 67.3212 282.742 67.8107C284.061 68.3002 285.501 68.5449 287.063 68.5449C288.278 68.5449 289.493 68.3701 290.708 68.0205C291.958 67.6709 293.051 67.094 293.988 66.2898L294.509 66.8143C292.843 68.7023 290.864 70.1183 288.573 71.0623C286.317 71.9713 283.974 72.4258 281.544 72.4258C279.704 72.4258 277.917 72.1636 276.181 71.6392C274.48 71.0798 272.953 70.2756 271.599 69.2267C270.245 68.1778 269.152 66.8842 268.319 65.3458C267.52 63.8075 267.121 62.0418 267.121 60.0489C267.121 57.8113 267.572 55.8359 268.475 54.1227C269.377 52.3746 270.575 50.9061 272.067 49.7174C273.595 48.5286 275.313 47.6371 277.222 47.0427C279.166 46.4134 281.162 46.0987 283.21 46.0987ZM276.337 56.5352L283.731 56.5876C284.217 56.5876 284.685 56.6051 285.137 56.6401C285.588 56.6401 286.039 56.6051 286.49 56.5352L286.542 55.4863C286.542 54.7521 286.473 53.8955 286.334 52.9165C286.195 51.9375 285.935 51.011 285.553 50.1369C285.206 49.2629 284.72 48.5287 284.095 47.9343C283.47 47.3399 282.672 47.0427 281.7 47.0427C280.624 47.0427 279.756 47.3924 279.097 48.0916C278.437 48.7559 277.899 49.595 277.483 50.6089C277.101 51.5879 276.823 52.6193 276.65 53.7032C276.511 54.787 276.407 55.731 276.337 56.5352ZM328.38 72.4258C329.421 72.4258 330.202 72.0238 330.723 71.2196C331.278 70.4155 331.556 69.5414 331.556 68.5974V51.1858C331.556 50.7663 331.539 50.2943 331.504 49.7698C331.469 49.2454 331.383 48.7384 331.244 48.2489C331.105 47.7595 330.897 47.3224 330.619 46.9378C330.376 46.5183 330.029 46.2211 329.578 46.0463H330.671C331.4 46.0463 332.216 46.0288 333.118 45.9938C334.021 45.9239 334.906 45.8015 335.774 45.6267C336.676 45.4169 337.527 45.1372 338.325 44.7876C339.123 44.438 339.783 43.966 340.304 43.3716V54.3849C340.685 53.5458 341.119 52.6368 341.605 51.6578C342.091 50.6789 342.647 49.7873 343.271 48.9832C343.931 48.1441 344.677 47.4623 345.51 46.9378C346.343 46.3784 347.315 46.0987 348.426 46.0987C348.912 46.0987 349.415 46.1337 349.936 46.2036C350.457 46.2386 350.96 46.3784 351.446 46.6232V52.9165C350.96 52.5319 350.387 52.2872 349.728 52.1823C349.068 52.0424 348.443 51.9725 347.853 51.9725C347.159 51.9725 346.43 52.0424 345.667 52.1823C344.903 52.3221 344.174 52.5494 343.48 52.8641C342.785 53.1787 342.143 53.5808 341.553 54.0703C340.998 54.5598 340.564 55.1367 340.251 55.8009V68.8072C340.251 69.1918 340.321 69.5938 340.46 70.0134C340.599 70.4329 340.79 70.8175 341.033 71.1672C341.275 71.5168 341.571 71.814 341.918 72.0587C342.265 72.3035 342.647 72.4258 343.063 72.4258H328.38ZM366.738 45.3645C367.779 45.3645 368.855 45.4694 369.966 45.6792C371.111 45.8889 372.153 46.2561 373.09 46.7805C374.062 47.27 374.843 47.9518 375.433 48.8258C376.058 49.6649 376.37 50.7138 376.37 51.9725C376.37 52.6018 376.249 53.2137 376.006 53.8081C375.763 54.4024 375.433 54.9269 375.017 55.3814C374.6 55.8359 374.097 56.203 373.507 56.4827C372.951 56.7624 372.344 56.9023 371.684 56.9023C370.712 56.9023 369.914 56.6226 369.289 56.0632C368.664 55.5038 368.352 54.7171 368.352 53.7032C368.352 53.0389 368.508 52.4795 368.82 52.0249C369.133 51.5355 369.289 50.9935 369.289 50.3992C369.289 49.2454 368.925 48.3364 368.196 47.6721C367.501 47.0078 366.599 46.6756 365.488 46.6756C364.516 46.6756 363.7 47.0602 363.041 47.8294C362.381 48.5986 361.843 49.5251 361.427 50.6089C361.01 51.6578 360.698 52.7417 360.49 53.8605C360.316 54.9793 360.229 55.9058 360.229 56.6401C360.229 58.1435 360.403 59.5944 360.75 60.9929C361.132 62.3565 361.705 63.5802 362.468 64.6641C363.232 65.7129 364.204 66.5521 365.384 67.1814C366.564 67.8107 367.987 68.1254 369.654 68.1254C371.354 68.1254 373.038 67.5835 374.704 66.4996C376.37 65.3808 378.019 63.9998 379.651 62.3565C381.317 60.6783 382.983 58.8777 384.649 56.9547C386.35 55.0318 388.068 53.2486 389.804 51.6054C391.574 49.9272 393.379 48.5461 395.219 47.4623C397.059 46.3435 398.985 45.7841 400.998 45.7841C402.283 45.7841 403.446 45.9938 404.487 46.4134C405.563 46.798 406.483 47.3749 407.246 48.1441C408.045 48.8783 408.652 49.7873 409.069 50.8712C409.52 51.9201 409.746 53.0913 409.746 54.3849V68.9645C409.746 70.0134 409.746 71.2371 409.746 72.6356C409.78 74.0691 409.867 75.5375 410.006 77.0409C410.145 78.5793 410.388 80.0827 410.735 81.5512C411.082 83.0196 411.585 84.3307 412.245 85.4845C412.905 86.6732 413.738 87.6172 414.744 88.3165C415.786 89.0507 417.07 89.4178 418.597 89.4178C419.257 89.4178 419.882 89.278 420.472 88.9983C421.096 88.7535 421.635 88.4039 422.086 87.9494C422.537 87.4949 422.902 86.9704 423.179 86.3761C423.457 85.7817 423.596 85.1349 423.596 84.4356C423.596 83.5965 423.353 83.0196 422.867 82.705C422.381 82.3903 421.826 82.0931 421.201 81.8134C420.611 81.5686 420.073 81.219 419.587 80.7645C419.101 80.3449 418.858 79.5583 418.858 78.4045C418.858 77.7752 419.014 77.1983 419.326 76.6738C419.639 76.1494 420.038 75.7124 420.524 75.3627C421.01 75.0131 421.548 74.7334 422.138 74.5236C422.728 74.3488 423.318 74.2614 423.908 74.2614C424.776 74.2614 425.54 74.4362 426.199 74.7858C426.893 75.1355 427.466 75.6075 427.917 76.2018C428.403 76.7962 428.768 77.478 429.011 78.2472C429.289 79.0164 429.427 79.803 429.427 80.6072C429.427 82.1455 429.132 83.5266 428.542 84.7503C427.952 86.0089 427.154 87.0578 426.147 87.8969C425.175 88.771 424.012 89.4353 422.659 89.8898C421.34 90.3444 419.951 90.5716 418.493 90.5716C415.3 90.5716 412.644 89.9772 410.527 88.7885C408.409 87.6347 406.708 86.0789 405.424 84.1209C404.14 82.163 403.185 79.9254 402.56 77.4081C401.936 74.8907 401.502 72.3035 401.259 69.6463C401.05 66.9541 400.964 64.2969 400.998 61.6747C401.033 59.0175 401.05 56.6051 401.05 54.4374C401.05 53.0389 400.617 51.8501 399.749 50.8712C398.916 49.8922 397.77 49.4027 396.312 49.4027C395.306 49.4027 394.334 49.63 393.396 50.0845C392.494 50.539 391.644 51.0635 390.845 51.6578V68.1254C390.845 68.475 390.915 68.8771 391.053 69.3316C391.192 69.7861 391.383 70.2232 391.626 70.6427C391.869 71.0273 392.164 71.3595 392.511 71.6392C392.858 71.9189 393.24 72.0587 393.657 72.0587H379.026C379.998 72.0587 380.761 71.6741 381.317 70.9049C381.872 70.1008 382.15 69.2442 382.15 68.3352V61.2027C380.935 62.4614 379.668 63.7375 378.349 65.0312C377.03 66.3248 375.624 67.4961 374.131 68.5449C372.673 69.5589 371.111 70.398 369.445 71.0623C367.814 71.6916 366.078 72.0063 364.238 72.0063C362.433 72.0063 360.715 71.7266 359.084 71.1672C357.452 70.6078 356.012 69.8036 354.762 68.7547C353.547 67.6709 352.575 66.3772 351.846 64.8738C351.117 63.3355 350.753 61.6048 350.753 59.6818C350.753 57.4442 351.187 55.4513 352.055 53.7032C352.957 51.9201 354.155 50.4167 355.647 49.1929C357.14 47.9343 358.841 46.9903 360.75 46.3609C362.659 45.6966 364.655 45.3645 366.738 45.3645ZM390.845 32.7778V49.0356C389.283 50.3642 387.808 51.8152 386.419 53.3885C385.031 54.9269 383.608 56.4478 382.15 57.9512V41.2738C382.15 40.8543 382.132 40.3473 382.098 39.7529C382.063 39.1236 381.976 38.5292 381.837 37.9698C381.699 37.3755 381.473 36.851 381.161 36.3965C380.883 35.907 380.501 35.5749 380.015 35.4001C380.848 35.4001 381.768 35.4001 382.775 35.4001C383.781 35.3651 384.771 35.2777 385.742 35.1378C386.749 34.963 387.704 34.7008 388.606 34.3512C389.509 34.0015 390.255 33.4771 390.845 32.7778Z" fill="#374151"/>
<g clip-path="url(#clip1_1124_5357)">
<path d="M206.545 65.0396L208.644 68.024L196.053 77.0104L193.954 74.0259L206.545 65.0396Z" fill="#13293D"/>
<path d="M232.991 61.0697C233.639 57.2449 232.752 53.3173 230.525 50.1512C228.298 46.9851 224.914 44.8397 221.117 44.187C217.321 43.5343 213.422 44.4278 210.279 46.6709C207.136 48.9139 205.006 52.3229 204.358 56.1478C203.711 59.9727 204.597 63.9002 206.824 67.0664C209.051 70.2325 212.435 72.3779 216.232 73.0306C220.028 73.6833 223.927 72.7898 227.07 70.5467C230.213 68.3036 232.343 64.8946 232.991 61.0697Z" fill="#13293D"/>
<path d="M203.046 67.4766L205.145 70.461L196.035 76.9629L193.936 73.9785L203.046 67.4766Z" fill="#13293D"/>
<path d="M230.306 60.6083C230.833 57.5006 230.112 54.3095 228.303 51.737C226.494 49.1645 223.744 47.4214 220.66 46.8911C217.575 46.3608 214.407 47.0867 211.853 48.9092C209.3 50.7317 207.569 53.5015 207.043 56.6093C206.516 59.717 207.237 62.9081 209.046 65.4806C210.855 68.0531 213.605 69.7962 216.69 70.3265C219.775 70.8568 222.942 70.1309 225.496 68.3084C228.05 66.4858 229.78 63.7161 230.306 60.6083Z" fill="#1E6594"/>
<path d="M222.811 65.7201C224.86 64.4954 226.315 62.4265 226.727 59.9929C227.14 57.5592 226.448 55.1212 224.918 53.2813C224.621 52.8592 223.979 52.8417 223.65 53.1561C223.231 53.4551 223.213 54.1014 223.526 54.4334C224.743 55.9414 225.259 57.7924 224.938 59.6852C224.617 61.5781 223.522 63.1523 221.877 64.1681C221.667 64.3176 221.442 64.5572 221.396 64.8276C221.366 65.0079 221.41 65.2937 221.484 65.3992C221.781 65.8213 222.407 65.929 222.811 65.7201Z" fill="#E8F1F2"/>
</g>
<path d="M300.25 55.2805C301.856 61.1992 294.221 68.5071 305.136 74.1846C314.253 78.8774 321.245 70.9488 323.452 66.1421C332.617 46.8037 293.741 31.1239 300.25 55.2805Z" fill="#FD9808"/>
<path d="M306.643 72.9741C295.852 67.2455 302.974 60.1962 301.264 54.4636C300.175 50.8156 300.112 48.0721 300.843 46.1603C299.34 47.9922 298.882 51.1704 300.392 55.9862C302.076 61.7649 294.98 68.768 305.744 74.5428C314.209 79.1017 320.58 72.4145 322.87 67.7806C320.077 72.1832 314.196 77.064 306.643 72.9741Z" fill="white"/>
<path d="M323.514 67.7785C320.343 73.3164 313.35 79.0284 304.94 74.686C297.033 70.5749 298.102 65.5363 299.152 61.1639C299.638 59.047 300.071 57.0222 299.573 55.1946C297.699 48.3191 299.354 43.6835 304.219 42.6396C308.586 41.6743 314.778 43.864 319.346 47.9387C325.363 53.288 327.117 60.216 324.133 66.539C323.989 66.9478 323.751 67.3631 323.514 67.7785ZM301.202 46.4822C300.039 48.5127 299.944 51.5338 300.927 55.3674C301.576 57.4063 301.09 59.5233 300.552 61.7326C299.596 66.0985 298.704 70.1941 305.4 73.7233C313.375 77.8741 320.341 71.0999 322.812 65.8318C325.654 59.9177 323.987 53.4712 318.503 48.6173C314.333 44.9586 308.833 42.9873 304.992 43.8277C303.253 44.169 301.995 45.0978 301.202 46.4822Z" fill="black"/>
<path d="M317.006 74.3377C316.848 74.6142 316.47 74.6401 316.062 74.4026L311.98 72.0272C311.572 71.7897 311.405 71.447 311.564 71.1705C311.722 70.894 312.1 70.8681 312.508 71.1056L316.59 73.481C316.998 73.7186 317.165 74.0612 317.006 74.3377Z" fill="black"/>
<path d="M310.205 70.3817C310.046 70.6584 309.669 70.6844 309.26 70.4467L308.58 70.0505C308.171 69.8128 308.005 69.4698 308.163 69.1931C308.321 68.9164 308.699 68.8904 309.108 69.1282L309.788 69.5244C310.197 69.7621 310.363 70.1051 310.205 70.3817Z" fill="black"/>
<path d="M312.697 75.5291C312.538 75.8056 312.16 75.8316 311.752 75.594L307.67 73.2186C307.262 72.9811 307.095 72.6384 307.254 72.3619C307.412 72.0855 307.79 72.0595 308.198 72.297L312.28 74.6724C312.688 74.9099 312.855 75.2527 312.697 75.5291Z" fill="black"/>
<path d="M301.93 67.4181C301.772 67.6947 301.394 67.7207 300.986 67.483L298.944 66.295C298.536 66.0573 298.37 65.7146 298.528 65.438C298.686 65.1614 299.064 65.1354 299.472 65.373L301.514 66.5611C301.922 66.7987 302.089 67.1416 301.93 67.4181Z" fill="black"/>
<path d="M315.61 70.4456C315.451 70.7223 315.073 70.7482 314.665 70.5106L313.304 69.7184C312.896 69.4807 312.729 69.1379 312.887 68.8612C313.046 68.5846 313.424 68.5586 313.832 68.7963L315.193 69.5885C315.601 69.8261 315.768 70.169 315.61 70.4456Z" fill="black"/>
<path d="M315.574 67.3429C315.416 67.6194 315.038 67.6454 314.63 67.4078L311.228 65.4282C310.819 65.1906 310.653 64.8479 310.811 64.5714C310.97 64.2949 311.347 64.2689 311.756 64.5065L315.158 66.4861C315.566 66.7237 315.732 67.0664 315.574 67.3429Z" fill="black"/>
<path d="M304.692 61.0143C304.534 61.2908 304.156 61.3168 303.748 61.0792L300.346 59.0995C299.938 58.862 299.771 58.5193 299.93 58.2428C300.088 57.9663 300.466 57.9403 300.874 58.1779L304.276 60.1575C304.684 60.3951 304.851 60.7378 304.692 61.0143Z" fill="black"/>
<path d="M311.272 57.4471C311.114 57.7237 310.736 57.7497 310.327 57.512L308.966 56.7198C308.558 56.4822 308.391 56.1393 308.55 55.8627C308.708 55.586 309.086 55.5601 309.494 55.7977L310.856 56.5899C311.264 56.8276 311.43 57.1704 311.272 57.4471Z" fill="black"/>
<path d="M319.433 62.1939C319.275 62.4704 318.897 62.4964 318.489 62.2588L313.046 59.0921C312.638 58.8546 312.472 58.512 312.63 58.2355C312.788 57.9591 313.166 57.9331 313.574 58.1706L319.017 61.3374C319.425 61.5749 319.591 61.9175 319.433 62.1939Z" fill="black"/>
<path d="M306.817 46.2304C306.659 46.5069 306.281 46.5329 305.873 46.2953L303.151 44.7114C302.743 44.4738 302.576 44.1311 302.735 43.8545C302.893 43.578 303.271 43.552 303.679 43.7896L306.401 45.3735C306.809 45.6111 306.976 45.9538 306.817 46.2304Z" fill="black"/>
<path d="M324.501 56.5155C324.343 56.7921 323.965 56.818 323.557 56.5804L320.835 54.9966C320.427 54.759 320.26 54.4162 320.419 54.1397C320.577 53.8631 320.955 53.8372 321.363 54.0748L324.085 55.6587C324.493 55.8963 324.66 56.239 324.501 56.5155Z" fill="black"/>
<path d="M314.528 47.018C314.369 47.2947 313.992 47.3207 313.583 47.0829L312.903 46.6867C312.494 46.449 312.328 46.1061 312.486 45.8294C312.644 45.5527 313.022 45.5267 313.431 45.7644L314.111 46.1606C314.52 46.3983 314.686 46.7413 314.528 47.018Z" fill="black"/>
<path d="M311.127 45.0399C310.968 45.3165 310.59 45.3425 310.182 45.1049L307.461 43.521C307.052 43.2834 306.886 42.9407 307.044 42.6641C307.203 42.3876 307.58 42.3616 307.989 42.5992L310.71 44.1831C311.118 44.4207 311.285 44.7634 311.127 45.0399Z" fill="black"/>
<path d="M304.435 50.3898C304.276 50.6663 303.898 50.6922 303.49 50.4547L300.088 48.475C299.68 48.2375 299.514 47.8948 299.672 47.6183C299.83 47.3417 300.208 47.3158 300.616 47.5533L304.018 49.533C304.426 49.7706 304.593 50.1133 304.435 50.3898Z" fill="black"/>
<path d="M325.367 61.3326C325.209 61.6091 324.831 61.6351 324.423 61.3975L321.021 59.4179C320.613 59.1803 320.446 58.8376 320.605 58.5611C320.763 58.2846 321.141 58.2586 321.549 58.4962L324.951 60.4759C325.359 60.7135 325.525 61.0562 325.367 61.3326Z" fill="black"/>
<path d="M323.814 67.2069C323.655 67.4835 323.278 67.5095 322.869 67.2719L320.148 65.688C319.74 65.4504 319.573 65.1076 319.731 64.8311C319.89 64.5545 320.268 64.5286 320.676 64.7662L323.397 66.3501C323.806 66.5877 323.972 66.9304 323.814 67.2069Z" fill="black"/>
</g>
<defs>
<clipPath id="clip0_1124_5357">
<rect width="320" height="59" fill="white" transform="translate(109.559 32)"/>
</clipPath>
<clipPath id="clip1_1124_5357">
<rect width="43.8817" height="43.5783" fill="white" transform="matrix(-0.167013 0.985955 -0.985544 -0.169417 239.623 43.6577)"/>
</clipPath>
</defs>
</svg>
