<svg width="249" height="178" viewBox="0 0 249 178" fill="none" xmlns="http://www.w3.org/2000/svg">
<g filter="url(#filter0_dd_1124_1612)">
<g clip-path="url(#clip0_1124_1612)">
<rect x="5" y="1.5" width="239" height="167" rx="24" fill="white"/>
<g opacity="0.3" filter="url(#filter1_dd_1124_1612)">
<path d="M135.892 40.8966C135.693 40.8966 135.516 40.7579 135.474 40.5563L134.717 36.8842C134.67 36.6536 134.818 36.4285 135.049 36.381C135.28 36.3333 135.506 36.4819 135.553 36.7124L136.31 40.3846C136.357 40.6151 136.209 40.8402 135.978 40.8878C135.949 40.8937 135.92 40.8966 135.892 40.8966Z" fill="#DEE5DC"/>
<path d="M140.08 39.167C139.882 39.167 139.704 39.0283 139.663 38.8267L138.906 35.1545C138.859 34.9241 139.007 34.6989 139.238 34.6515C139.469 34.6038 139.695 34.7525 139.742 34.9829L140.499 38.6551C140.546 38.8854 140.398 39.1107 140.167 39.1581C140.138 39.1641 140.109 39.167 140.08 39.167Z" fill="#DEE5DC"/>
<path d="M143.927 38.377C143.728 38.377 143.551 38.2383 143.509 38.0367L142.752 34.3646C142.705 34.1341 142.854 33.9089 143.084 33.8614C143.315 33.8139 143.541 33.9623 143.588 34.1928L144.345 37.865C144.393 38.0955 144.244 38.3206 144.013 38.3682C143.984 38.3743 143.955 38.377 143.927 38.377Z" fill="#DEE5DC"/>
<path d="M148.242 37.3174C148.044 37.3174 147.866 37.1786 147.824 36.977L147.068 33.3049C147.021 33.0745 147.169 32.8492 147.4 32.8019C147.631 32.7542 147.856 32.9029 147.904 33.1333L148.661 36.8054C148.708 37.0358 148.559 37.2611 148.329 37.3085C148.3 37.3145 148.271 37.3174 148.242 37.3174Z" fill="#DEE5DC"/>
<path d="M152.192 36.1582C151.994 36.1582 151.816 36.0195 151.775 35.8179L151.018 32.1459C150.971 31.9154 151.119 31.6902 151.35 31.6427C151.581 31.595 151.806 31.7436 151.854 31.9741L152.611 35.6461C152.658 35.8767 152.51 36.1018 152.279 36.1493C152.25 36.1553 152.221 36.1582 152.192 36.1582Z" fill="#DEE5DC"/>
<path d="M156.539 35.2656C156.341 35.2656 156.163 35.1269 156.122 34.9253L155.365 31.2532C155.318 31.0226 155.467 30.7975 155.697 30.7501C155.928 30.7024 156.154 30.8512 156.202 31.0816L156.958 34.7537C157.005 34.9843 156.857 35.2094 156.626 35.2567C156.597 35.2629 156.568 35.2656 156.539 35.2656Z" fill="#DEE5DC"/>
<path d="M160.385 34.4756C160.187 34.4756 160.009 34.3369 159.968 34.1353L159.211 30.4632C159.164 30.2328 159.312 30.0075 159.543 29.9601C159.774 29.9122 160 30.0612 160.047 30.2916L160.804 33.9637C160.851 34.1941 160.703 34.4194 160.472 34.4667C160.443 34.4729 160.414 34.4756 160.385 34.4756Z" fill="#DEE5DC"/>
<path d="M164.764 33.751C164.566 33.751 164.389 33.6123 164.347 33.4107L163.59 29.7386C163.543 29.5082 163.692 29.2829 163.922 29.2355C164.153 29.1876 164.379 29.3366 164.426 29.567L165.183 33.2391C165.23 33.4695 165.082 33.6948 164.851 33.7421C164.822 33.7481 164.793 33.751 164.764 33.751Z" fill="#DEE5DC"/>
<path d="M168.674 33.2959C168.476 33.2959 168.298 33.1572 168.257 32.9556L167.5 29.2834C167.453 29.053 167.601 28.8278 167.832 28.7804C168.063 28.7327 168.289 28.8814 168.336 29.1118L169.093 32.784C169.14 33.0144 168.992 33.2396 168.761 33.287C168.732 33.2931 168.703 33.2959 168.674 33.2959Z" fill="#DEE5DC"/>
<path d="M173.022 32.4033C172.824 32.4033 172.646 32.2646 172.604 32.063L171.848 28.3909C171.8 28.1605 171.949 27.9352 172.18 27.8879C172.411 27.84 172.636 27.9889 172.684 28.2193L173.44 31.8914C173.488 32.1218 173.339 32.3471 173.108 32.3945C173.079 32.4004 173.05 32.4033 173.022 32.4033Z" fill="#DEE5DC"/>
<path d="M177.026 32.4512C176.828 32.4512 176.65 32.3125 176.609 32.1109L175.852 28.4388C175.805 28.2082 175.954 27.9831 176.184 27.9357C176.415 27.8878 176.641 28.0368 176.688 28.2672L177.445 31.9393C177.492 32.1698 177.343 32.395 177.113 32.4423C177.084 32.4483 177.055 32.4512 177.026 32.4512Z" fill="#DEE5DC"/>
<path d="M134.137 39.0451C133.957 39.0451 133.79 38.9313 133.731 38.7518C133.658 38.5282 133.78 38.2875 134.004 38.2142C134.284 38.1223 162.098 29.0752 178.02 29.0752C178.091 29.0752 178.161 29.0754 178.232 29.0757C178.468 29.0769 178.658 29.2838 178.656 29.5189C178.655 29.7534 178.464 29.9579 178.23 29.9579C178.229 29.9579 178.228 29.9579 178.227 29.9579C178.158 29.9579 178.088 29.9424 178.018 29.9424C162.233 29.9424 134.549 38.94 134.269 39.0313C134.226 39.0458 134.181 39.0451 134.137 39.0451Z" fill="#DEE5DC"/>
<path d="M133.584 40.156C133.584 40.156 187.638 24.5055 222.319 30.981V59.0984L133.584 40.156Z" fill="#DEE5DC"/>
<path d="M29.5828 104.913V35.3216C29.5828 35.3216 161.943 33.3592 222.319 59.022V99.4786L29.5828 104.913Z" fill="#EAEFE8"/>
<path d="M227.27 61.4209C227.214 61.4209 227.157 61.41 227.103 61.3866C206.666 52.6839 171.021 44.6214 136.293 40.8467C136.059 40.8213 135.889 40.611 135.915 40.377C135.94 40.1432 136.149 39.9743 136.385 39.9996C171.19 43.7826 206.93 51.87 227.438 60.6029C227.655 60.6953 227.755 60.9455 227.663 61.1619C227.594 61.3239 227.436 61.4209 227.27 61.4209Z" fill="#161616"/>
<path d="M29.5828 104.856C29.5828 104.856 120.232 74.2406 222.319 85.0285V144.395L29.5828 142.695V104.856Z" fill="#EAEFE8"/>
<path d="M227.271 85.4258C227.251 85.4258 227.231 85.4245 227.211 85.4219C222.254 84.7341 217.168 84.1387 212.092 83.6522C211.858 83.6297 211.686 83.4215 211.709 83.1873C211.731 82.9532 211.938 82.7802 212.174 82.8039C217.261 83.2918 222.36 83.8886 227.329 84.5779C227.562 84.6103 227.725 84.8255 227.693 85.0584C227.663 85.2716 227.48 85.4258 227.271 85.4258Z" fill="#161616"/>
<path d="M205.74 83.0965C205.729 83.0965 205.718 83.0962 205.706 83.0951C199.576 82.613 193.282 82.271 186.998 82.0785C186.762 82.0713 186.577 81.8868 186.584 81.6518C186.592 81.421 186.781 81.251 187.011 81.251C187.015 81.251 187.02 81.251 187.024 81.251C193.322 81.4214 199.63 81.7748 205.773 82.2579C206.008 82.2763 206.184 82.4755 206.165 82.71C206.148 82.9331 205.961 83.0965 205.74 83.0965Z" fill="#161616"/>
<path d="M78.1221 91.9607C77.9235 91.9607 77.7458 91.8217 77.7045 91.6199C77.6574 91.3893 77.8063 91.1642 78.0371 91.1172C106.379 85.3306 134.59 81.9988 161.886 81.2139C162.122 81.2102 162.319 81.3923 162.325 81.6275C162.332 81.8627 162.147 82.0588 161.911 82.0656C134.664 82.849 106.502 86.1754 78.2079 91.9519C78.1793 91.9577 78.1504 91.9607 78.1221 91.9607Z" fill="#161616"/>
<path d="M21.7299 107.114C21.5565 107.114 21.3935 107.008 21.3296 106.836C21.2478 106.616 21.3607 106.37 21.5816 106.289C21.6273 106.272 26.2324 104.574 34.3461 102.105C41.8307 99.8268 53.9217 96.4052 69.0195 93.0413C69.2508 92.9909 69.4777 93.1349 69.5291 93.3644C69.5805 93.5941 69.4355 93.822 69.2054 93.8731C54.1383 97.2296 42.0728 100.644 34.6042 102.917C26.5116 105.38 21.9235 107.071 21.8779 107.088C21.8293 107.106 21.7793 107.114 21.7299 107.114Z" fill="#161616"/>
<path d="M115.243 82.5368L102.842 132.946L113.59 134.92L122.891 99.8205C122.891 99.8205 126.956 100.735 131.09 99.5455L141.632 132.396L151.803 127.926L136.326 81.2988" fill="#946D42"/>
<path d="M115.243 82.9628C115.123 82.9628 115.007 82.9118 114.926 82.8217C114.839 82.7254 114.801 82.5947 114.822 82.4669L117.234 67.9873C117.254 67.8655 117.327 67.7583 117.432 67.6937C117.548 67.6228 120.326 65.9537 124.718 65.6081C129.112 65.262 132.89 66.8422 133.049 66.9095C133.173 66.962 133.264 67.0695 133.296 67.1999L136.369 79.6843C136.425 79.9128 136.285 80.1436 136.056 80.1996C135.827 80.2557 135.596 80.116 135.54 79.8874L132.52 67.6167C131.702 67.3057 128.419 66.1713 124.785 66.4574C121.194 66.7401 118.69 67.9769 118.043 68.3278L115.752 82.0801L136.302 80.8734C136.536 80.8583 136.739 81.0389 136.753 81.2737C136.767 81.5085 136.587 81.7103 136.352 81.7241L115.269 82.9621C115.26 82.9626 115.252 82.9628 115.243 82.9628Z" fill="#161616"/>
<path d="M105.673 121.438L115.432 127.969L110.525 145.786L101.598 137.134L105.673 121.438Z" fill="#FAFCFA"/>
<path d="M110.525 146.213C110.415 146.213 110.308 146.171 110.227 146.092L101.3 137.44C101.19 137.334 101.146 137.176 101.185 137.028L105.26 121.332C105.294 121.198 105.392 121.09 105.521 121.041C105.65 120.991 105.795 121.008 105.91 121.085L115.669 127.615C115.822 127.717 115.892 127.905 115.843 128.082L110.936 145.9C110.896 146.045 110.782 146.158 110.637 146.198C110.6 146.208 110.562 146.213 110.525 146.213ZM102.073 137.002L110.304 144.979L114.939 128.152L105.935 122.127L102.073 137.002Z" fill="#161616"/>
<path d="M96.9153 133.178C96.9153 133.178 100.138 131.126 102.838 132.824C105.538 134.521 109.27 138.411 109.27 138.411" fill="#FAFCFA"/>
<path d="M109.27 138.837C109.158 138.837 109.046 138.793 108.962 138.705C108.925 138.667 105.234 134.834 102.61 133.184C101.6 132.549 100.384 132.41 98.9958 132.77C97.9253 133.048 97.1519 133.533 97.1442 133.537C96.9448 133.664 96.6816 133.605 96.5553 133.406C96.4289 133.208 96.4872 132.945 96.6857 132.819C96.7209 132.796 97.5613 132.266 98.7551 131.952C100.368 131.528 101.858 131.705 103.065 132.463C105.778 134.169 109.424 137.955 109.578 138.116C109.741 138.286 109.735 138.555 109.565 138.718C109.482 138.797 109.376 138.837 109.27 138.837Z" fill="#161616"/>
<path d="M110.94 145.233C111.626 146.736 104.734 148.843 101.245 145.336C97.739 141.812 93.5954 135.239 96.157 133.332C98.7187 131.425 108.2 139.226 110.94 145.233Z" fill="#161616"/>
<path d="M96.9155 136.874C96.7805 136.874 96.6477 136.81 96.5645 136.691C96.4302 136.497 96.478 136.232 96.6717 136.098L98.8736 134.571C99.0672 134.437 99.3328 134.485 99.4675 134.678C99.6019 134.871 99.5541 135.137 99.3603 135.271L97.1584 136.798C97.0844 136.849 96.9995 136.874 96.9155 136.874Z" fill="#EAEFE8"/>
<path d="M97.7423 138.386C97.6099 138.386 97.4791 138.325 97.3958 138.209C97.2578 138.018 97.3014 137.752 97.4926 137.615L100.659 135.338C100.85 135.201 101.117 135.244 101.255 135.435C101.393 135.626 101.349 135.892 101.158 136.029L97.9914 138.306C97.9158 138.36 97.8287 138.386 97.7423 138.386Z" fill="#EAEFE8"/>
<path d="M98.5691 139.9C98.4346 139.9 98.3023 139.836 98.2191 139.718C98.0839 139.525 98.1307 139.26 98.3238 139.125L101.669 136.786C101.862 136.651 102.128 136.698 102.264 136.891C102.399 137.083 102.352 137.349 102.159 137.484L98.8135 139.823C98.7391 139.875 98.6536 139.9 98.5691 139.9Z" fill="#EAEFE8"/>
<path d="M102.471 144.756C102.342 144.756 102.215 144.699 102.131 144.589C101.988 144.402 102.024 144.135 102.211 143.992L105.568 141.431C105.755 141.288 106.023 141.324 106.166 141.511C106.309 141.698 106.273 141.966 106.086 142.108L102.729 144.669C102.652 144.728 102.561 144.756 102.471 144.756Z" fill="#EAEFE8"/>
<path d="M103.711 145.857C103.582 145.857 103.455 145.799 103.371 145.69C103.228 145.503 103.264 145.235 103.451 145.092L106.808 142.532C106.996 142.389 107.263 142.425 107.406 142.612C107.549 142.799 107.514 143.066 107.326 143.209L103.969 145.769C103.892 145.828 103.801 145.857 103.711 145.857Z" fill="#EAEFE8"/>
<path d="M149.092 119.838L139.749 126.949L145.734 144.435L154.117 135.257L149.092 119.838Z" fill="#FAFCFA"/>
<path d="M145.734 144.862C145.705 144.862 145.676 144.859 145.647 144.853C145.499 144.822 145.379 144.716 145.33 144.573L139.345 127.087C139.286 126.913 139.345 126.721 139.491 126.61L148.834 119.499C148.944 119.416 149.088 119.39 149.22 119.432C149.352 119.473 149.456 119.575 149.498 119.706L154.523 135.126C154.57 135.271 154.536 135.431 154.432 135.545L146.049 144.723C145.967 144.812 145.853 144.862 145.734 144.862ZM140.253 127.102L145.904 143.617L153.634 135.154L148.873 120.541L140.253 127.102Z" fill="#161616"/>
<path d="M158.549 131.023C158.549 131.023 155.208 129.171 152.616 131.03C150.025 132.888 146.536 136.997 146.536 136.997" fill="#FAFCFA"/>
<path d="M146.536 137.423C146.439 137.423 146.341 137.39 146.261 137.322C146.081 137.17 146.058 136.901 146.211 136.722C146.355 136.552 149.763 132.551 152.367 130.684C153.525 129.853 155.002 129.587 156.638 129.912C157.849 130.153 158.72 130.631 158.757 130.651C158.963 130.765 159.037 131.025 158.922 131.23C158.808 131.436 158.548 131.509 158.343 131.396C158.335 131.392 157.534 130.955 156.448 130.743C155.04 130.468 153.834 130.681 152.865 131.376C150.347 133.182 146.897 137.232 146.862 137.273C146.778 137.372 146.657 137.423 146.536 137.423Z" fill="#161616"/>
<path d="M145.285 143.908C144.693 145.45 151.7 147.134 154.969 143.422C158.253 139.691 161.989 132.879 159.316 131.131C156.642 129.383 147.654 137.746 145.285 143.908Z" fill="#161616"/>
<path d="M158.748 134.713C158.673 134.713 158.596 134.693 158.527 134.651L156.236 133.261C156.035 133.138 155.971 132.876 156.093 132.675C156.216 132.474 156.478 132.411 156.68 132.532L158.971 133.923C159.172 134.045 159.236 134.307 159.114 134.508C159.033 134.64 158.893 134.713 158.748 134.713Z" fill="#EAEFE8"/>
<path d="M158.015 136.274C157.937 136.274 157.859 136.253 157.788 136.208L154.488 134.128C154.289 134.003 154.229 133.739 154.355 133.54C154.481 133.341 154.745 133.282 154.944 133.408L158.244 135.488C158.443 135.613 158.502 135.876 158.377 136.075C158.296 136.204 158.157 136.274 158.015 136.274Z" fill="#EAEFE8"/>
<path d="M157.282 137.834C157.206 137.834 157.129 137.813 157.059 137.771L153.578 135.64C153.377 135.517 153.314 135.254 153.437 135.054C153.561 134.853 153.824 134.791 154.024 134.913L157.506 137.045C157.707 137.168 157.77 137.43 157.646 137.63C157.566 137.762 157.426 137.834 157.282 137.834Z" fill="#EAEFE8"/>
<path d="M153.684 142.919C153.603 142.919 153.52 142.895 153.447 142.846L149.94 140.494C149.744 140.363 149.692 140.099 149.824 139.903C149.955 139.708 150.221 139.656 150.416 139.787L153.923 142.139C154.118 142.27 154.17 142.535 154.039 142.73C153.957 142.853 153.822 142.919 153.684 142.919Z" fill="#EAEFE8"/>
<path d="M152.514 144.092C152.432 144.092 152.349 144.069 152.276 144.02L148.769 141.668C148.574 141.537 148.522 141.272 148.653 141.077C148.785 140.882 149.05 140.83 149.245 140.961L152.752 143.313C152.948 143.444 152.999 143.708 152.868 143.904C152.786 144.026 152.651 144.092 152.514 144.092Z" fill="#EAEFE8"/>
<path d="M122.891 100.384C120.412 100.384 119.337 98.7818 119.292 98.7134C119.164 98.5165 119.22 98.2525 119.417 98.1238C119.613 97.9959 119.877 98.0506 120.006 98.2464C120.045 98.3031 120.896 99.5319 122.891 99.5319C123.127 99.5319 123.318 99.7226 123.318 99.9579C123.318 100.193 123.127 100.384 122.891 100.384Z" fill="#161616"/>
<path d="M131.347 100.121C131.162 100.121 131.051 100.107 131.032 100.104C130.798 100.072 130.635 99.8572 130.667 99.6241C130.699 99.3919 130.913 99.2301 131.146 99.26C131.227 99.2707 132.976 99.4627 134.78 97.6312C134.946 97.4635 135.215 97.4611 135.384 97.6263C135.552 97.7912 135.554 98.061 135.389 98.2287C133.716 99.9266 132.031 100.121 131.347 100.121Z" fill="#161616"/>
<path d="M108.515 109.887L112.347 110.861L113.725 105.359L109.937 104.104L108.515 109.887Z" fill="#B2BCAF"/>
<path d="M114.257 106.812H113.062C112.826 106.812 112.635 106.621 112.635 106.386C112.635 106.151 112.826 105.96 113.062 105.96H114.257C114.493 105.96 114.684 106.151 114.684 106.386C114.684 106.621 114.493 106.812 114.257 106.812Z" fill="#161616"/>
<path d="M113.173 111.012C113.092 111.012 113.009 110.988 112.937 110.94L111.903 110.252C111.707 110.122 111.654 109.857 111.785 109.662C111.915 109.466 112.18 109.413 112.376 109.543L113.41 110.231C113.606 110.362 113.659 110.626 113.528 110.822C113.446 110.945 113.311 111.012 113.173 111.012Z" fill="#161616"/>
<path d="M113.656 108.811C113.622 108.811 113.587 108.807 113.552 108.798L112.45 108.523C112.221 108.466 112.082 108.235 112.139 108.007C112.196 107.778 112.429 107.639 112.657 107.697L113.759 107.972C113.988 108.029 114.127 108.26 114.07 108.488C114.021 108.682 113.847 108.811 113.656 108.811Z" fill="#161616"/>
<path d="M119.648 67.4222L119.298 82.5747C119.298 82.5747 119.477 84.3127 120.986 84.221C122.495 84.1293 122.451 82.3888 122.451 82.3888V66.7051C122.451 66.7051 120.256 67.1884 119.648 67.4222Z" fill="#946D42"/>
<path d="M120.797 84.6507C119.384 84.6507 118.901 83.3297 118.844 82.6082C118.826 82.3737 119.001 82.1686 119.236 82.1501C119.47 82.1302 119.676 82.3062 119.695 82.54C119.707 82.6764 119.848 83.8636 120.889 83.796C121.936 83.7324 121.917 82.5436 121.911 82.4083C121.901 82.174 122.083 81.975 122.318 81.9642C122.545 81.9547 122.752 82.1334 122.764 82.3678C122.801 83.1153 122.468 84.5536 120.941 84.6465C120.892 84.6492 120.844 84.6507 120.797 84.6507Z" fill="#161616"/>
<path d="M120.825 82.7822C121.044 82.7822 121.222 82.6052 121.222 82.3867C121.222 82.1683 121.044 81.9912 120.825 81.9912C120.607 81.9912 120.429 82.1683 120.429 82.3867C120.429 82.6052 120.607 82.7822 120.825 82.7822Z" fill="#161616"/>
<path d="M131.028 66.9647L132.068 82.0857C132.068 82.0857 131.972 83.83 130.461 83.8072C128.949 83.7844 128.918 82.0433 128.918 82.0433L128.201 66.376C128.201 66.3758 130.41 66.7589 131.028 66.9647Z" fill="#946D42"/>
<path d="M130.555 84.2306C130.543 84.2306 130.53 84.2306 130.518 84.2302C128.989 84.2071 128.59 82.7751 128.593 82.0265C128.594 81.7919 128.785 81.5918 129.02 81.5918C129.021 81.5918 129.021 81.5918 129.022 81.5918C129.258 81.5918 129.448 81.7946 129.447 82.0299C129.447 82.1635 129.483 83.3572 130.531 83.3731C131.603 83.3882 131.665 82.1221 131.667 82.0679C131.674 81.8328 131.87 81.6506 132.107 81.6574C132.343 81.6651 132.528 81.8627 132.52 82.0977C132.495 82.8394 132.052 84.2306 130.555 84.2306Z" fill="#161616"/>
<path d="M130.53 82.3633C130.749 82.3633 130.926 82.1862 130.926 81.9678C130.926 81.7493 130.749 81.5723 130.53 81.5723C130.311 81.5723 130.134 81.7493 130.134 81.9678C130.134 82.1862 130.311 82.3633 130.53 82.3633Z" fill="#161616"/>
<path d="M120.989 66.789L122.222 70.4647L123.923 66.1523C123.923 66.1522 122.101 66.4148 120.989 66.789Z" fill="#F9FCF7"/>
<path d="M122.222 70.8556C122.219 70.8556 122.215 70.8556 122.211 70.8556C122.032 70.8556 121.875 70.7522 121.818 70.5823L120.584 66.9153C120.51 66.6924 120.63 66.4555 120.853 66.3805C121.988 65.9983 123.786 65.739 123.862 65.7281C124.013 65.7061 124.163 65.7672 124.257 65.8864C124.351 66.0055 124.375 66.1662 124.32 66.3074L122.619 70.6027C122.555 70.7658 122.397 70.8556 122.222 70.8556ZM121.533 67.0683L122.255 69.2189L123.25 66.6939C122.758 66.7815 122.099 66.9119 121.533 67.0683Z" fill="#161616"/>
<path d="M129.511 66.4566L128.425 70.1782L126.555 65.9365C126.555 65.9365 128.385 66.1267 129.511 66.4566Z" fill="#F9FCF7"/>
<path d="M128.425 70.6045C128.257 70.6045 128.103 70.5053 128.034 70.3501L126.164 66.1085C126.103 65.9696 126.12 65.8086 126.21 65.6859C126.299 65.5632 126.446 65.4972 126.599 65.5131C126.675 65.5211 128.481 65.7111 129.631 66.048C129.857 66.1143 129.987 66.3503 129.921 66.5759L128.835 70.2974C128.785 70.4694 128.632 70.5917 128.453 70.6033C128.444 70.6042 128.434 70.6045 128.425 70.6045ZM127.248 66.452L128.343 68.9355L128.979 66.7581C128.407 66.6241 127.743 66.52 127.248 66.452Z" fill="#161616"/>
<path d="M126.069 93.4597C122.555 93.4597 120.78 91.9078 119.909 90.6059C118.965 89.1949 118.864 87.7914 118.861 87.7326C118.853 87.6191 118.892 87.5075 118.967 87.4223C119.043 87.3373 119.149 87.286 119.263 87.2797L132.58 86.5459C132.797 86.5307 132.994 86.6911 133.026 86.9091C133.041 87.0099 133.374 89.4025 131.805 91.2913C130.694 92.6295 128.933 93.3556 126.571 93.4497C126.4 93.4565 126.232 93.4597 126.069 93.4597ZM119.774 88.105C120.016 89.3466 121.174 92.8084 126.537 92.5983C128.647 92.5143 130.198 91.8916 131.148 90.7477C132.134 89.5609 132.227 88.1023 132.209 87.4199L119.774 88.105Z" fill="#161616"/>
<path d="M125.123 65.1363C123.308 65.1363 121.8 64.6222 120.632 63.604C118.524 61.7652 118.314 58.965 118.306 58.8467C118.29 58.6121 118.468 58.409 118.703 58.3933C118.937 58.38 119.141 58.5548 119.157 58.7893C119.175 59.0299 119.641 64.6757 125.756 64.2625C130.717 63.9264 130.774 60.0415 130.774 59.8762C130.774 59.6408 130.965 59.4502 131.201 59.4502C131.437 59.4502 131.628 59.6408 131.628 59.8762C131.628 61.5511 130.413 64.801 125.814 65.1125C125.579 65.1283 125.348 65.1363 125.123 65.1363Z" fill="#161616"/>
<path d="M122.339 66.8034C122.333 66.8034 122.327 66.8034 122.321 66.803C122.085 66.7933 121.902 66.595 121.912 66.36L121.98 64.6929C121.99 64.4579 122.189 64.2744 122.424 64.2846C122.66 64.2943 122.843 64.4927 122.833 64.7276L122.765 66.3948C122.755 66.6239 122.566 66.8034 122.339 66.8034Z" fill="#161616"/>
<path d="M127.757 66.107C127.545 66.107 127.362 65.9502 127.334 65.7352L127.174 64.499C127.144 64.2656 127.309 64.052 127.543 64.0222C127.775 63.9915 127.991 64.157 128.021 64.3905L128.18 65.6266C128.21 65.8601 128.045 66.0736 127.811 66.1034C127.793 66.1058 127.775 66.107 127.757 66.107Z" fill="#161616"/>
<path d="M125.439 80.825C125.203 80.825 125.012 80.6343 125.012 80.399V65.9143C125.012 65.679 125.203 65.4883 125.439 65.4883C125.675 65.4883 125.866 65.679 125.866 65.9143V80.399C125.866 80.6343 125.675 80.825 125.439 80.825Z" fill="#161616"/>
<path d="M117.654 68.484C117.58 68.484 117.505 68.4646 117.436 68.4237L110.704 64.4119C110.572 64.3337 110.493 64.1914 110.495 64.0389C110.498 63.8862 110.582 63.7468 110.716 63.6732L117.882 59.7298C118.089 59.6163 118.348 59.6909 118.462 59.8971C118.576 60.1031 118.501 60.3623 118.294 60.4758L111.78 64.0609L117.874 67.6921C118.076 67.8127 118.142 68.0741 118.021 68.2763C117.941 68.4099 117.8 68.484 117.654 68.484Z" fill="#161616"/>
<path d="M116.421 75.8907C116.335 75.8907 116.249 75.8653 116.174 75.8123L103.785 67.0525C103.767 67.0394 103.749 67.0247 103.733 67.0087C103.634 66.9121 101.331 64.6138 102.456 62.2574C103.502 60.0669 113.893 55.5426 115.074 55.0339C115.29 54.9409 115.542 55.0402 115.635 55.2563C115.729 55.4724 115.629 55.7231 115.412 55.8163C115.384 55.8285 112.538 57.0563 109.608 58.5242C104.36 61.154 103.397 62.2672 103.227 62.6239C102.41 64.334 104.097 66.1592 104.309 66.379L116.668 75.117C116.86 75.253 116.906 75.5189 116.769 75.7109C116.686 75.8282 116.554 75.8907 116.421 75.8907Z" fill="#161616"/>
<path d="M104.512 67.4704C104.351 67.4704 104.197 67.3797 104.125 67.225C104.025 67.012 104.117 66.7582 104.33 66.6585L110.741 63.6604C110.955 63.5607 111.209 63.6525 111.309 63.8654C111.409 64.0784 111.317 64.3321 111.103 64.4318L104.692 67.43C104.634 67.4574 104.572 67.4704 104.512 67.4704Z" fill="#161616"/>
<path d="M108.259 70.1189C108.138 70.1189 108.018 70.068 107.933 69.9686C107.78 69.7892 107.802 69.5205 107.982 69.3681L112.995 65.1198C113.174 64.9677 113.443 64.9893 113.596 65.1689C113.749 65.3484 113.727 65.6171 113.547 65.7694L108.535 70.0177C108.455 70.0855 108.356 70.1189 108.259 70.1189Z" fill="#161616"/>
<path d="M134.017 68.07C133.872 68.07 133.73 67.9958 133.651 67.8622C133.53 67.6601 133.596 67.3987 133.798 67.2781L139.892 63.6468L133.378 60.0618C133.171 59.9481 133.096 59.6891 133.21 59.4831C133.324 59.2771 133.584 59.2021 133.79 59.3158L140.956 63.2592C141.09 63.333 141.174 63.4723 141.177 63.6249C141.179 63.7775 141.1 63.9197 140.969 63.9979L134.236 68.0096C134.167 68.0505 134.092 68.07 134.017 68.07Z" fill="#161616"/>
<path d="M135.251 75.4777C135.118 75.4777 134.986 75.4151 134.903 75.2979C134.767 75.106 134.812 74.84 135.004 74.704L147.362 65.9663C147.573 65.7472 149.259 63.9141 148.446 62.2107C148.275 61.8542 147.313 60.741 142.064 58.1112C139.134 56.6433 136.288 55.4155 136.26 55.4033C136.043 55.31 135.943 55.0594 136.037 54.8433C136.13 54.6272 136.382 54.5277 136.598 54.6209C137.779 55.1296 148.17 59.6539 149.216 61.8442C150.341 64.2006 148.038 66.4989 147.939 66.5957C147.923 66.6117 147.906 66.6263 147.887 66.6395L135.498 75.3993C135.423 75.4523 135.337 75.4777 135.251 75.4777Z" fill="#161616"/>
<path d="M147.16 67.0566C147.1 67.0566 147.038 67.0437 146.98 67.0163L140.569 64.0179C140.355 63.9182 140.263 63.6645 140.363 63.4515C140.463 63.2385 140.717 63.1465 140.931 63.2465L147.342 66.2448C147.555 66.3445 147.647 66.5982 147.547 66.8113C147.475 66.9658 147.321 67.0566 147.16 67.0566Z" fill="#161616"/>
<path d="M143.413 69.7057C143.316 69.7057 143.218 69.6724 143.137 69.6045L138.125 65.3562C137.945 65.2038 137.923 64.9351 138.076 64.7557C138.229 64.5764 138.498 64.5546 138.677 64.7066L143.69 68.9549C143.87 69.1072 143.892 69.3759 143.739 69.5554C143.654 69.6547 143.534 69.7057 143.413 69.7057Z" fill="#161616"/>
<path d="M126.284 60.6168C120.502 60.6168 115.799 56.676 115.799 51.8319C115.799 46.9877 120.502 43.0469 126.284 43.0469C132.065 43.0469 136.768 46.9877 136.768 51.8319C136.768 56.676 132.065 60.6168 126.284 60.6168ZM126.284 43.8989C120.973 43.8989 116.652 47.4577 116.652 51.8319C116.652 56.2061 120.973 59.7648 126.284 59.7648C131.594 59.7648 135.915 56.2061 135.915 51.8319C135.915 47.4576 131.594 43.8989 126.284 43.8989Z" fill="#161616"/>
<path d="M126.546 56.9119C125.152 56.9119 123.78 56.4691 122.682 55.6653C121.416 54.7378 120.617 53.3941 120.492 51.9787C120.376 50.6782 120.823 49.4257 121.752 48.4519C122.788 47.3649 124.332 46.7412 125.987 46.7412C127.382 46.7412 128.754 47.1839 129.851 47.9877C131.117 48.9153 131.916 50.2589 132.042 51.6742C132.157 52.9747 131.71 54.2272 130.781 55.201C129.745 56.2883 128.201 56.9119 126.546 56.9119ZM125.987 47.5934C124.565 47.5934 123.246 48.1205 122.37 49.0393C121.613 49.8331 121.248 50.8501 121.342 51.9034C121.446 53.0749 122.119 54.1957 123.187 54.9782C124.139 55.6755 125.332 56.0596 126.546 56.0596C127.969 56.0596 129.287 55.5326 130.163 54.6136C130.92 53.8198 131.285 52.8026 131.192 51.7493C131.087 50.578 130.415 49.4572 129.346 48.6747C128.394 47.9775 127.201 47.5934 125.987 47.5934Z" fill="#161616"/>
<path d="M127.882 55.9593C126.432 55.9593 124.958 55.4643 123.731 54.5652C122.333 53.5407 121.458 52.1323 121.33 50.7007C121.236 49.6351 121.578 48.635 122.293 47.8844C123.108 47.0294 124.33 46.5586 125.734 46.5586C127.184 46.5586 128.658 47.0536 129.885 47.9527C131.283 48.977 132.158 50.3853 132.286 51.8167C132.381 52.8823 132.039 53.8826 131.323 54.6334C130.508 55.4885 129.286 55.9593 127.882 55.9593ZM125.734 47.4108C124.566 47.4108 123.564 47.7876 122.912 48.4719C122.359 49.051 122.107 49.7957 122.181 50.6256C122.286 51.8133 123.035 52.9988 124.236 53.8785C125.318 54.6709 126.613 55.1075 127.882 55.1075C129.05 55.1075 130.052 54.7305 130.705 54.0462C131.257 53.4671 131.509 52.7223 131.435 51.8922C131.33 50.7046 130.58 49.5193 129.38 48.6398C128.298 47.8472 127.003 47.4108 125.734 47.4108Z" fill="#161616"/>
<path d="M125.354 62.6766H124.404C124.273 62.6766 124.148 62.6156 124.067 62.5115C123.986 62.4073 123.958 62.2717 123.991 62.1441L124.294 60.9749C124.352 60.7471 124.585 60.6102 124.813 60.6688C125.042 60.7276 125.179 60.9599 125.12 61.1877L124.955 61.8245H125.354C125.589 61.8245 125.78 62.0152 125.78 62.2506C125.78 62.4859 125.589 62.6766 125.354 62.6766Z" fill="#161616"/>
<path d="M126.828 63.3403C126.897 63.7167 128.678 63.2832 128.922 62.6033C129.166 61.9233 127.972 61.3748 127.459 61.5812C126.946 61.7872 126.658 62.4168 126.828 63.3403Z" fill="#161616"/>
<path d="M59.5873 106.082C59.7968 106.656 59.5001 107.291 58.9251 107.5C58.3498 107.708 57.7139 107.412 57.5046 106.838L39.6318 57.8077C39.422 57.2339 39.7187 56.599 40.2937 56.3902C40.8688 56.1813 41.5051 56.4773 41.714 57.0514L59.5873 106.082Z" fill="#DEE5DC"/>
<path d="M58.5463 107.993C57.9034 107.993 57.3235 107.588 57.1036 106.984L39.2309 57.9536C39.0905 57.5697 39.1083 57.1537 39.2816 56.7827C39.4548 56.4116 39.7625 56.1301 40.1479 55.99C40.3171 55.9285 40.4938 55.8975 40.6727 55.8975C41.316 55.8975 41.8955 56.3029 42.1152 56.9061L59.9883 105.937C60.1285 106.321 60.1104 106.737 59.9371 107.108C59.7637 107.479 59.4562 107.76 59.0709 107.9C58.9016 107.962 58.7252 107.993 58.5463 107.993ZM40.6727 56.7495C40.5935 56.7495 40.5151 56.7635 40.4397 56.7907C40.2686 56.8529 40.1321 56.9778 40.0552 57.1425C39.9786 57.3069 39.9706 57.4913 40.0329 57.6617L57.9056 106.693C58.0033 106.961 58.2609 107.141 58.5463 107.141C58.6255 107.141 58.7039 107.127 58.7793 107.1C58.9501 107.038 59.0866 106.913 59.1635 106.748C59.2404 106.583 59.2485 106.399 59.1862 106.228L41.3131 57.1973C41.2156 56.9293 40.9583 56.7495 40.6727 56.7495Z" fill="#161616"/>
<path d="M42.1112 66.0906L45.0731 64.9125C45.0731 64.9125 42.4926 50.474 38.2846 50.8601C34.0762 51.2463 42.1112 66.0906 42.1112 66.0906Z" fill="#946D42"/>
<path d="M58.1111 102.302C58.1111 102.302 60.8403 107.427 64.4005 106.885C67.6588 106.387 72.348 121.138 72.348 121.138C72.348 121.138 71.5908 123.375 70.8723 121.674C70.1541 119.973 66.2552 111.363 65.0474 111.554C63.8396 111.745 68.1566 122.58 68.1566 122.58C68.1566 122.58 68.0466 125.514 66.7064 123.725C65.3661 121.935 62.3345 112.54 61.0009 112.926C59.6678 113.312 63.9428 124.806 63.9428 124.806C63.9428 124.806 63.6572 126.952 62.6341 125.763C61.6114 124.574 58.1741 113.528 56.5753 114.534C55.3848 115.282 59.0701 125.961 59.0701 125.961C59.0701 125.961 59.2888 129.796 57.5931 126.492C56.8058 124.958 52.2178 115.634 53.0794 111.684C53.5207 109.659 57.6314 109.344 56.1154 103.027L58.1111 102.302Z" fill="white"/>
<path d="M58.6625 128.26C58.207 128.26 57.7872 127.804 57.2135 126.686C56.6499 125.588 51.7361 115.841 52.6626 111.593C52.829 110.829 53.3966 110.298 53.9975 109.736C55.1943 108.616 56.6834 107.222 55.7004 103.126C55.6499 102.916 55.7658 102.701 55.9695 102.627L57.9651 101.902C58.1648 101.829 58.388 101.914 58.4878 102.102C58.5114 102.146 60.87 106.499 63.8699 106.499C64.0253 106.499 64.182 106.487 64.336 106.464C64.4106 106.452 64.4872 106.446 64.5636 106.446C66.8752 106.446 69.2768 112.009 70.066 113.836C71.5966 117.381 72.7432 120.973 72.7544 121.009C72.7819 121.095 72.7811 121.188 72.7519 121.274C72.603 121.714 72.1788 122.738 71.458 122.738H71.4579C70.8583 122.738 70.5725 122.062 70.4788 121.84C68.2833 116.638 66.0483 112.835 65.2492 112.099C65.2532 113.373 66.8868 118.241 68.553 122.423C68.5748 122.478 68.5851 122.537 68.5829 122.596C68.5642 123.097 68.4277 124.729 67.4585 124.729C67.0949 124.73 66.7473 124.491 66.3644 123.98C65.8178 123.25 65.0723 121.484 64.209 119.44C63.3814 117.48 61.8782 113.92 61.1727 113.397C60.9542 114.507 62.5978 119.966 64.3428 124.658C64.3671 124.723 64.3749 124.794 64.3659 124.862C64.3131 125.258 64.0736 126.548 63.2006 126.548C63.2004 126.548 63.2004 126.548 63.2004 126.548C62.8952 126.548 62.6041 126.382 62.3103 126.041C61.9335 125.603 61.4089 124.333 60.514 122.126C59.8513 120.491 59.1004 118.639 58.3844 117.196C57.3881 115.188 56.9186 114.932 56.8152 114.9C56.5021 115.557 57.4127 119.85 59.4735 125.822C59.4863 125.859 59.494 125.898 59.4962 125.937C59.5242 126.428 59.5447 127.617 59.1326 128.052C59.0056 128.186 58.8385 128.26 58.6625 128.26ZM56.6148 103.299C57.5325 107.596 55.832 109.187 54.5812 110.357C54.0368 110.867 53.6066 111.269 53.4965 111.774C52.6185 115.8 57.7539 125.87 57.9731 126.297C58.2579 126.852 58.4561 127.136 58.5773 127.279C58.6379 127.002 58.6688 126.508 58.6473 126.042C58.509 125.638 57.6705 123.164 56.9654 120.642C55.3347 114.81 55.994 114.396 56.3481 114.173C56.4854 114.087 56.6354 114.043 56.7938 114.043C57.9608 114.043 59.1289 116.438 61.3055 121.806C61.9685 123.441 62.6541 125.132 62.9582 125.485C63.0804 125.627 63.1577 125.675 63.19 125.69C63.2981 125.599 63.4401 125.217 63.5043 124.85C62.55 122.277 59.7165 114.348 60.4526 112.888C60.5731 112.649 60.7527 112.554 60.8821 112.517C60.9475 112.498 61.0151 112.488 61.0836 112.488C62.0903 112.488 63.0958 114.608 64.996 119.109C65.8026 121.019 66.5643 122.823 67.0485 123.47C67.2552 123.746 67.3846 123.836 67.4387 123.865C67.5647 123.718 67.6945 123.171 67.726 122.651C67.5447 122.192 66.678 119.981 65.8852 117.685C64.0354 112.326 64.3737 111.733 64.5364 111.448C64.6353 111.274 64.7932 111.163 64.981 111.133C65.016 111.128 65.0515 111.125 65.0883 111.125C65.6401 111.125 66.4433 111.689 68.5631 115.786C69.8361 118.246 70.9694 120.806 71.266 121.508C71.3558 121.721 71.4283 121.82 71.4686 121.864C71.5878 121.764 71.7728 121.446 71.8976 121.129C70.165 115.721 66.6852 107.298 64.5642 107.298C64.531 107.298 64.4977 107.301 64.4656 107.306C64.2691 107.336 64.069 107.351 63.8706 107.351C60.8522 107.351 58.5693 103.918 57.9192 102.825L56.6148 103.299Z" fill="#161616"/>
<path d="M41.4346 125.138L43.3152 124.301C43.3152 124.301 44.7623 127.388 45.3407 128.036C45.9194 128.683 51.605 134.314 46.5159 135.474C46.5159 135.474 44.8763 135.846 43.6877 132.312C42.499 128.778 41.4346 125.138 41.4346 125.138Z" fill="#161616"/>
<path d="M43.4473 124.58L43.2928 124.276L41.7322 121.21C41.7322 121.21 35.7985 118.347 37.0595 114.489C38.3206 110.632 43.8922 107.307 48.6621 109.946C48.6621 109.946 42.3628 102.875 35.4775 110.76C28.664 118.563 40.0588 123.845 40.0588 123.845C40.0588 123.845 41.0718 123.922 41.4346 125.138L43.4473 124.58Z" fill="#DEE5DC"/>
<path d="M41.4344 125.564C41.2502 125.564 41.0806 125.444 41.0253 125.26C40.7496 124.335 40.0335 124.27 40.0261 124.27C39.9751 124.266 39.9252 124.252 39.879 124.231C39.6379 124.119 33.9647 121.443 33.0122 116.972C32.5533 114.818 33.2744 112.633 35.1556 110.479C37.4007 107.908 39.8325 106.604 42.384 106.604C46.0312 106.604 48.6151 109.266 48.9482 109.626C49.0366 109.704 49.0923 109.818 49.0923 109.945C49.0923 110.18 48.9021 110.371 48.667 110.371C48.5944 110.374 48.5219 110.355 48.4553 110.318C47.3848 109.726 46.229 109.426 45.0199 109.426C41.3541 109.426 38.3002 112.067 37.4654 114.621C36.3351 118.078 41.8623 120.799 41.9182 120.826C42.002 120.866 42.0706 120.933 42.1128 121.016L43.8281 124.387C43.886 124.501 43.8896 124.635 43.8382 124.752C43.7865 124.868 43.6852 124.956 43.5618 124.99L41.5489 125.548C41.5105 125.559 41.4722 125.564 41.4344 125.564ZM40.1849 123.432C40.4587 123.48 41.2546 123.694 41.6943 124.624L42.831 124.309L41.4154 121.527C40.4963 121.056 35.3871 118.232 36.6538 114.357C37.714 111.114 41.3886 108.574 45.0199 108.574C45.4997 108.574 45.9719 108.616 46.4349 108.699C45.3954 108.057 43.9928 107.457 42.384 107.457C40.0903 107.457 37.875 108.662 35.7992 111.039C34.1046 112.98 33.4478 114.915 33.8466 116.792C34.6625 120.629 39.6106 123.152 40.1849 123.432Z" fill="#161616"/>
<path d="M155.869 100.087C155.869 100.087 155.328 100.971 156.559 101.152L155.252 109.705C155.252 109.705 154.559 112.536 156.951 112.553C159.344 112.571 170.957 112.822 170.957 112.822L172.591 95.5186L156.806 95.7508L155.869 100.087Z" fill="#F7F9F7"/>
<path d="M176.537 110.857L173.671 95.5775L172.591 95.5186L171.462 107.483L171.297 113.356L176.537 110.857Z" fill="#F7F9F7"/>
<path d="M170.957 113.288C170.954 113.288 170.951 113.288 170.948 113.288C170.832 113.288 159.31 113.016 156.948 112.999C156.186 112.994 155.604 112.73 155.218 112.236C154.486 111.299 154.788 109.828 154.833 109.629L156.078 101.475C155.756 101.361 155.533 101.173 155.413 100.918C155.221 100.509 155.385 100.096 155.467 99.9331L156.391 96.1615C156.447 95.933 156.678 95.7929 156.907 95.8486C157.136 95.9045 157.276 96.1351 157.22 96.3636L156.284 100.188C156.273 100.23 156.256 100.271 156.233 100.309C156.198 100.37 156.158 100.498 156.187 100.556C156.213 100.611 156.343 100.689 156.621 100.73C156.733 100.747 156.834 100.807 156.902 100.898C156.969 100.989 156.998 101.104 156.981 101.216L155.674 109.769C155.672 109.781 155.67 109.793 155.667 109.806C155.585 110.148 155.464 111.157 155.892 111.704C156.113 111.985 156.46 112.124 156.954 112.127C159.072 112.142 168.51 112.343 170.569 112.388L172.166 95.4783C172.188 95.2505 172.384 95.0765 172.615 95.0929L173.694 95.152C173.891 95.1626 174.054 95.3059 174.09 95.4989L176.956 110.778C176.993 110.976 176.886 111.173 176.699 111.25L172.541 112.963C172.323 113.053 172.074 112.949 171.984 112.732C171.894 112.514 171.998 112.265 172.215 112.176L176.053 110.595L173.313 95.9846L172.977 95.9664L171.381 112.882C171.361 113.101 171.177 113.288 170.957 113.288Z" fill="#161616"/>
<path d="M176.537 111.284C176.495 111.284 176.452 111.277 176.41 111.264L171.17 109.634C170.945 109.563 170.819 109.325 170.889 109.1C170.959 108.875 171.199 108.75 171.424 108.82L176.664 110.451C176.889 110.521 177.014 110.76 176.944 110.984C176.887 111.167 176.719 111.284 176.537 111.284Z" fill="#161616"/>
<path d="M154.241 95.9062C154.097 95.9062 153.962 95.8512 153.884 95.7305C153.805 95.6099 153.792 95.4662 153.851 95.3345L156.013 90.4473C156.081 90.2918 156.243 90.1953 156.406 90.1953L172.971 90.3248C173.097 90.3258 173.217 90.3838 173.298 90.4816C173.378 90.5796 173.41 90.7082 173.386 90.8325L172.47 95.5702C172.431 95.7704 172.256 95.8979 172.051 95.8982L154.242 95.9062C154.241 95.9062 154.241 95.9062 154.241 95.9062ZM156.68 91.0518L154.896 95.0882L171.698 95.064L172.451 91.1741L156.68 91.0518Z" fill="#161616"/>
<path d="M172.648 95.522L173.671 95.5779L172.967 90.752L172.648 95.522Z" fill="#161616"/>
<path d="M173.671 96.0041C173.663 96.0041 173.655 96.0039 173.648 96.0034L172.625 95.9475C172.511 95.9414 172.404 95.8897 172.329 95.8045C172.253 95.7193 172.215 95.6074 172.223 95.4939L172.541 90.7238C172.556 90.5064 172.732 90.3349 172.95 90.3264C173.172 90.3193 173.358 90.4752 173.389 90.6907L174.093 95.5167C174.112 95.6431 174.072 95.7711 173.986 95.8655C173.905 95.954 173.79 96.0041 173.671 96.0041ZM173.103 95.1205L173.174 95.1243L173.125 94.7913L173.103 95.1205Z" fill="#161616"/>
<path d="M162.85 108.915C162.83 108.915 162.81 108.913 162.79 108.91C162.561 108.878 162.4 108.67 162.426 108.441C162.431 108.394 162.932 103.7 161.279 101.642C161.131 101.458 161.161 101.19 161.345 101.043C161.529 100.896 161.797 100.925 161.945 101.109C162.888 102.283 163.225 104.104 163.323 105.649C163.861 104.526 164.68 103.412 165.885 103.064C166.112 102.998 166.348 103.129 166.414 103.355C166.479 103.581 166.349 103.817 166.122 103.883C165.048 104.193 164.335 105.419 163.926 106.392C163.459 107.503 163.272 108.552 163.27 108.562C163.234 108.768 163.054 108.915 162.85 108.915Z" fill="#946D42"/>
<path d="M158.888 97.7637C158.888 97.7637 158.941 105.479 162.399 103.036C164.882 101.283 160.501 98.0723 158.888 97.7637Z" fill="#946D42"/>
<path d="M164.882 104.03C164.866 104.096 167.71 105.711 168.715 102.007C168.715 102.007 165.764 100.344 164.882 104.03Z" fill="#946D42"/>
<path d="M155.57 94.2026H155.058C154.822 94.2026 154.631 94.0119 154.631 93.7766C154.631 93.5413 154.822 93.3506 155.058 93.3506H155.57C155.806 93.3506 155.997 93.5413 155.997 93.7766C155.997 94.0119 155.806 94.2026 155.57 94.2026Z" fill="#161616"/>
<path d="M170.081 94.2026H168.886C168.65 94.2026 168.459 94.0119 168.459 93.7766C168.459 93.5413 168.65 93.3506 168.886 93.3506H170.081C170.316 93.3506 170.507 93.5413 170.507 93.7766C170.507 94.0119 170.316 94.2026 170.081 94.2026ZM167.179 94.2026H165.984C165.748 94.2026 165.557 94.0119 165.557 93.7766C165.557 93.5413 165.748 93.3506 165.984 93.3506H167.179C167.414 93.3506 167.605 93.5413 167.605 93.7766C167.605 94.0119 167.414 94.2026 167.179 94.2026ZM164.276 94.2026H163.081C162.846 94.2026 162.655 94.0119 162.655 93.7766C162.655 93.5413 162.846 93.3506 163.081 93.3506H164.276C164.512 93.3506 164.703 93.5413 164.703 93.7766C164.703 94.0119 164.512 94.2026 164.276 94.2026ZM161.374 94.2026H160.179C159.944 94.2026 159.752 94.0119 159.752 93.7766C159.752 93.5413 159.944 93.3506 160.179 93.3506H161.374C161.61 93.3506 161.801 93.5413 161.801 93.7766C161.801 94.0119 161.61 94.2026 161.374 94.2026ZM158.472 94.2026H157.277C157.041 94.2026 156.85 94.0119 156.85 93.7766C156.85 93.5413 157.041 93.3506 157.277 93.3506H158.472C158.708 93.3506 158.899 93.5413 158.899 93.7766C158.899 94.0119 158.708 94.2026 158.472 94.2026Z" fill="#161616"/>
<path d="M172.471 94.2026H171.788C171.552 94.2026 171.361 94.0119 171.361 93.7766C171.361 93.5413 171.552 93.3506 171.788 93.3506H172.471C172.706 93.3506 172.898 93.5413 172.898 93.7766C172.898 94.0119 172.706 94.2026 172.471 94.2026Z" fill="#161616"/>
<path d="M169.083 65.3827L165.061 78.6944C165.061 78.6944 163.458 83.0891 167.412 83.8626C171.367 84.6361 178.647 85.316 183.463 83.6097C183.463 83.6097 186.092 82.9318 185.168 78.5924C184.245 74.2527 182.857 65.702 182.857 65.702C182.857 65.702 181.178 61.9176 175.659 61.7284C170.14 61.5394 169.083 65.3827 169.083 65.3827Z" fill="#946D42"/>
<path d="M176.84 67.0821C172.708 67.0821 169.29 65.7764 169.085 65.6968C168.866 65.6113 168.757 65.3644 168.843 65.1452C168.929 64.9259 169.177 64.818 169.396 64.9031C169.465 64.93 176.383 67.5671 182.24 65.2938C182.461 65.2084 182.707 65.3173 182.793 65.5365C182.878 65.7556 182.769 66.0026 182.55 66.0879C180.652 66.8246 178.675 67.0821 176.84 67.0821Z" fill="#161616"/>
<path d="M178.658 62.9526C178.618 62.9526 178.577 62.947 178.537 62.935C178.311 62.8684 178.181 62.6314 178.248 62.4057C178.251 62.3967 178.543 61.355 178.022 60.5945C177.687 60.1047 177.07 59.8152 176.187 59.7337C175.233 59.6465 174.535 59.8174 174.115 60.2436C173.571 60.7951 173.644 61.6324 173.645 61.6408C173.67 61.8748 173.501 62.0847 173.267 62.1099C173.033 62.1372 172.822 61.9659 172.797 61.7321C172.791 61.6819 172.673 60.4905 173.507 59.6456C174.115 59.0284 175.045 58.7725 176.265 58.8853C177.417 58.9914 178.247 59.4071 178.732 60.1207C179.477 61.2185 179.084 62.5891 179.067 62.647C179.012 62.8326 178.842 62.9526 178.658 62.9526Z" fill="#161616"/>
<path d="M185.169 79.0178C185.051 79.0178 184.933 78.9693 184.849 78.874C184.693 78.6978 184.71 78.4286 184.886 78.2726L190.349 73.4513C190.368 73.4339 190.39 73.4184 190.412 73.4049C190.471 73.3693 191.876 72.4936 191.535 70.8883C191.215 69.3753 189.409 69.6883 189.333 69.7021C189.304 69.7074 189.273 69.7095 189.246 69.7091L183.443 69.5747C183.207 69.5692 183.021 69.3741 183.026 69.1388C183.032 68.9036 183.225 68.7167 183.463 68.7228L189.224 68.8564C190.169 68.6988 191.984 68.8891 192.371 70.7121C192.739 72.4486 191.581 73.6818 190.887 74.1145L185.452 78.9112C185.37 78.9827 185.269 79.0178 185.169 79.0178Z" fill="#161616"/>
<path d="M185.58 76.5509C185.461 76.5509 185.342 76.5015 185.258 76.4051C185.103 76.2278 185.121 75.9586 185.299 75.804L188.346 73.1504C188.364 73.1346 188.383 73.1203 188.404 73.1077C188.43 73.0913 189.101 72.6598 188.941 71.9046C188.804 71.2598 188.022 71.3622 187.933 71.3761C187.908 71.3801 187.88 71.3816 187.855 71.3816L184.598 71.3061C184.362 71.3007 184.176 71.1055 184.182 70.8702C184.187 70.635 184.385 70.4483 184.618 70.4542L187.838 70.5289C188.426 70.4452 189.535 70.5924 189.776 71.7282C190.038 72.9627 189.089 73.675 188.885 73.812L185.86 76.4461C185.779 76.5163 185.679 76.5509 185.58 76.5509Z" fill="#161616"/>
<path d="M165.061 79.1197C164.898 79.1197 164.742 79.0256 164.671 78.8673L158.84 65.8297C158.754 65.6372 158.822 65.4105 159 65.297L160.455 64.3697C160.617 64.2668 160.827 64.284 160.969 64.4113L167.372 70.1331C167.547 70.29 167.562 70.5592 167.405 70.7346C167.248 70.9099 166.978 70.9246 166.802 70.7678L160.641 65.2618L159.769 65.8176L165.451 78.52C165.547 78.7349 165.45 78.9868 165.235 79.0827C165.178 79.1078 165.119 79.1197 165.061 79.1197Z" fill="#161616"/>
<path d="M155.315 65.5616C154.753 65.5616 154.476 65.3329 154.343 65.1412C154.121 64.8218 154.022 64.2257 154.811 63.2004C155.33 62.5252 156.129 61.7984 157.06 61.1541C158.451 60.1922 159.877 59.5947 160.782 59.5947C161.344 59.5947 161.621 59.8232 161.754 60.015C162.433 60.9936 160.822 62.7679 159.037 64.0023C157.646 64.9641 156.22 65.5616 155.315 65.5616ZM160.782 60.4468C160.184 60.4468 158.952 60.8822 157.546 61.8545C156.686 62.4499 155.955 63.112 155.488 63.7189C155.013 64.3367 155.023 64.6247 155.044 64.6558C155.052 64.6666 155.123 64.7095 155.315 64.7095C155.912 64.7095 157.145 64.2743 158.551 63.3018C160.522 61.9383 161.181 60.6862 161.052 60.5001C161.045 60.4897 160.974 60.4468 160.782 60.4468Z" fill="#161616"/>
<path d="M157.407 66.5498C155.72 66.5498 154.708 65.3954 154.693 65.3782C154.54 65.1989 154.562 64.9302 154.741 64.7777C154.921 64.6252 155.19 64.6466 155.343 64.8261C155.409 64.9022 157.027 66.7065 159.653 64.8896C162.31 63.0511 161.077 60.557 161.023 60.4517C160.916 60.2421 160.999 59.9856 161.209 59.8786C161.42 59.7718 161.676 59.8549 161.783 60.0645C162.356 61.1858 162.75 63.7835 160.139 65.59C159.106 66.3044 158.185 66.5496 157.407 66.5498Z" fill="#161616"/>
<path d="M182.395 77.8716C182.191 77.8716 182.011 77.7263 181.975 77.5196L180.359 68.3828C180.318 68.1512 180.473 67.9302 180.705 67.8893C180.936 67.8487 181.158 68.0029 181.199 68.2347L182.815 77.3715C182.856 77.6031 182.701 77.8241 182.469 77.865C182.444 77.8696 182.419 77.8716 182.395 77.8716Z" fill="#DEE5DC"/>
<path d="M183.168 81.337C182.971 81.337 182.793 81.1989 182.751 80.998L182.49 79.7484C182.441 79.518 182.589 79.2924 182.82 79.2442C183.051 79.197 183.277 79.3437 183.325 79.5741L183.587 80.8237C183.635 81.0541 183.487 81.2797 183.256 81.3279C183.227 81.3341 183.197 81.337 183.168 81.337Z" fill="#DEE5DC"/>
<path d="M197.69 151.998C197.497 151.998 197.327 151.869 197.278 151.681L188.56 118.862C188.527 118.737 188.553 118.603 188.63 118.499C188.708 118.395 188.829 118.332 188.959 118.327L212.972 117.519C213.17 117.509 213.348 117.644 213.399 117.836L222.049 150.469C222.082 150.594 222.057 150.727 221.98 150.831C221.903 150.935 221.784 150.998 221.654 151.004L197.708 151.998C197.702 151.998 197.696 151.998 197.69 151.998ZM189.523 119.161L198.015 151.132L221.088 150.174L212.661 118.382L189.523 119.161Z" fill="#161616"/>
<path d="M194.322 159.098C194.128 159.098 193.958 158.968 193.909 158.78L186.628 130.89C186.613 130.833 186.61 130.773 186.619 130.715L188.551 118.793C188.589 118.561 188.808 118.402 189.041 118.44C189.273 118.478 189.432 118.697 189.394 118.929L187.476 130.762L194.648 158.234L217.781 157.392L221.254 150.389C221.358 150.179 221.614 150.092 221.826 150.197C222.037 150.301 222.123 150.556 222.019 150.767L218.434 157.998C218.364 158.138 218.224 158.228 218.067 158.234L194.338 159.098C194.332 159.098 194.327 159.098 194.322 159.098Z" fill="#161616"/>
<path d="M194.321 159.099C194.26 159.099 194.198 159.085 194.139 159.057C193.926 158.957 193.835 158.703 193.936 158.49L197.304 151.39C197.405 151.177 197.659 151.087 197.873 151.188C198.086 151.288 198.177 151.542 198.076 151.755L194.708 158.855C194.635 159.009 194.481 159.099 194.321 159.099Z" fill="#161616"/>
<path d="M197.622 128.636C200.294 128.636 202.459 126.83 202.459 124.603C202.459 122.376 200.294 120.57 197.622 120.57C194.951 120.57 192.785 122.376 192.785 124.603C192.785 126.83 194.951 128.636 197.622 128.636Z" fill="#161616"/>
<path d="M208.719 128.636C211.39 128.636 213.556 126.83 213.556 124.603C213.556 122.376 211.39 120.57 208.719 120.57C206.047 120.57 203.882 122.376 203.882 124.603C203.882 126.83 206.047 128.636 208.719 128.636Z" fill="#161616"/>
<path d="M200.354 138.009C203.025 138.009 205.191 136.204 205.191 133.976C205.191 131.749 203.025 129.943 200.354 129.943C197.682 129.943 195.517 131.749 195.517 133.976C195.517 136.204 197.682 138.009 200.354 138.009Z" fill="#161616"/>
<path d="M211.45 138.009C214.121 138.009 216.287 136.204 216.287 133.976C216.287 131.749 214.121 129.943 211.45 129.943C208.779 129.943 206.613 131.749 206.613 133.976C206.613 136.204 208.779 138.009 211.45 138.009Z" fill="#161616"/>
<path d="M202.402 148.063C205.074 148.063 207.239 146.257 207.239 144.03C207.239 141.803 205.074 139.997 202.402 139.997C199.731 139.997 197.565 141.803 197.565 144.03C197.565 146.257 199.731 148.063 202.402 148.063Z" fill="#161616"/>
<path d="M213.499 148.063C216.17 148.063 218.336 146.257 218.336 144.03C218.336 141.803 216.17 139.997 213.499 139.997C210.827 139.997 208.662 141.803 208.662 144.03C208.662 146.257 210.827 148.063 213.499 148.063Z" fill="#161616"/>
<path d="M195.913 118.861C195.913 118.861 191.078 119.82 188.575 115.219C188.575 115.219 195.512 112.619 195.913 118.861Z" fill="#8DC73F"/>
<path d="M198.647 117.093C198.647 117.093 194.094 114.935 198.59 108.346C198.59 108.346 203.255 114.423 198.647 117.093Z" fill="#8DC73F"/>
<path d="M197.622 125.029C197.412 125.029 197.23 124.876 197.2 124.663C196.882 122.41 195.478 116.606 192.82 116.826C192.585 116.843 192.379 116.67 192.36 116.436C192.341 116.201 192.516 115.996 192.751 115.977C196.752 115.657 197.994 124.181 198.045 124.544C198.078 124.777 197.915 124.993 197.682 125.025C197.662 125.028 197.641 125.029 197.622 125.029Z" fill="#161616"/>
<path d="M198.646 125.045C198.412 125.045 198.221 124.848 198.22 124.613L198.163 111.632C198.162 111.396 198.352 111.242 198.588 111.242H198.59C198.825 111.242 199.015 111.389 199.016 111.624L199.073 124.63C199.074 124.866 198.884 125.045 198.648 125.045C198.648 125.045 198.647 125.045 198.646 125.045Z" fill="#161616"/>
<path d="M197.622 125.046C197.389 125.046 197.199 124.85 197.195 124.617C197.195 124.598 197.168 123.506 196.519 121.617C196.442 121.395 196.561 121.15 196.784 121.074C197.008 120.998 197.25 121.115 197.326 121.338C198.028 123.381 198.049 124.558 198.049 124.607C198.052 124.843 197.862 125.046 197.627 125.046C197.625 125.046 197.624 125.046 197.622 125.046Z" fill="#EAEFE8"/>
<path d="M198.646 125.045C198.414 125.045 198.224 124.851 198.22 124.619L198.163 121.525C198.159 121.29 198.346 121.126 198.582 121.126C198.585 121.126 198.587 121.126 198.59 121.126C198.822 121.126 199.012 121.273 199.016 121.506L199.073 124.623C199.077 124.858 198.89 125.045 198.654 125.045C198.652 125.045 198.649 125.045 198.646 125.045Z" fill="#EAEFE8"/>
<path d="M207.351 118.861C207.351 118.861 202.516 119.82 200.013 115.219C200.013 115.219 206.95 112.619 207.351 118.861Z" fill="#8DC73F"/>
<path d="M210.085 117.093C210.085 117.093 205.532 114.935 210.028 108.346C210.028 108.346 214.693 114.423 210.085 117.093Z" fill="#8DC73F"/>
<path d="M209.06 125.03C208.85 125.03 208.667 124.876 208.637 124.663C208.32 122.41 206.91 116.606 204.258 116.826C204.022 116.843 203.817 116.671 203.798 116.436C203.779 116.201 203.954 115.996 204.189 115.977C204.263 115.971 204.337 115.968 204.409 115.968C208.232 115.968 209.433 124.188 209.483 124.545C209.516 124.778 209.353 124.993 209.119 125.026C209.099 125.028 209.079 125.03 209.06 125.03Z" fill="#161616"/>
<path d="M210.084 125.045C209.85 125.045 209.659 124.848 209.658 124.613L209.601 111.632C209.6 111.396 209.79 111.242 210.026 111.242H210.028C210.263 111.242 210.453 111.389 210.454 111.624L210.511 124.63C210.512 124.866 210.322 125.045 210.086 125.045C210.086 125.045 210.085 125.045 210.084 125.045Z" fill="#161616"/>
<path d="M209.06 125.046C208.827 125.046 208.637 124.85 208.633 124.617C208.633 124.598 208.606 123.506 207.957 121.617C207.88 121.395 207.999 121.15 208.222 121.074C208.446 120.998 208.688 121.115 208.764 121.338C209.466 123.381 209.486 124.558 209.487 124.607C209.49 124.843 209.3 125.046 209.065 125.046C209.063 125.046 209.062 125.046 209.06 125.046Z" fill="#EAEFE8"/>
<path d="M210.084 125.045C209.852 125.045 209.662 124.851 209.658 124.619L209.601 121.525C209.597 121.29 209.784 121.126 210.02 121.126C210.023 121.126 210.025 121.126 210.028 121.126C210.26 121.126 210.45 121.273 210.454 121.506L210.511 124.623C210.515 124.858 210.328 125.045 210.092 125.045C210.09 125.045 210.087 125.045 210.084 125.045Z" fill="#EAEFE8"/>
<path d="M197.962 129.255C197.962 129.255 193.127 130.214 190.623 125.613C190.623 125.613 197.561 123.013 197.962 129.255Z" fill="#8DC73F"/>
<path d="M200.695 127.488C200.695 127.488 196.143 125.329 200.638 118.74C200.638 118.74 205.304 124.818 200.695 127.488Z" fill="#8DC73F"/>
<path d="M199.67 135.424C199.461 135.424 199.278 135.27 199.248 135.058C198.931 132.805 197.521 127.002 194.869 127.221C194.634 127.237 194.428 127.065 194.409 126.83C194.39 126.596 194.565 126.39 194.8 126.371C198.804 126.047 200.043 134.576 200.094 134.939C200.126 135.172 199.964 135.387 199.73 135.42C199.71 135.423 199.69 135.424 199.67 135.424Z" fill="#161616"/>
<path d="M200.695 135.44C200.46 135.44 200.269 135.242 200.268 135.007L200.211 122.026C200.21 121.791 200.401 121.637 200.636 121.637H200.638C200.873 121.637 201.064 121.784 201.065 122.018L201.122 135.025C201.123 135.26 200.933 135.44 200.697 135.44C200.697 135.44 200.696 135.44 200.695 135.44Z" fill="#161616"/>
<path d="M199.671 135.44C199.437 135.44 199.247 135.245 199.244 135.011C199.244 134.992 199.216 133.9 198.567 132.012C198.491 131.789 198.61 131.545 198.833 131.468C199.056 131.393 199.298 131.51 199.375 131.732C200.077 133.775 200.097 134.953 200.098 135.002C200.1 135.237 199.911 135.44 199.675 135.44C199.674 135.44 199.672 135.44 199.671 135.44Z" fill="#EAEFE8"/>
<path d="M200.695 135.44C200.463 135.44 200.273 135.246 200.268 135.013L200.211 131.92C200.207 131.685 200.395 131.521 200.631 131.521C200.633 131.521 200.636 131.521 200.638 131.521C200.87 131.521 201.061 131.668 201.065 131.9L201.122 135.017C201.126 135.253 200.939 135.44 200.703 135.44C200.7 135.44 200.698 135.44 200.695 135.44Z" fill="#EAEFE8"/>
<path d="M209.4 129.255C209.4 129.255 204.565 130.214 202.061 125.613C202.061 125.613 208.999 123.013 209.4 129.255Z" fill="#8DC73F"/>
<path d="M212.133 127.488C212.133 127.488 207.58 125.329 212.076 118.74C212.076 118.74 216.742 124.818 212.133 127.488Z" fill="#8DC73F"/>
<path d="M211.108 135.424C210.899 135.424 210.716 135.27 210.686 135.058C210.368 132.805 208.962 127.002 206.306 127.221C206.071 127.237 205.865 127.065 205.846 126.83C205.827 126.596 206.002 126.39 206.237 126.371C210.239 126.047 211.48 134.576 211.531 134.939C211.564 135.172 211.401 135.387 211.168 135.42C211.148 135.423 211.128 135.424 211.108 135.424Z" fill="#161616"/>
<path d="M212.133 135.44C211.898 135.44 211.707 135.242 211.706 135.007L211.649 122.026C211.648 121.791 211.839 121.637 212.074 121.637H212.076C212.311 121.637 212.502 121.784 212.503 122.018L212.56 135.025C212.561 135.26 212.371 135.44 212.135 135.44C212.135 135.44 212.134 135.44 212.133 135.44Z" fill="#161616"/>
<path d="M211.109 135.44C210.875 135.44 210.685 135.245 210.682 135.011C210.682 134.992 210.654 133.9 210.005 132.012C209.929 131.789 210.048 131.545 210.271 131.468C210.494 131.393 210.736 131.51 210.813 131.732C211.515 133.775 211.535 134.953 211.536 135.002C211.538 135.237 211.349 135.44 211.113 135.44C211.112 135.44 211.11 135.44 211.109 135.44Z" fill="#EAEFE8"/>
<path d="M212.133 135.44C211.901 135.44 211.711 135.246 211.706 135.013L211.649 131.92C211.645 131.685 211.833 131.521 212.069 131.521C212.071 131.521 212.074 131.521 212.076 131.521C212.308 131.521 212.499 131.668 212.503 131.9L212.56 135.017C212.564 135.253 212.377 135.44 212.141 135.44C212.138 135.44 212.136 135.44 212.133 135.44Z" fill="#EAEFE8"/>
<path d="M200.522 138.969C200.522 138.969 195.688 139.928 193.184 135.327C193.184 135.327 200.122 132.727 200.522 138.969Z" fill="#8DC73F"/>
<path d="M203.256 137.202C203.256 137.202 198.703 135.043 203.199 128.454C203.199 128.454 207.865 134.532 203.256 137.202Z" fill="#8DC73F"/>
<path d="M202.231 145.138C202.022 145.138 201.839 144.984 201.809 144.771C201.491 142.519 200.085 136.714 197.429 136.935C197.196 136.951 196.989 136.779 196.969 136.544C196.95 136.31 197.125 136.104 197.36 136.085C197.435 136.079 197.508 136.076 197.581 136.076C201.404 136.076 202.604 144.296 202.654 144.653C202.687 144.886 202.524 145.101 202.291 145.134C202.271 145.137 202.251 145.138 202.231 145.138Z" fill="#161616"/>
<path d="M203.256 145.155C203.021 145.155 202.83 144.957 202.829 144.722L202.772 131.741C202.771 131.506 202.961 131.352 203.197 131.352H203.199C203.434 131.352 203.625 131.498 203.626 131.733L203.683 144.74C203.684 144.975 203.493 145.155 203.258 145.155C203.258 145.155 203.257 145.155 203.256 145.155Z" fill="#161616"/>
<path d="M202.231 145.154C201.998 145.154 201.808 144.959 201.805 144.725C201.804 144.706 201.777 143.614 201.128 141.725C201.052 141.503 201.17 141.259 201.394 141.182C201.617 141.106 201.859 141.224 201.936 141.446C202.637 143.489 202.658 144.667 202.658 144.716C202.661 144.951 202.472 145.154 202.236 145.154C202.235 145.154 202.233 145.154 202.231 145.154Z" fill="#EAEFE8"/>
<path d="M203.256 145.154C203.024 145.154 202.833 144.96 202.829 144.727L202.772 141.633C202.768 141.398 202.956 141.234 203.191 141.234C203.194 141.234 203.197 141.234 203.199 141.234C203.431 141.234 203.622 141.381 203.626 141.614L203.683 144.731C203.687 144.966 203.499 145.154 203.264 145.154C203.261 145.154 203.258 145.154 203.256 145.154Z" fill="#EAEFE8"/>
<path d="M211.96 138.969C211.96 138.969 207.126 139.928 204.622 135.327C204.622 135.327 211.559 132.727 211.96 138.969Z" fill="#8DC73F"/>
<path d="M214.694 137.202C214.694 137.202 210.141 135.043 214.637 128.454C214.637 128.454 219.303 134.532 214.694 137.202Z" fill="#8DC73F"/>
<path d="M213.669 145.138C213.459 145.138 213.277 144.984 213.247 144.771C212.929 142.519 211.518 136.714 208.867 136.934C208.634 136.951 208.426 136.779 208.407 136.544C208.388 136.31 208.563 136.104 208.798 136.085C212.803 135.765 214.041 144.289 214.092 144.653C214.125 144.886 213.962 145.101 213.729 145.134C213.709 145.137 213.689 145.138 213.669 145.138Z" fill="#161616"/>
<path d="M214.694 145.154C214.459 145.154 214.268 144.956 214.267 144.722L214.21 131.698C214.209 131.462 214.399 131.268 214.635 131.268C214.878 131.264 215.063 131.456 215.064 131.691L215.12 144.718C215.121 144.954 214.931 145.154 214.695 145.154C214.695 145.154 214.694 145.154 214.694 145.154Z" fill="#161616"/>
<path d="M213.669 145.154C213.436 145.154 213.246 144.959 213.243 144.725C213.242 144.706 213.215 143.614 212.566 141.725C212.49 141.503 212.608 141.259 212.831 141.182C213.055 141.106 213.297 141.224 213.373 141.446C214.075 143.489 214.096 144.667 214.096 144.716C214.099 144.951 213.91 145.154 213.674 145.154C213.672 145.154 213.671 145.154 213.669 145.154Z" fill="#EAEFE8"/>
<path d="M214.693 145.154C214.461 145.154 214.271 144.96 214.267 144.727L214.21 141.633C214.206 141.398 214.393 141.234 214.629 141.234C214.632 141.234 214.634 141.234 214.637 141.234C214.869 141.234 215.059 141.381 215.064 141.614L215.12 144.731C215.125 144.966 214.937 145.154 214.701 145.154C214.699 145.154 214.696 145.154 214.693 145.154Z" fill="#EAEFE8"/>
<path d="M83.9268 109.993L80.2275 112.152C80.2275 112.152 79.3744 113.401 79.1468 114.651C78.9193 115.901 78.1226 119.271 78.1226 119.271L81.0247 122.49L95.763 121.467C95.763 121.467 99.7748 116.647 99.2484 113.49L87.9101 114.424L83.9268 109.993Z" fill="white"/>
<path d="M81.0247 122.916C80.9042 122.916 80.7886 122.865 80.7075 122.775L77.8053 119.556C77.7118 119.452 77.6751 119.309 77.7072 119.173C77.7152 119.14 78.5041 115.8 78.727 114.575C78.9681 113.251 79.838 111.966 79.8751 111.912C79.9108 111.86 79.9575 111.816 80.0123 111.784L83.7117 109.626C83.8867 109.523 84.1095 109.558 84.2447 109.709L88.0864 113.982L99.2138 113.066C99.4335 113.046 99.6332 113.202 99.6698 113.421C100.222 116.732 96.2604 121.537 96.0916 121.74C96.017 121.829 95.9093 121.884 95.7928 121.892L81.0546 122.915C81.0443 122.916 81.0346 122.916 81.0247 122.916ZM78.5889 119.152L81.2027 122.051L95.5473 121.055C96.1525 120.293 98.978 116.583 98.8671 113.95L87.9449 114.849C87.8124 114.86 87.6813 114.808 87.5924 114.709L83.8415 110.537L80.5298 112.469C80.3502 112.75 79.744 113.753 79.5666 114.728C79.3708 115.804 78.7702 118.38 78.5889 119.152Z" fill="#161616"/>
<path d="M92.1211 79.0656L96.3321 75.3579C96.3321 75.3579 96.9009 73.1511 94.2265 73.452L90.1864 77.4297L82.4623 110.448C82.4623 110.448 81.5366 113.212 83.4715 113.477C85.4064 113.742 85.065 109.993 85.065 109.993L92.1211 79.0656Z" fill="#DEE5DC"/>
<path d="M83.6621 113.917C83.5812 113.917 83.4975 113.911 83.4135 113.899C82.8474 113.822 82.4049 113.55 82.1337 113.115C81.5118 112.116 81.9684 110.586 82.051 110.333L89.7709 77.3332C89.7892 77.2548 89.8295 77.1832 89.8868 77.1268L93.927 73.1491C93.9951 73.082 94.0838 73.0397 94.1789 73.029C95.2408 72.9092 95.9999 73.1381 96.4373 73.7013C97.0034 74.4301 96.7564 75.4224 96.7456 75.4643C96.7244 75.5468 96.6787 75.6212 96.6145 75.6776L92.5068 79.2944L85.4959 110.024C85.5304 110.478 85.6296 112.491 84.7739 113.426C84.48 113.747 84.0955 113.917 83.6621 113.917ZM90.5741 77.6469L82.878 110.545C82.8749 110.558 82.8713 110.57 82.8672 110.583C82.7411 110.963 82.4935 112.08 82.8595 112.666C82.9961 112.885 83.2153 113.012 83.5298 113.055C83.5757 113.062 83.6201 113.065 83.6621 113.065H83.6622C83.8575 113.065 84.0103 112.997 84.1437 112.852C84.7027 112.24 84.6889 110.569 84.6401 110.032C84.636 109.988 84.6389 109.943 84.649 109.899L91.7051 78.9715C91.7249 78.8844 91.7719 78.8057 91.8389 78.7465L95.9395 75.1361C95.9673 74.9343 95.99 74.5131 95.7604 74.2205C95.5339 73.932 95.08 73.8098 94.4186 73.8619L90.5741 77.6469Z" fill="#161616"/>
<path d="M95.7634 121.894C95.7489 121.894 95.734 121.893 95.7192 121.892L83.6555 120.654C83.5379 120.642 83.4303 120.581 83.3588 120.487L81.9006 118.562C81.841 118.484 81.8108 118.387 81.8145 118.289L82.031 112.806C82.0402 112.571 82.2362 112.391 82.4743 112.398C82.7099 112.407 82.8933 112.605 82.8839 112.84L82.6736 118.17L83.9278 119.826L95.8068 121.044C96.0412 121.068 96.2117 121.277 96.1876 121.511C96.1649 121.731 95.9795 121.894 95.7634 121.894Z" fill="#161616"/>
<path d="M73.5418 90.7089C73.306 90.7089 73.115 90.5183 73.115 90.2829V88.0676C73.115 87.8323 73.306 87.6416 73.5418 87.6416C73.7775 87.6416 73.9686 87.8323 73.9686 88.0676V90.2829C73.9686 90.5183 73.7775 90.7089 73.5418 90.7089Z" fill="#161616"/>
<path d="M72.0322 91.2889C71.8543 91.2889 71.6882 91.1772 71.6281 90.9996L71.0474 89.2895C70.9717 89.0666 71.0912 88.8248 71.3144 88.7494C71.5378 88.6735 71.7801 88.7932 71.8555 89.0159L72.4363 90.7259C72.5119 90.9488 72.3924 91.1906 72.1693 91.2661C72.1239 91.2816 72.0776 91.2889 72.0322 91.2889Z" fill="#161616"/>
<path d="M69.964 91.2881C69.8631 91.2881 69.7617 91.2525 69.6804 91.1803L68.7179 90.3252C68.5419 90.1687 68.5262 89.8995 68.6829 89.7238C68.8393 89.5481 69.1092 89.5324 69.2854 89.6889L70.2479 90.544C70.4239 90.7004 70.4396 90.9696 70.2829 91.1453C70.1987 91.2399 70.0814 91.2881 69.964 91.2881Z" fill="#161616"/>
<path d="M209.764 81.6382C209.73 81.6382 209.696 81.6343 209.661 81.6258C209.432 81.5694 209.293 81.3385 209.349 81.1101L209.863 79.0313C209.919 78.8028 210.15 78.6629 210.379 78.7197C210.608 78.7761 210.748 79.007 210.692 79.2353L210.178 81.3141C210.13 81.5084 209.956 81.6382 209.764 81.6382Z" fill="#161616"/>
<path d="M208.37 81.3898C208.182 81.3898 208.01 81.2651 207.958 81.0753L207.591 79.7239C207.53 79.4968 207.664 79.2628 207.892 79.2013C208.118 79.1403 208.354 79.2737 208.415 79.501L208.782 80.8524C208.844 81.0795 208.71 81.3135 208.482 81.375C208.445 81.3851 208.407 81.3898 208.37 81.3898Z" fill="#161616"/>
<path d="M29.4121 44.4758C29.4121 44.4758 89.8404 36.5465 103.54 37.5749C103.54 37.5749 60.9943 24.9492 29.4121 25.4604V44.4758Z" fill="#8DC73F"/>
<path d="M21.7294 46.7824C21.5206 46.7824 21.3383 46.6296 21.3074 46.4173C21.2738 46.1843 21.4356 45.9684 21.6688 45.9347C22.3493 45.8365 89.8977 36.1302 103.486 37.1503C103.721 37.168 103.897 37.3725 103.88 37.6072C103.862 37.8418 103.655 38.0158 103.422 38.0001C89.9233 36.9845 22.4706 46.68 21.7909 46.778C21.7702 46.7809 21.7497 46.7824 21.7294 46.7824Z" fill="#161616"/>
<path d="M25.3144 38.2177C25.1032 38.2177 24.9197 38.0613 24.8915 37.8465C24.8612 37.6133 25.0261 37.4389 25.2598 37.4088C25.6669 37.3558 66.1653 32.0034 82.2321 31.833C82.2352 31.833 82.2381 31.833 82.241 31.833C82.4726 31.833 82.6628 31.9785 82.6674 32.2108C82.6722 32.446 82.4851 32.621 82.2495 32.6256C66.2286 32.9499 25.7765 38.1712 25.3697 38.224C25.3513 38.2264 25.3327 38.2177 25.3144 38.2177Z" fill="#161616"/>
<path d="M29.5824 31.255C29.376 31.255 29.1946 31.1052 29.1613 30.8951C29.1246 30.6627 29.2837 30.4446 29.5165 30.4081C29.7081 30.3779 48.7704 27.3939 57.19 27.1105C57.4172 27.1037 57.6231 27.2867 57.631 27.5219C57.6388 27.7571 57.4543 27.9542 57.2187 27.9621C48.8513 28.2436 29.8404 31.2198 29.6493 31.2498C29.6268 31.2533 29.6044 31.255 29.5824 31.255Z" fill="#161616"/>
<path d="M81.2197 36.6016C81.4385 36.6016 81.6159 36.4245 81.6159 36.2061C81.6159 35.9876 81.4385 35.8105 81.2197 35.8105C81.0009 35.8105 80.8235 35.9876 80.8235 36.2061C80.8235 36.4245 81.0009 36.6016 81.2197 36.6016Z" fill="#161616"/>
<path d="M83.0976 36.6016C83.3165 36.6016 83.4939 36.4245 83.4939 36.2061C83.4939 35.9876 83.3165 35.8105 83.0976 35.8105C82.8788 35.8105 82.7014 35.9876 82.7014 36.2061C82.7014 36.4245 82.8788 36.6016 83.0976 36.6016Z" fill="#161616"/>
<path d="M82.0732 34.8975C82.2921 34.8975 82.4695 34.7204 82.4695 34.502C82.4695 34.2835 82.2921 34.1064 82.0732 34.1064C81.8544 34.1064 81.677 34.2835 81.677 34.502C81.677 34.7204 81.8544 34.8975 82.0732 34.8975Z" fill="#161616"/>
<path d="M67.904 37.4531C68.1229 37.4531 68.3003 37.2761 68.3003 37.0576C68.3003 36.8392 68.1229 36.6621 67.904 36.6621C67.6852 36.6621 67.5078 36.8392 67.5078 37.0576C67.5078 37.2761 67.6852 37.4531 67.904 37.4531Z" fill="#161616"/>
<path d="M69.782 37.4531C70.0008 37.4531 70.1782 37.2761 70.1782 37.0576C70.1782 36.8392 70.0008 36.6621 69.782 36.6621C69.5631 36.6621 69.3857 36.8392 69.3857 37.0576C69.3857 37.2761 69.5631 37.4531 69.782 37.4531Z" fill="#161616"/>
<path d="M68.7576 35.749C68.9764 35.749 69.1538 35.572 69.1538 35.3535C69.1538 35.1351 68.9764 34.958 68.7576 34.958C68.5387 34.958 68.3613 35.1351 68.3613 35.3535C68.3613 35.572 68.5387 35.749 68.7576 35.749Z" fill="#161616"/>
<path d="M52.1985 39.1572C52.4173 39.1572 52.5947 38.9802 52.5947 38.7617C52.5947 38.5433 52.4173 38.3662 52.1985 38.3662C51.9796 38.3662 51.8022 38.5433 51.8022 38.7617C51.8022 38.9802 51.9796 39.1572 52.1985 39.1572Z" fill="#161616"/>
<path d="M54.0764 39.1572C54.2952 39.1572 54.4726 38.9802 54.4726 38.7617C54.4726 38.5433 54.2952 38.3662 54.0764 38.3662C53.8576 38.3662 53.6802 38.5433 53.6802 38.7617C53.6802 38.9802 53.8576 39.1572 54.0764 39.1572Z" fill="#161616"/>
<path d="M53.052 37.4531C53.2708 37.4531 53.4482 37.2761 53.4482 37.0576C53.4482 36.8392 53.2708 36.6621 53.052 36.6621C52.8332 36.6621 52.6558 36.8392 52.6558 37.0576C52.6558 37.2761 52.8332 37.4531 53.052 37.4531Z" fill="#161616"/>
<path d="M33.7612 41.2022C33.98 41.2022 34.1574 41.0251 34.1574 40.8067C34.1574 40.5882 33.98 40.4111 33.7612 40.4111C33.5424 40.4111 33.365 40.5882 33.365 40.8067C33.365 41.0251 33.5424 41.2022 33.7612 41.2022Z" fill="#161616"/>
<path d="M35.6391 41.2022C35.858 41.2022 36.0354 41.0251 36.0354 40.8067C36.0354 40.5882 35.858 40.4111 35.6391 40.4111C35.4203 40.4111 35.2429 40.5882 35.2429 40.8067C35.2429 41.0251 35.4203 41.2022 35.6391 41.2022Z" fill="#161616"/>
<path d="M34.6147 39.4981C34.8336 39.4981 35.011 39.321 35.011 39.1025C35.011 38.8841 34.8336 38.707 34.6147 38.707C34.3959 38.707 34.2185 38.8841 34.2185 39.1025C34.2185 39.321 34.3959 39.4981 34.6147 39.4981Z" fill="#161616"/>
<path d="M41.102 33.3633C41.3209 33.3633 41.4983 33.1862 41.4983 32.9678C41.4983 32.7493 41.3209 32.5723 41.102 32.5723C40.8832 32.5723 40.7058 32.7493 40.7058 32.9678C40.7058 33.1862 40.8832 33.3633 41.102 33.3633Z" fill="#161616"/>
<path d="M42.98 33.3633C43.1988 33.3633 43.3762 33.1862 43.3762 32.9678C43.3762 32.7493 43.1988 32.5723 42.98 32.5723C42.7611 32.5723 42.5837 32.7493 42.5837 32.9678C42.5837 33.1862 42.7611 33.3633 42.98 33.3633Z" fill="#161616"/>
<path d="M41.9556 31.6592C42.1744 31.6592 42.3518 31.4821 42.3518 31.2637C42.3518 31.0452 42.1744 30.8682 41.9556 30.8682C41.7367 30.8682 41.5593 31.0452 41.5593 31.2637C41.5593 31.4821 41.7367 31.6592 41.9556 31.6592Z" fill="#161616"/>
<path d="M56.2954 32C56.5142 32 56.6916 31.8229 56.6916 31.6045C56.6916 31.3861 56.5142 31.209 56.2954 31.209C56.0766 31.209 55.8992 31.3861 55.8992 31.6045C55.8992 31.8229 56.0766 32 56.2954 32Z" fill="#161616"/>
<path d="M58.1733 32C58.3922 32 58.5696 31.8229 58.5696 31.6045C58.5696 31.3861 58.3922 31.209 58.1733 31.209C57.9545 31.209 57.7771 31.3861 57.7771 31.6045C57.7771 31.8229 57.9545 32 58.1733 32Z" fill="#161616"/>
<path d="M57.1489 30.2959C57.3677 30.2959 57.5451 30.1188 57.5451 29.9004C57.5451 29.682 57.3677 29.5049 57.1489 29.5049C56.9301 29.5049 56.7527 29.682 56.7527 29.9004C56.7527 30.1188 56.9301 30.2959 57.1489 30.2959Z" fill="#161616"/>
<path d="M32.3955 28.7627C32.6143 28.7627 32.7917 28.5856 32.7917 28.3672C32.7917 28.1488 32.6143 27.9717 32.3955 27.9717C32.1767 27.9717 31.9993 28.1488 31.9993 28.3672C31.9993 28.5856 32.1767 28.7627 32.3955 28.7627Z" fill="#161616"/>
<path d="M34.2734 28.7627C34.4923 28.7627 34.6697 28.5856 34.6697 28.3672C34.6697 28.1488 34.4923 27.9717 34.2734 27.9717C34.0546 27.9717 33.8772 28.1488 33.8772 28.3672C33.8772 28.5856 34.0546 28.7627 34.2734 28.7627Z" fill="#161616"/>
<path d="M33.2493 27.0586C33.4681 27.0586 33.6455 26.8815 33.6455 26.6631C33.6455 26.4447 33.4681 26.2676 33.2493 26.2676C33.0304 26.2676 32.853 26.4447 32.853 26.6631C32.853 26.8815 33.0304 27.0586 33.2493 27.0586Z" fill="#161616"/>
<path d="M194.386 88.9965C194.386 88.9965 193.869 86.1912 194.276 85.0127C194.276 85.0127 196.669 87.5734 196.793 89.6585L194.386 88.9965Z" fill="#946D42"/>
<path d="M219.356 97.0986C219.356 97.0986 226.619 99.5529 224.704 103.672C222.789 107.792 208.363 107.154 205.299 107.664C205.299 107.664 207.725 102.977 210.916 102.835C214.108 102.694 215.162 103.391 215.162 103.391L214.363 101.921C214.363 101.921 217.837 101.559 219.356 102.381C220.874 103.204 221.015 100.023 218.966 98.9372L219.356 97.0986Z" fill="#161616"/>
<path d="M202.001 98.9365C202.001 98.9365 204.931 99.6361 203.911 101.579C202.891 103.522 196.253 104.06 195.614 103.408C194.976 102.757 197.279 99.194 202.001 98.9365Z" fill="#161616"/>
<path d="M197.191 104.098C195.693 104.098 195.414 103.814 195.309 103.707C195.156 103.55 194.94 103.18 195.219 102.462C195.771 101.047 198.093 98.7235 201.977 98.5116C202.019 98.5088 202.06 98.5131 202.1 98.5225C202.282 98.5659 203.891 98.9792 204.403 100.102C204.565 100.458 204.677 101.038 204.29 101.777C203.369 103.531 199.109 104.098 197.191 104.098ZM195.937 103.113C196.055 103.161 196.422 103.246 197.191 103.246C199.431 103.246 202.927 102.537 203.533 101.382C203.719 101.029 203.749 100.725 203.625 100.455C203.349 99.8481 202.38 99.4784 201.959 99.3663C199.119 99.5412 197.15 101.002 196.324 102.207C195.981 102.707 195.931 103.012 195.937 103.113Z" fill="#DEE5DC"/>
<path d="M199.901 91.4648C199.901 91.4648 209.55 85.0929 214.039 86.3887C221.921 88.6643 218.747 99.4846 218.609 101.018H201.016L199.901 91.4648Z" fill="#161616"/>
<path d="M218.61 101.359H201.016C200.8 101.359 200.617 101.198 200.592 100.983L199.477 91.4721C199.459 91.3126 199.531 91.1562 199.665 91.0675C199.995 90.8494 207.784 85.7256 212.68 85.7256C213.224 85.7256 213.721 85.7897 214.157 85.9158C221.472 88.0275 219.75 97.1123 219.184 100.098C219.109 100.495 219.049 100.809 219.035 100.971C219.015 101.191 218.83 101.359 218.61 101.359ZM201.396 100.507H218.24C218.268 100.348 218.304 100.159 218.345 99.9393C218.932 96.8466 220.489 88.6307 213.92 86.7344C213.56 86.6306 213.143 86.5778 212.68 86.5778C208.477 86.5778 201.659 90.8027 200.356 91.6362L201.396 100.507Z" fill="#DEE5DC"/>
<path d="M190.777 99.209C190.777 99.209 199.106 101.594 201.277 101.603C203.448 101.611 206.32 102.835 206.32 99.6991L205.928 98.2736C205.928 98.2736 201.469 96.4944 201.309 94.0822C201.149 91.6705 198.441 89.8089 194.385 88.9961C185.826 87.2814 185.453 97.7937 190.777 99.209Z" fill="#161616"/>
<path d="M204.242 102.271C203.756 102.271 203.23 102.209 202.722 102.148C202.234 102.09 201.728 102.031 201.275 102.029C199.071 102.02 191.001 99.7169 190.659 99.6187C187.773 98.8516 186.564 95.7501 186.895 93.2225C187.202 90.8824 188.861 88.3818 192.596 88.3818C193.188 88.3818 193.818 88.4481 194.47 88.5787C198.85 89.4564 201.566 91.5035 201.735 94.0544C201.852 95.8133 204.915 97.4111 206.086 97.8782C206.21 97.9276 206.304 98.0322 206.339 98.1609L206.732 99.5863C206.742 99.6232 206.747 99.661 206.747 99.6992C206.747 100.655 206.502 101.327 205.999 101.755C205.585 102.107 205.027 102.271 204.242 102.271ZM192.596 89.2339C189.413 89.2339 188.002 91.3515 187.742 93.3332C187.457 95.5015 188.463 98.1534 190.886 98.7975C190.977 98.8234 199.192 101.169 201.279 101.177C201.78 101.179 202.31 101.242 202.823 101.302C203.329 101.362 203.807 101.419 204.242 101.419C204.812 101.419 205.195 101.32 205.445 101.107C205.738 100.858 205.885 100.415 205.893 99.7556L205.571 98.5864C204.664 98.1931 201.04 96.4779 200.883 94.1104C200.741 91.9672 198.281 90.2115 194.301 89.414C193.705 89.2945 193.131 89.2339 192.596 89.2339Z" fill="#DEE5DC"/>
<path d="M215.643 93.3331C215.643 93.3331 210.399 92.9018 212.055 97.7314C212.055 97.7314 207.157 99.05 207.847 100.874" fill="#161616"/>
<path d="M207.847 101.3C207.674 101.3 207.512 101.195 207.447 101.025C207.3 100.636 207.327 100.226 207.525 99.8395C208.162 98.5991 210.514 97.7555 211.519 97.444C211.141 96.0975 211.263 95.0142 211.883 94.2201C213.06 92.7116 215.572 92.8992 215.678 92.9086C215.913 92.9279 216.087 93.1336 216.068 93.368C216.049 93.6025 215.841 93.7745 215.608 93.7578C215.579 93.7554 213.444 93.6022 212.555 94.7455C212.061 95.3804 212.029 96.3386 212.459 97.5933C212.497 97.7048 212.487 97.8271 212.432 97.9312C212.376 98.0352 212.28 98.1119 212.166 98.1425C211.259 98.3874 208.792 99.2395 208.285 100.228C208.196 100.401 208.184 100.559 208.246 100.724C208.329 100.944 208.218 101.189 207.997 101.273C207.948 101.292 207.897 101.3 207.847 101.3Z" fill="#DEE5DC"/>
<path d="M188.819 98.3906C188.819 98.3906 185.724 99.1295 186.801 101.181C187.878 103.233 194.889 103.801 195.563 103.113C196.237 102.425 193.805 98.6626 188.819 98.3906Z" fill="#161616"/>
<path d="M193.899 103.745H193.898C191.877 103.745 187.39 103.185 186.423 101.343C186.098 100.723 186.058 100.153 186.304 99.6123C186.848 98.4169 188.643 97.9851 188.719 97.9671C188.76 97.9575 188.801 97.958 188.842 97.9606C192.933 98.1838 195.378 100.631 195.958 102.12C196.249 102.865 196.027 103.212 195.869 103.374C195.76 103.485 195.47 103.745 193.899 103.745ZM188.86 98.8196C188.414 98.9392 187.374 99.3368 187.081 99.9842C186.948 100.277 186.98 100.604 187.179 100.983C187.467 101.531 188.451 102.025 189.879 102.402C191.113 102.727 192.654 102.893 193.898 102.893H193.899C194.744 102.893 195.132 102.833 195.246 102.781C195.257 102.688 195.221 102.401 194.88 101.882C194.023 100.574 191.934 99.0076 188.86 98.8196Z" fill="#DEE5DC"/>
<path d="M197.135 96.0957C197.135 96.0957 197.988 97.4738 199.52 96.0957H197.135Z" fill="#161616"/>
<path d="M198.224 97.1349C198.146 97.1349 198.068 97.1294 197.991 97.1184C197.218 97.0079 196.815 96.39 196.772 96.3198C196.648 96.1194 196.711 95.857 196.911 95.7336C197.11 95.6106 197.372 95.6716 197.497 95.8693C197.505 95.8827 197.736 96.2249 198.119 96.276C198.444 96.3181 198.819 96.1521 199.234 95.7796C199.409 95.6218 199.678 95.636 199.836 95.811C199.994 95.9858 199.98 96.2551 199.805 96.4127C199.271 96.8927 198.741 97.1349 198.224 97.1349Z" fill="#DEE5DC"/>
<path d="M203.672 97.8279C203.672 97.8279 203.489 100.363 205.588 99.6532C207.686 98.9434 205.449 97.2196 203.672 97.8279Z" fill="#946D42"/>
<path d="M191.872 96.8887C191.872 96.8887 191.51 99.4162 193.541 99.8829L191.872 96.8887Z" fill="#161616"/>
<path d="M193.541 100.31C193.509 100.31 193.477 100.306 193.445 100.299C191.536 99.8599 191.305 97.8371 191.45 96.8288C191.483 96.596 191.7 96.4328 191.933 96.4676C192.165 96.5008 192.327 96.716 192.295 96.9486C192.283 97.036 192.017 99.0961 193.637 99.4683C193.866 99.5211 194.01 99.7498 193.957 99.979C193.911 100.176 193.736 100.309 193.541 100.31Z" fill="#DEE5DC"/>
<path d="M192.448 89.8219C192.448 89.8219 188.957 86.2924 186.436 86.0266C183.914 85.7607 186.817 91.4772 188.82 91.9147" fill="#161616"/>
<path d="M188.82 92.3407C188.79 92.3407 188.759 92.3373 188.729 92.3307C186.941 91.9403 184.788 88.2537 185.052 86.622C185.169 85.9017 185.704 85.5207 186.48 85.6028C189.123 85.8816 192.604 89.3741 192.751 89.5225C192.917 89.6899 192.915 89.9596 192.748 90.1249C192.58 90.2904 192.309 90.2887 192.144 90.1214C192.11 90.0871 188.73 86.697 186.391 86.4502C185.985 86.4073 185.926 86.5644 185.895 86.7583C185.697 87.9798 187.588 91.2096 188.911 91.4984C189.141 91.5487 189.287 91.7758 189.237 92.0057C189.193 92.2048 189.016 92.3406 188.82 92.3407Z" fill="#DEE5DC"/>
<path d="M190.416 91.9143C190.416 91.9143 187.331 87.2812 185.826 86.6729C185.826 86.6729 186.251 91.984 190.416 91.9143Z" fill="#946D42"/>
<path d="M131.585 113.202C131.349 113.202 131.158 113.011 131.158 112.776V110.561C131.158 110.325 131.349 110.135 131.585 110.135C131.821 110.135 132.012 110.325 132.012 110.561V112.776C132.012 113.011 131.821 113.202 131.585 113.202Z" fill="#161616"/>
<path d="M133.163 113.782C133.118 113.782 133.072 113.775 133.026 113.759C132.803 113.684 132.684 113.442 132.759 113.219L133.34 111.509C133.416 111.287 133.658 111.167 133.881 111.243C134.105 111.318 134.224 111.56 134.148 111.783L133.568 113.493C133.507 113.67 133.341 113.782 133.163 113.782Z" fill="#161616"/>
<path d="M135.232 113.782C135.114 113.782 134.997 113.734 134.913 113.639C134.756 113.464 134.772 113.195 134.948 113.038L135.91 112.183C136.086 112.027 136.356 112.042 136.513 112.218C136.669 112.394 136.654 112.663 136.478 112.819L135.515 113.674C135.434 113.747 135.332 113.782 135.232 113.782Z" fill="#161616"/>
<path d="M109.395 75.3664C109.23 75.3664 109.073 75.2705 109.003 75.1096L108.121 73.077C108.028 72.8611 108.127 72.6103 108.343 72.5167C108.559 72.4231 108.811 72.5222 108.904 72.7382L109.787 74.7709C109.88 74.9868 109.781 75.2376 109.565 75.3312C109.509 75.3552 109.452 75.3664 109.395 75.3664Z" fill="#161616"/>
<path d="M111.074 75.2719C110.854 75.2719 110.668 75.1033 110.649 74.8808L110.501 73.0811C110.482 72.8466 110.657 72.6409 110.891 72.6217C111.128 72.6017 111.332 72.7769 111.352 73.0114L111.5 74.8111C111.519 75.0456 111.345 75.2512 111.11 75.2705C111.098 75.2715 111.086 75.2719 111.074 75.2719Z" fill="#161616"/>
<path d="M112.972 74.4514C112.912 74.4514 112.851 74.4386 112.793 74.4117C112.579 74.3125 112.486 74.0593 112.585 73.8459L113.128 72.6793C113.227 72.466 113.481 72.3733 113.694 72.4723C113.908 72.5715 114.001 72.8247 113.902 73.038L113.359 74.2047C113.287 74.3601 113.133 74.4514 112.972 74.4514Z" fill="#161616"/>
<path d="M189.092 104.077C189.065 104.077 189.039 104.074 189.011 104.069C188.78 104.025 188.628 103.802 188.672 103.571L189.089 101.395C189.133 101.164 189.357 101.013 189.588 101.056C189.819 101.101 189.971 101.324 189.927 101.555L189.511 103.731C189.472 103.935 189.293 104.077 189.092 104.077Z" fill="#161616"/>
<path d="M187.431 104.35C187.221 104.35 187.039 104.196 187.009 103.983L186.76 102.194C186.728 101.961 186.891 101.746 187.124 101.714C187.358 101.683 187.573 101.844 187.605 102.077L187.854 103.866C187.887 104.099 187.724 104.314 187.49 104.346C187.47 104.349 187.451 104.35 187.431 104.35Z" fill="#161616"/>
<path d="M185.401 103.963C185.272 103.963 185.146 103.906 185.062 103.797L184.277 102.776C184.134 102.59 184.169 102.322 184.356 102.179C184.543 102.036 184.811 102.071 184.954 102.257L185.739 103.278C185.883 103.464 185.847 103.732 185.66 103.875C185.583 103.934 185.491 103.963 185.401 103.963Z" fill="#161616"/>
<path d="M177.198 39.8414C176.965 39.8414 176.775 39.6952 176.771 39.462L176.711 35.7335C176.707 35.4983 176.895 35.3145 177.131 35.3107C177.369 35.3039 177.561 35.4995 177.565 35.7349L177.625 39.4458C177.628 39.6812 177.441 39.8412 177.205 39.8412C177.203 39.8414 177.2 39.8414 177.198 39.8414Z" fill="#161616"/>
<path d="M181.636 38.9897C181.403 38.9897 181.213 38.808 181.209 38.5749L181.149 34.8239C181.145 34.5887 181.333 34.3887 181.569 34.3887C181.571 34.3887 181.574 34.3887 181.576 34.3887C181.808 34.3887 181.999 34.5795 182.003 34.8125L182.063 38.5589C182.066 38.7941 181.879 38.9895 181.643 38.9895C181.64 38.9897 181.638 38.9897 181.636 38.9897Z" fill="#161616"/>
<path d="M185.562 38.9897C185.329 38.9897 185.139 38.7765 185.135 38.5436L185.075 34.8082C185.071 34.5729 185.259 34.3887 185.495 34.3887C185.497 34.3887 185.5 34.3887 185.502 34.3887C185.734 34.3887 185.925 34.5483 185.929 34.7811L185.989 38.5434C185.992 38.7787 185.804 38.9897 185.569 38.9897C185.566 38.9897 185.564 38.9897 185.562 38.9897Z" fill="#161616"/>
<path d="M190 38.6485C189.767 38.6485 189.577 38.4851 189.573 38.2522L189.513 34.515C189.509 34.2798 189.697 34.0917 189.933 34.0879C190.171 34.0855 190.363 34.2747 190.367 34.5098L190.427 38.237C190.43 38.4722 190.243 38.6485 190.007 38.6485C190.004 38.6485 190.002 38.6485 190 38.6485Z" fill="#161616"/>
<path d="M194.097 38.3085C193.864 38.3085 193.674 38.1123 193.67 37.8792L193.61 34.1258C193.606 33.8906 193.794 33.6943 194.03 33.6906C194.265 33.6843 194.459 33.8731 194.463 34.1084L194.524 37.8663C194.527 38.1014 194.339 38.3085 194.104 38.3085C194.101 38.3085 194.099 38.3085 194.097 38.3085Z" fill="#161616"/>
<path d="M198.534 38.1374C198.302 38.1374 198.112 37.9909 198.108 37.7579L198.048 34.0292C198.044 33.7939 198.232 33.6102 198.468 33.6065C198.711 33.6042 198.897 33.7954 198.901 34.0306L198.961 37.7419C198.965 37.9773 198.777 38.1374 198.541 38.1374C198.539 38.1374 198.537 38.1374 198.534 38.1374Z" fill="#161616"/>
<path d="M202.46 38.1376C202.228 38.1376 202.037 37.9597 202.034 37.7267L201.973 33.9825C201.97 33.7474 202.158 33.5557 202.393 33.5519C202.637 33.5454 202.823 33.7366 202.827 33.972L202.887 37.7128C202.891 37.9479 202.703 38.1378 202.467 38.1378C202.465 38.1376 202.463 38.1376 202.46 38.1376Z" fill="#161616"/>
<path d="M206.898 38.3083C206.666 38.3083 206.475 38.095 206.472 37.862L206.411 34.0999C206.408 33.8648 206.596 33.6642 206.831 33.6603C207.067 33.6548 207.261 33.8407 207.265 34.0761L207.325 37.8499C207.329 38.0851 207.141 38.3082 206.905 38.3082C206.903 38.3083 206.901 38.3083 206.898 38.3083Z" fill="#161616"/>
<path d="M210.824 38.4786C210.592 38.4786 210.401 38.3191 210.398 38.0862L210.337 34.351C210.334 34.1159 210.522 33.9287 210.757 33.925C210.993 33.9178 211.187 34.1121 211.191 34.3474L211.251 38.071C211.255 38.3062 211.067 38.4788 210.831 38.4788C210.829 38.4786 210.827 38.4786 210.824 38.4786Z" fill="#161616"/>
<path d="M215.262 38.4782C215.03 38.4782 214.839 38.2831 214.836 38.0501L214.775 34.2974C214.772 34.0622 214.96 33.8661 215.195 33.8623C215.439 33.8591 215.625 34.0452 215.629 34.2804L215.689 38.0372C215.693 38.2723 215.505 38.4782 215.269 38.4782C215.267 38.4782 215.265 38.4782 215.262 38.4782Z" fill="#161616"/>
<path d="M219.188 39.3302C218.956 39.3302 218.765 39.1037 218.762 38.8708L218.701 35.1022C218.698 34.8668 218.886 34.663 219.121 34.6593C219.365 34.654 219.551 34.8381 219.555 35.0734L219.615 38.8597C219.619 39.095 219.431 39.3302 219.195 39.3302C219.193 39.3302 219.191 39.3302 219.188 39.3302Z" fill="#161616"/>
<path d="M175.817 37.7772C175.606 37.7772 175.423 37.6209 175.395 37.4064C175.364 37.1731 175.529 36.9592 175.762 36.9287C176.056 36.8905 205.328 33.1249 220.921 36.1496C221.152 36.1944 221.304 36.4182 221.259 36.6491C221.214 36.8801 220.991 37.031 220.758 36.986C205.3 33.9873 176.166 37.7353 175.873 37.7736C175.854 37.7758 175.836 37.7772 175.817 37.7772Z" fill="#161616"/>
<path d="M201.407 19.8535L216.504 20.7277L219.128 24.7495L218.781 31.6366L205.426 31.1727L201.407 19.8535Z" fill="#161616"/>
<path d="M196.2 30.4759V23.6565L201.393 19.8535L205.62 24.2248L205.408 31.1727C205.408 31.1727 199.444 30.3089 196.2 30.4759Z" fill="#161616"/>
<path d="M205.385 31.5988C205.38 31.5988 205.375 31.5988 205.371 31.5986C205.135 31.5911 204.95 31.3942 204.958 31.159L205.178 24.3914L201.067 20.1498C200.903 19.9807 200.908 19.711 201.077 19.5474C201.247 19.3841 201.517 19.3884 201.681 19.5574L205.917 23.9287C205.998 24.0116 206.041 24.1235 206.037 24.2387L205.811 31.1866C205.804 31.4172 205.614 31.5988 205.385 31.5988Z" fill="#DEE5DC"/>
<path d="M202.404 31.0943C202.386 31.0943 202.369 31.0933 202.351 31.091C202.117 31.0622 201.951 30.8497 201.979 30.6163C202.084 29.7625 202.181 27.3315 201.38 26.3472C201.177 26.0974 200.931 25.9636 200.629 25.9381C200.348 25.9137 200.131 25.9926 199.944 26.1841C199.126 27.0195 199.2 29.5398 199.297 30.4406C199.322 30.6746 199.152 30.8845 198.918 30.9099C198.683 30.9351 198.473 30.7657 198.448 30.5319C198.444 30.4955 198.352 29.6274 198.402 28.6012C198.473 27.1607 198.786 26.1473 199.333 25.5887C199.697 25.2171 200.17 25.0443 200.701 25.0889C201.239 25.1343 201.691 25.3771 202.043 25.8106C203.236 27.278 202.844 30.5805 202.827 30.7204C202.8 30.9361 202.616 31.0943 202.404 31.0943Z" fill="#DEE5DC"/>
<path d="M211.223 20.8238V17.1777H213.784V21.0942L211.223 20.8238Z" fill="#161616"/>
<path d="M90.8541 19.7619C90.8009 19.7619 90.7473 19.7521 90.6957 19.7314L89.274 19.1635C89.0551 19.076 88.9488 18.8281 89.0362 18.6096C89.1239 18.3913 89.3718 18.285 89.591 18.3724L90.7348 18.8295L91.3475 18.1436C91.5042 17.9681 91.7739 17.9522 91.9501 18.1092C92.126 18.2658 92.1415 18.535 91.9846 18.7107L91.1727 19.6195C91.0902 19.712 90.9735 19.7619 90.8541 19.7619Z" fill="#161616"/>
<path d="M89.1471 24.7043C89.0938 24.7043 89.0402 24.6944 88.9887 24.6738L87.567 24.1058C87.3481 24.0184 87.2418 23.7704 87.3292 23.552C87.4169 23.3337 87.665 23.2273 87.884 23.3147L89.0278 23.7718L89.6405 23.0859C89.7973 22.9104 90.0671 22.8947 90.2431 23.0515C90.4189 23.2081 90.4345 23.4773 90.2776 23.653L89.4657 24.5618C89.3832 24.6543 89.2664 24.7043 89.1471 24.7043Z" fill="#161616"/>
<path d="M96.1464 24.1935C96.0931 24.1935 96.0395 24.1836 95.9879 24.163L94.5662 23.595C94.3474 23.5076 94.241 23.2597 94.3284 23.0412C94.4162 22.8229 94.6642 22.7164 94.8833 22.804L96.027 23.261L96.6397 22.5751C96.7964 22.3996 97.0662 22.3839 97.2423 22.5407C97.4182 22.6973 97.4337 22.9666 97.2768 23.1423L96.4649 24.0511C96.3825 24.1436 96.2657 24.1935 96.1464 24.1935Z" fill="#161616"/>
<path d="M96.1464 17.2063C96.0931 17.2063 96.0395 17.1964 95.9879 17.1758L94.5662 16.6078C94.3474 16.5204 94.241 16.2724 94.3284 16.054C94.4162 15.8357 94.6642 15.7293 94.8833 15.8168L96.027 16.2738L96.6397 15.5879C96.7964 15.4124 97.0662 15.3965 97.2423 15.5535C97.4182 15.7101 97.4337 15.9793 97.2768 16.155L96.4649 17.0638C96.3825 17.1563 96.2657 17.2063 96.1464 17.2063Z" fill="#161616"/>
<path d="M83.172 15.1614C83.1187 15.1614 83.0651 15.1515 83.0136 15.1309L81.5919 14.5629C81.373 14.4755 81.2667 14.2276 81.3541 14.0091C81.4418 13.791 81.69 13.6845 81.9089 13.7719L83.0527 14.2289L83.6654 13.543C83.8221 13.3674 84.0918 13.3517 84.268 13.5086C84.4438 13.6652 84.4594 13.9345 84.3025 14.1102L83.4906 15.019C83.4081 15.1115 83.2913 15.1614 83.172 15.1614Z" fill="#161616"/>
<path d="M75.761 133.992C75.5253 133.992 75.3342 133.801 75.3342 133.566V131.351C75.3342 131.115 75.5253 130.925 75.761 130.925C75.9968 130.925 76.1878 131.115 76.1878 131.351V133.566C76.1878 133.801 75.9968 133.992 75.761 133.992Z" fill="#161616"/>
<path d="M77.3399 134.572C77.2945 134.572 77.2483 134.565 77.2029 134.549C76.9796 134.474 76.8601 134.232 76.9359 134.009L77.5166 132.299C77.5921 132.077 77.8347 131.957 78.0578 132.033C78.2811 132.108 78.4006 132.35 78.3248 132.573L77.744 134.283C77.6839 134.46 77.5178 134.572 77.3399 134.572Z" fill="#161616"/>
<path d="M79.4081 134.572C79.2906 134.572 79.1735 134.524 79.0892 134.43C78.9325 134.254 78.9482 133.985 79.1242 133.828L80.0867 132.973C80.2627 132.817 80.5322 132.832 80.6891 133.008C80.8458 133.184 80.8301 133.453 80.6541 133.609L79.6916 134.464C79.6104 134.537 79.509 134.572 79.4081 134.572Z" fill="#161616"/>
<path d="M96.7588 99.5703C96.5231 99.5703 96.332 99.3796 96.332 99.1443V96.929C96.332 96.6936 96.5231 96.5029 96.7588 96.5029C96.9946 96.5029 97.1856 96.6936 97.1856 96.929V99.1443C97.1856 99.3796 96.9946 99.5703 96.7588 99.5703Z" fill="#161616"/>
<path d="M98.3375 100.15C98.2921 100.15 98.2458 100.143 98.2004 100.128C97.9771 100.052 97.8576 99.8103 97.9334 99.5874L98.5142 97.8773C98.5897 97.6548 98.8322 97.5346 99.0554 97.6108C99.2787 97.6863 99.3982 97.9281 99.3224 98.151L98.7416 99.861C98.6815 100.038 98.5154 100.15 98.3375 100.15Z" fill="#161616"/>
<path d="M100.406 100.151C100.288 100.151 100.171 100.102 100.087 100.008C99.93 99.832 99.9457 99.5628 100.122 99.4063L101.084 98.5512C101.26 98.3946 101.53 98.4105 101.687 98.5862C101.843 98.7619 101.828 99.0311 101.652 99.1875L100.689 100.043C100.608 100.115 100.507 100.151 100.406 100.151Z" fill="#161616"/>
<path d="M171.361 128.028C171.125 128.028 170.934 127.838 170.934 127.602V125.387C170.934 125.152 171.125 124.961 171.361 124.961C171.597 124.961 171.788 125.152 171.788 125.387V127.602C171.788 127.838 171.597 128.028 171.361 128.028Z" fill="#161616"/>
<path d="M172.94 128.608C172.894 128.608 172.848 128.601 172.803 128.586C172.579 128.51 172.46 128.268 172.536 128.045L173.116 126.335C173.192 126.113 173.434 125.993 173.658 126.069C173.881 126.144 174 126.386 173.925 126.609L173.344 128.319C173.284 128.496 173.118 128.608 172.94 128.608Z" fill="#161616"/>
<path d="M175.008 128.608C174.89 128.608 174.773 128.559 174.689 128.465C174.532 128.289 174.548 128.02 174.724 127.863L175.687 127.008C175.863 126.852 176.132 126.868 176.289 127.043C176.446 127.219 176.43 127.488 176.254 127.645L175.291 128.5C175.21 128.572 175.109 128.608 175.008 128.608Z" fill="#161616"/>
<path d="M145.583 90.1972C145.348 90.1972 145.156 90.0065 145.156 89.7712V87.5559C145.156 87.3206 145.348 87.1299 145.583 87.1299C145.819 87.1299 146.01 87.3206 146.01 87.5559V89.7712C146.01 90.0065 145.819 90.1972 145.583 90.1972Z" fill="#161616"/>
<path d="M147.162 90.7774C147.117 90.7774 147.071 90.7701 147.025 90.7546C146.802 90.6791 146.682 90.4373 146.758 90.2144L147.339 88.5044C147.414 88.2816 147.657 88.1615 147.88 88.2378C148.103 88.3133 148.223 88.5551 148.147 88.778L147.566 90.4881C147.506 90.6655 147.34 90.7774 147.162 90.7774Z" fill="#161616"/>
<path d="M149.23 90.7774C149.113 90.7774 148.996 90.7292 148.911 90.6346C148.755 90.4589 148.77 90.1897 148.946 90.0332L149.909 89.1781C150.085 89.0217 150.355 89.0374 150.511 89.213C150.668 89.3887 150.652 89.658 150.476 89.8144L149.514 90.6695C149.433 90.7418 149.331 90.7774 149.23 90.7774Z" fill="#161616"/>
<path d="M60.2261 70.2597C59.9903 70.2597 59.7993 70.069 59.7993 69.8337V67.6184C59.7993 67.3831 59.9903 67.1924 60.2261 67.1924C60.4619 67.1924 60.6529 67.3831 60.6529 67.6184V69.8337C60.6529 70.069 60.4619 70.2597 60.2261 70.2597Z" fill="#161616"/>
<path d="M61.805 70.8397C61.7596 70.8397 61.7134 70.8325 61.668 70.817C61.4447 70.7416 61.3252 70.4996 61.401 70.2769L61.9817 68.5668C62.0572 68.3441 62.2998 68.2243 62.5229 68.3001C62.7462 68.3756 62.8657 68.6176 62.7899 68.8403L62.2091 70.5504C62.149 70.7279 61.9829 70.8397 61.805 70.8397Z" fill="#161616"/>
<path d="M63.8732 70.8391C63.7557 70.8391 63.6386 70.7909 63.5543 70.6963C63.3976 70.5206 63.4133 70.2512 63.5893 70.0948L64.5518 69.2397C64.7278 69.0832 64.9973 69.0988 65.1542 69.2748C65.3109 69.4505 65.2952 69.7199 65.1192 69.8763L64.1567 70.7314C64.0755 70.8037 63.9741 70.8391 63.8732 70.8391Z" fill="#161616"/>
<path d="M88.5645 55.9453C88.3287 55.9453 88.1377 55.7546 88.1377 55.5193V53.304C88.1377 53.0686 88.3287 52.8779 88.5645 52.8779C88.8002 52.8779 88.9913 53.0686 88.9913 53.304V55.5193C88.9913 55.7546 88.8002 55.9453 88.5645 55.9453Z" fill="#161616"/>
<path d="M90.1432 56.5253C90.0978 56.5253 90.0515 56.5181 90.0061 56.5026C89.7828 56.4271 89.6633 56.1851 89.7391 55.9624L90.3199 54.2524C90.3953 54.0296 90.6379 53.9098 90.861 53.9857C91.0843 54.0612 91.2038 54.3031 91.128 54.5259L90.5472 56.2359C90.4872 56.4135 90.3211 56.5253 90.1432 56.5253Z" fill="#161616"/>
<path d="M92.2113 56.5247C92.0939 56.5247 91.9768 56.4765 91.8924 56.3819C91.7357 56.2062 91.7514 55.9368 91.9274 55.7803L92.8899 54.9252C93.0659 54.7688 93.3355 54.7843 93.4924 54.9603C93.6491 55.136 93.6334 55.4054 93.4574 55.5619L92.4949 56.417C92.4136 56.4892 92.3122 56.5247 92.2113 56.5247Z" fill="#161616"/>
<path d="M160.777 53.5595C160.541 53.5595 160.35 53.3688 160.35 53.1335V50.9182C160.35 50.6829 160.541 50.4922 160.777 50.4922C161.012 50.4922 161.203 50.6829 161.203 50.9182V53.1335C161.203 53.3688 161.012 53.5595 160.777 53.5595Z" fill="#161616"/>
<path d="M162.355 54.1395C162.31 54.1395 162.264 54.1323 162.218 54.1168C161.995 54.0413 161.875 53.7993 161.951 53.5766L162.532 51.8665C162.607 51.6438 162.85 51.5242 163.073 51.5999C163.296 51.6753 163.416 51.9173 163.34 52.1401L162.759 53.8501C162.699 54.0277 162.533 54.1395 162.355 54.1395Z" fill="#161616"/>
<path d="M164.424 54.1389C164.306 54.1389 164.189 54.0907 164.105 53.9961C163.948 53.8204 163.964 53.551 164.14 53.3945L165.102 52.5394C165.278 52.383 165.548 52.3987 165.705 52.5745C165.861 52.7502 165.846 53.0196 165.67 53.1761L164.707 54.0312C164.626 54.1034 164.525 54.1389 164.424 54.1389Z" fill="#161616"/>
</g>
<path d="M118.841 56.002C119.411 56.002 119.958 56.2302 120.361 56.6364C120.764 57.0426 120.99 57.5936 120.99 58.168V65.3883C120.99 65.9628 120.764 66.5137 120.361 66.9199C119.958 67.3261 119.411 67.5544 118.841 67.5544C118.271 67.5544 117.725 67.3261 117.322 66.9199C116.919 66.5137 116.692 65.9628 116.692 65.3883V58.168C116.692 57.5936 116.919 57.0426 117.322 56.6364C117.725 56.2302 118.271 56.002 118.841 56.002ZM105.145 61.6915C105.548 61.2859 106.094 61.058 106.663 61.058C107.233 61.058 107.779 61.2859 108.182 61.6915L113.196 66.7457C113.408 66.944 113.577 67.1831 113.694 67.4488C113.812 67.7145 113.875 68.0014 113.88 68.2922C113.885 68.583 113.832 68.8719 113.724 69.1417C113.616 69.4114 113.455 69.6564 113.251 69.8621C113.047 70.0677 112.804 70.2299 112.536 70.3388C112.269 70.4478 111.982 70.5013 111.693 70.4962C111.405 70.491 111.12 70.4274 110.857 70.309C110.593 70.1906 110.356 70.0199 110.159 69.8071L105.145 64.7529C104.742 64.3468 104.516 63.7962 104.516 63.2222C104.516 62.6482 104.742 62.0977 105.145 61.6915ZM132.538 61.6915C132.94 62.0977 133.166 62.6482 133.166 63.2222C133.166 63.7962 132.94 64.3468 132.538 64.7529L127.523 69.8071C127.326 70.0199 127.089 70.1906 126.826 70.309C126.562 70.4274 126.277 70.491 125.989 70.4962C125.7 70.5013 125.414 70.4478 125.146 70.3388C124.879 70.2299 124.635 70.0677 124.431 69.8621C124.227 69.6564 124.066 69.4114 123.958 69.1417C123.85 68.8719 123.797 68.583 123.802 68.2922C123.807 68.0014 123.871 67.7145 123.988 67.4488C124.105 67.1831 124.275 66.944 124.486 66.7457L129.5 61.6915C129.903 61.2859 130.449 61.058 131.019 61.058C131.588 61.058 132.135 61.2859 132.538 61.6915ZM99.5 75.4966C99.5 74.9222 99.7264 74.3712 100.129 73.965C100.532 73.5588 101.079 73.3306 101.649 73.3306H108.812C109.382 73.3306 109.929 73.5588 110.332 73.965C110.735 74.3712 110.961 74.9222 110.961 75.4966C110.961 76.0711 110.735 76.6221 110.332 77.0283C109.929 77.4345 109.382 77.6627 108.812 77.6627H101.649C101.079 77.6627 100.532 77.4345 100.129 77.0283C99.7264 76.6221 99.5 76.0711 99.5 75.4966ZM116.692 77.6252C116.692 74.3703 120.48 72.6143 122.93 74.7342L147.174 95.6787C149.781 97.9314 148.297 102.238 144.867 102.379L133.864 102.821C132.681 102.867 131.569 103.399 130.778 104.285L123.288 112.724C120.976 115.332 116.692 113.68 116.692 110.183V77.6281V77.6252Z" fill="#374151"/>
</g>
</g>
<defs>
<filter id="filter0_dd_1124_1612" x="0" y="0.5" width="249" height="177" filterUnits="userSpaceOnUse" color-interpolation-filters="sRGB">
<feFlood flood-opacity="0" result="BackgroundImageFix"/>
<feColorMatrix in="SourceAlpha" type="matrix" values="0 0 0 0 0 0 0 0 0 0 0 0 0 0 0 0 0 0 127 0" result="hardAlpha"/>
<feMorphology radius="1" operator="erode" in="SourceAlpha" result="effect1_dropShadow_1124_1612"/>
<feOffset dy="2"/>
<feGaussianBlur stdDeviation="2"/>
<feColorMatrix type="matrix" values="0 0 0 0 0 0 0 0 0 0 0 0 0 0 0 0 0 0 0.06 0"/>
<feBlend mode="normal" in2="BackgroundImageFix" result="effect1_dropShadow_1124_1612"/>
<feColorMatrix in="SourceAlpha" type="matrix" values="0 0 0 0 0 0 0 0 0 0 0 0 0 0 0 0 0 0 127 0" result="hardAlpha"/>
<feMorphology radius="1" operator="erode" in="SourceAlpha" result="effect2_dropShadow_1124_1612"/>
<feOffset dy="4"/>
<feGaussianBlur stdDeviation="3"/>
<feColorMatrix type="matrix" values="0 0 0 0 0 0 0 0 0 0 0 0 0 0 0 0 0 0 0.1 0"/>
<feBlend mode="normal" in2="effect1_dropShadow_1124_1612" result="effect2_dropShadow_1124_1612"/>
<feBlend mode="normal" in="SourceGraphic" in2="effect2_dropShadow_1124_1612" result="shape"/>
</filter>
<filter id="filter1_dd_1124_1612" x="1.30298" y="13.4004" width="246.394" height="185.698" filterUnits="userSpaceOnUse" color-interpolation-filters="sRGB">
<feFlood flood-opacity="0" result="BackgroundImageFix"/>
<feColorMatrix in="SourceAlpha" type="matrix" values="0 0 0 0 0 0 0 0 0 0 0 0 0 0 0 0 0 0 127 0" result="hardAlpha"/>
<feMorphology radius="5" operator="erode" in="SourceAlpha" result="effect1_dropShadow_1124_1612"/>
<feOffset dy="10"/>
<feGaussianBlur stdDeviation="5"/>
<feColorMatrix type="matrix" values="0 0 0 0 0 0 0 0 0 0 0 0 0 0 0 0 0 0 0.04 0"/>
<feBlend mode="normal" in2="BackgroundImageFix" result="effect1_dropShadow_1124_1612"/>
<feColorMatrix in="SourceAlpha" type="matrix" values="0 0 0 0 0 0 0 0 0 0 0 0 0 0 0 0 0 0 127 0" result="hardAlpha"/>
<feMorphology radius="5" operator="erode" in="SourceAlpha" result="effect2_dropShadow_1124_1612"/>
<feOffset dy="20"/>
<feGaussianBlur stdDeviation="12.5"/>
<feColorMatrix type="matrix" values="0 0 0 0 0 0 0 0 0 0 0 0 0 0 0 0 0 0 0.1 0"/>
<feBlend mode="normal" in2="effect1_dropShadow_1124_1612" result="effect2_dropShadow_1124_1612"/>
<feBlend mode="normal" in="SourceGraphic" in2="effect2_dropShadow_1124_1612" result="shape"/>
</filter>
<clipPath id="clip0_1124_1612">
<rect x="5" y="1.5" width="239" height="167" rx="24" fill="white"/>
</clipPath>
</defs>
</svg>
